<?xml version="1.0" standalone="no"?> <!DOCTYPE svg PUBLIC "-//W3C//DTD SVG 1.0//EN" "http://www.w3.org/TR/2001/REC-SVG-20010904/DTD/svg10.dtd" > <svg xmlns="http://www.w3.org/2000/svg" width="100%" height="100%">
<defs >
<font id="gdipr" horiz-adv-x="407" ><font-face
    font-family="TGVT-DINPro"
    units-per-em="1000"
    panose-1="0 0 4 0 0 0 0 0 0 0"
    ascent="811"
    descent="-189"
    alphabetic="0" />
<missing-glyph horiz-adv-x="500" d="M63 0V811H438V0H63ZM125 63H375V749H125V63Z" />
<glyph unicode=" " glyph-name="space" horiz-adv-x="230" />
<glyph unicode="!" glyph-name="exclam" horiz-adv-x="316" d="M204 200H142L132 712H215L204 200ZM130 0V84H216V0H130Z" />
<glyph unicode="&quot;" glyph-name="quotedbl" horiz-adv-x="423" d="M256 542V712H335V542H256ZM88 542V712H167V542H88Z" />
<glyph unicode="#" glyph-name="numbersign" horiz-adv-x="653" d="M506 432L483 291H572V227H473L437 0H363L399 227H239L204 0H130L166 227H77V291H177L200 432H108V498H209L243 713H318L283 498H442L476 713H549L515 498H602V432H506ZM273 432L250 291H409L432
432H273Z" />
<glyph unicode="$" glyph-name="dollar" horiz-adv-x="596" d="M540 196Q540 110 482 57T322 -4V-114H262V-6Q130 0 42 88L94 140Q166 68 266 63V328L246 330Q208 334 171 350Q138 364 116 384Q61 433 61 517Q61 701 262 717V806H322V717Q428 713 508 640L459
591Q397 647 319 651V392L350 387Q437 373 479 337Q540 285 540 196ZM464 194Q464 287 377 310Q369 312 349 316L319 320V63Q464 73 464 194ZM266 651Q136 641 136 520Q136 418 266 399V651Z" />
<glyph unicode="%" glyph-name="percent" horiz-adv-x="833" d="M769 128Q769 67 730 30T634 -7Q574 -7 537 30T499 128V233Q499 293 536 330T634 368Q691 368 730 331T769 233V128ZM335 479Q335 420 297 383T200 345Q140 345 103 382T65 479V584Q65 644 102 681T200
719Q257 719 296 682T335 584V479ZM280 0H220L554 712H614L280 0ZM712 231Q712 318 634 318Q556 318 556 231V130Q556 43 634 43Q712 43 712 130V231ZM278 582Q278 669 200 669Q122 669 122 582V481Q122 395 200 395Q278 395 278 481V582Z" />
<glyph unicode="&amp;" glyph-name="ampersand" horiz-adv-x="739" d="M576 0L512 78Q476 46 439 26Q379 -6 302 -6Q203 -6 142 47Q77 104 77 201Q77 301 174 374Q188 385 218 405L231 414L204 447Q154 508 154 569Q154 635 199 676T311 718Q377 718 421 676T466
568Q466 495 387 441L334 405L516 186Q554 244 556 349H628Q626 207 562 131L671 0H576ZM273 366Q273 366 272 366T270 364L228 334Q151 279 151 203Q151 138 193 100T301 61Q392 61 469 130L273 366ZM395 568Q395 653 311 653Q229 653 229 570Q229 530 293 453L331
479Q360 499 375 517Q395 542 395 568Z" />
<glyph unicode="&apos;" glyph-name="quotesingle" horiz-adv-x="255" d="M88 542V712H167V542H88Z" />
<glyph unicode="(" glyph-name="parenleft" horiz-adv-x="298" d="M185 -94L163 -72Q155 -64 144 -51Q114 -15 103 16T92 95V617Q92 681 113 720Q122 738 144 763Q150 770 163 784L185 806L234 757L203 726Q164 678 164 611V101Q164 34 203 -14L234 -45L185 -94Z" />
<glyph unicode=")" glyph-name="parenright" horiz-adv-x="298" d="M205 95Q205 30 185 -8Q176 -26 154 -51Q148 -58 135 -72L113 -94L62 -43L78 -27Q84 -22 93 -12Q131 29 131 101V611Q131 683 93 724Q88 729 78 739L62 755L113 806L135 784Q143 776 154 763Q186
726 195 697T205 617V95Z" />
<glyph unicode="*" glyph-name="asterisk" horiz-adv-x="474" d="M379 423L262 494L266 357H208L212 494L96 423L67 472L187 537L67 603L96 651L212 580L208 717H266L262 580L379 651L407 603L287 537L407 472L379 423Z" />
<glyph unicode="+" glyph-name="plus" horiz-adv-x="522" d="M295 234V58H228V234H52V301H228V475H295V301H470V234H295Z" />
<glyph unicode="," glyph-name="comma" horiz-adv-x="264" d="M88 -144V88H176V-65L88 -144Z" />
<glyph unicode="-" glyph-name="hyphen" horiz-adv-x="426" d="M76 236V303H350V236H76Z" />
<glyph unicode="." glyph-name="period" horiz-adv-x="270" d="M88 0V94H182V0H88Z" />
<glyph unicode="/" glyph-name="slash" horiz-adv-x="355" d="M71 -74H0L285 786H356L71 -74Z" />
<glyph unicode="0" glyph-name="zero" horiz-adv-x="522" d="M456 190Q456 104 402 49T261 -6Q175 -6 121 49T66 190V522Q66 608 120 663T261 718Q347 718 401 663T456 522V190ZM384 518Q384 654 261 654Q138 654 138 518V194Q138 58 261 58Q384 58 384 194V518Z" />
<glyph unicode="1" glyph-name="one" horiz-adv-x="522" d="M258 0V632L125 515V597L258 712H330V0H258Z" />
<glyph unicode="2" glyph-name="two" horiz-adv-x="522" d="M68 0V64L349 421Q389 472 389 526Q389 654 265 654Q206 654 174 620T141 525H69Q69 613 123 665T265 718Q353 718 407 666T461 526Q461 455 404 382L155 64H461V0H68Z" />
<glyph unicode="3" glyph-name="three" horiz-adv-x="522" d="M460 194Q460 101 403 47T251 -7Q160 -7 103 42T42 181H114Q118 122 154 90T251 57Q313 57 350 95T388 195Q388 333 248 333H233V396H248Q375 396 375 525Q375 583 342 619T251 655Q134 655 123 536H51Q57
620 112 669T251 719Q339 719 393 667T447 526Q447 412 351 368Q460 328 460 194Z" />
<glyph unicode="4" glyph-name="four" horiz-adv-x="522" d="M395 113V0H324V113H40V178L297 712H374L117 178H324V380H395V178H482V113H395Z" />
<glyph unicode="5" glyph-name="five" horiz-adv-x="522" d="M462 235Q462 171 453 133Q437 66 386 30T263 -7Q83 -7 70 168H142Q156 57 263 57Q363 57 384 157Q390 186 390 235Q390 314 369 354Q340 408 270 408Q174 408 152 338H87V712H447V648H152V422Q195
471 280 471Q363 471 411 418Q455 369 460 286Q462 253 462 235Z" />
<glyph unicode="6" glyph-name="six" horiz-adv-x="522" d="M460 205Q460 113 408 55Q354 -6 263 -6Q172 -6 119 50T65 199Q65 268 110 359L285 712H359L200 392Q233 407 275 407Q360 407 410 349T460 205ZM388 202Q388 264 357 303Q323 346 262 346Q137 346 137
202Q137 58 262 58Q388 58 388 202Z" />
<glyph unicode="7" glyph-name="seven" horiz-adv-x="522" d="M224 0H148L395 648H147V536H76V712H471V648L224 0Z" />
<glyph unicode="8" glyph-name="eight" horiz-adv-x="522" d="M471 196Q471 107 411 51T261 -6Q171 -6 111 50T51 196Q51 307 158 369Q65 422 65 527Q65 611 121 664T261 718Q345 718 401 665T457 527Q457 422 365 369Q471 308 471 196ZM399 197Q399 256 360 296T261
336Q202 336 163 296T123 197Q123 138 162 98T261 58Q320 58 359 98T399 197ZM385 526Q385 581 351 617T261 654Q206 654 172 618T137 526Q137 470 171 435T261 399Q317 399 351 434T385 526Z" />
<glyph unicode="9" glyph-name="nine" horiz-adv-x="522" d="M457 513Q457 444 412 353L237 0H162L322 320Q289 305 246 305Q160 305 110 364Q62 420 62 507Q62 599 115 658T259 718Q350 718 403 662T457 513ZM385 510Q385 654 259 654Q134 654 134 510Q134 448
165 409Q199 366 259 366Q385 366 385 510Z" />
<glyph unicode=":" glyph-name="colon" horiz-adv-x="297" d="M115 301V395H209V301H115ZM115 0V94H209V0H115Z" />
<glyph unicode=";" glyph-name="semicolon" horiz-adv-x="297" d="M117 -144V88H205V-65L117 -144ZM115 301V395H209V301H115Z" />
<glyph unicode="&lt;" glyph-name="less" horiz-adv-x="522" d="M95 236V302L426 470V393L176 269L426 145V68L95 236Z" />
<glyph unicode="=" glyph-name="equal" horiz-adv-x="522" d="M52 320V387H470V320H52ZM52 151V217H470V151H52Z" />
<glyph unicode="&gt;" glyph-name="greater" horiz-adv-x="522" d="M95 68V145L345 269L95 393V470L426 302V236L95 68Z" />
<glyph unicode="?" glyph-name="question" horiz-adv-x="497" d="M451 536Q451 480 406 415L324 297Q306 271 306 239V200H234V240Q234 289 265 334L346 451Q379 499 379 536Q379 587 347 620T264 654Q213 654 181 620T148 535H76Q76 614 130 666T264 718Q344
718 397 667T451 536ZM227 0V84H313V0H227Z" />
<glyph unicode="@" glyph-name="at" horiz-adv-x="713" d="M572 0V55Q522 -7 438 -7Q351 -7 302 54Q258 109 258 238Q258 350 291 408Q334 483 437 483Q520 483 571 420V498Q571 571 533 611T421 652H291Q220 652 181 611T142 498V161Q142 82 199 40L150 -9Q72
50 72 160V496Q72 598 126 655T282 713H430Q531 713 586 655T641 496V-1L572 0ZM571 238Q571 323 550 364Q521 421 450 421Q349 421 333 306Q329 278 329 238Q329 153 350 112Q379 55 450 55Q551 55 567 170Q571 198 571 238Z" />
<glyph unicode="A" glyph-name="A" horiz-adv-x="611" d="M518 0L461 161H150L93 0H12L274 712H338L599 0H518ZM307 603L173 227H439L307 603Z" />
<glyph unicode="B" glyph-name="B" horiz-adv-x="610" d="M592 197Q592 102 534 51T380 0H103V712H371Q464 712 521 664Q581 613 581 522Q581 405 476 366Q592 322 592 197ZM516 199Q516 329 373 329H179V68H373Q516 68 516 199ZM505 521Q505 582 467 613T365
644H179V397H365Q428 397 466 428T505 521Z" />
<glyph unicode="C" glyph-name="C" horiz-adv-x="595" d="M572 206Q556 109 490 52T325 -6Q217 -6 143 68Q96 115 84 181Q79 206 77 257Q76 279 76 303V409Q76 433 77 455Q79 507 84 532Q96 597 143 644Q217 718 325 718Q534 718 572 506H494Q463 650 325 650Q251
650 202 600Q164 561 155 484Q152 460 152 356Q152 252 155 228Q164 151 202 112Q251 62 325 62Q465 62 496 206H572Z" />
<glyph unicode="D" glyph-name="D" horiz-adv-x="620" d="M597 326Q597 252 590 206Q576 115 527 66Q461 0 347 0H103V712H347Q447 712 510 662T590 514Q595 486 596 439Q597 399 597 402V326ZM521 429Q521 461 516 492Q491 644 334 644H179V68H334Q423 68 474
120Q505 151 516 229Q521 264 521 296V429Z" />
<glyph unicode="E" glyph-name="E" horiz-adv-x="575" d="M103 0V712H545V644H179V393H491V325H179V68H545V0H103Z" />
<glyph unicode="F" glyph-name="F" horiz-adv-x="570" d="M179 644V382H491V314H179V0H103V712H545V644H179Z" />
<glyph unicode="G" glyph-name="G" horiz-adv-x="600" d="M576 260Q576 141 515 76Q438 -6 325 -6Q217 -6 143 68Q96 115 84 181Q79 206 77 257Q76 279 76 303V409Q76 433 77 455Q79 507 84 532Q96 597 143 644Q217 718 325 718Q423 718 490 660T574 505H498Q467
650 325 650Q252 650 202 599Q169 565 160 516Q152 471 152 356Q152 252 155 228Q164 151 202 112Q251 62 325 62Q408 62 455 117Q500 169 500 252V306H325V373H576V260Z" />
<glyph unicode="H" glyph-name="H" horiz-adv-x="630" d="M517 0V325H179V0H103V712H179V393H517V712H593V0H517Z" />
<glyph unicode="I" glyph-name="I" horiz-adv-x="242" d="M103 0V712H179V0H103Z" />
<glyph unicode="J" glyph-name="J" horiz-adv-x="460" d="M408 216Q408 116 347 55T186 -6Q87 -6 23 58L74 109Q121 62 186 62Q332 62 332 226V712H408V216Z" />
<glyph unicode="K" glyph-name="K" horiz-adv-x="650" d="M546 0L329 379L179 199V0H103V712H179V303L511 712H604L380 437L636 0H546Z" />
<glyph unicode="L" glyph-name="L" horiz-adv-x="573" d="M103 0V712H179V68H543V0H103Z" />
<glyph unicode="M" glyph-name="M" horiz-adv-x="756" d="M637 0V541L442 112H377L179 541V0H103V712H179L411 207L637 712H713V0H637Z" />
<glyph unicode="N" glyph-name="N" horiz-adv-x="665" d="M557 0L179 571V0H103V712H175L553 143V712H629V0H557Z" />
<glyph unicode="O" glyph-name="O" horiz-adv-x="600" d="M574 303Q574 279 573 257Q571 214 565 181Q549 96 482 45T325 -6Q217 -6 143 68Q96 115 84 181Q79 206 77 257Q76 279 76 303V409Q76 433 77 455Q79 507 84 532Q96 597 143 644Q217 718 325 718Q433 718
507 644Q553 598 565 532Q571 500 573 455Q574 433 574 409V303ZM498 356Q498 475 490 516Q480 565 448 599Q399 650 325 650Q252 650 202 599Q169 565 160 516Q152 471 152 356Q152 241 160 196Q169 147 202 113Q252 62 325 62Q399 62 448 113Q480 147 490 196Q498
237 498 356Z" />
<glyph unicode="P" glyph-name="P" horiz-adv-x="600" d="M588 503Q588 406 527 350T368 293H179V0H103V712H368Q467 712 527 656T588 503ZM512 503Q512 644 361 644H179V361H361Q512 361 512 503Z" />
<glyph unicode="Q" glyph-name="Q" horiz-adv-x="619" d="M557 -35L478 44Q413 -6 325 -6Q217 -6 143 68Q96 115 84 181Q79 206 77 257Q76 279 76 303V409Q76 433 77 455Q79 507 84 532Q96 597 143 644Q217 718 325 718Q433 718 507 644Q553 598 565 532Q571 500
573 455Q574 433 574 409V308Q574 235 568 194Q559 130 525 89L603 11L557 -35ZM498 356Q498 475 490 516Q480 565 448 599Q399 650 325 650Q252 650 202 599Q169 565 160 516Q152 471 152 356Q152 241 160 196Q169 147 202 113Q252 62 325 62Q382 62 426 96L336
186L382 232L469 145Q498 192 498 356Z" />
<glyph unicode="R" glyph-name="R" horiz-adv-x="625" d="M512 0L350 316H179V0H103V712H376Q469 712 528 659T587 514Q587 355 432 323L601 0H512ZM511 513Q511 644 369 644H179V383H369Q511 383 511 513Z" />
<glyph unicode="S" glyph-name="S" horiz-adv-x="555" d="M532 196Q532 95 457 42Q391 -6 286 -6Q136 -6 42 88L94 140Q172 62 288 62Q456 62 456 194Q456 254 421 283Q393 307 329 317L246 330Q61 359 61 517Q61 614 128 668Q189 718 289 718Q414 718 501 640L452
591Q385 652 286 652Q136 652 136 520Q136 419 264 399L342 387Q429 374 472 337Q532 286 532 196Z" />
<glyph unicode="T" glyph-name="T" horiz-adv-x="548" d="M312 644V0H236V644H30V712H518V644H312Z" />
<glyph unicode="U" glyph-name="U" horiz-adv-x="623" d="M590 235Q590 127 520 61T341 -6Q233 -6 163 60T93 235V712H169V241Q169 161 215 112T341 62Q421 62 467 111T514 241V712H590V235Z" />
<glyph unicode="V" glyph-name="V" horiz-adv-x="546" d="M304 0H242L8 712H88L273 136L458 712H538L304 0Z" />
<glyph unicode="W" glyph-name="W" horiz-adv-x="854" d="M656 0H585L427 570L269 0H198L16 712H97L236 138L393 712H461L618 138L757 712H838L656 0Z" />
<glyph unicode="X" glyph-name="X" horiz-adv-x="551" d="M448 0L275 299L101 0H15L233 365L29 712H117L275 431L433 712H521L316 365L536 0H448Z" />
<glyph unicode="Y" glyph-name="Y" horiz-adv-x="514" d="M296 294V0H220V294L8 712H90L258 371L424 712H506L296 294Z" />
<glyph unicode="Z" glyph-name="Z" horiz-adv-x="516" d="M57 0V72L413 644H71V712H499V648L140 68H499V0H57Z" />
<glyph unicode="[" glyph-name="bracketleft" horiz-adv-x="313" d="M92 -74V786H269V722H164V-10H269V-74H92Z" />
<glyph unicode="\" glyph-name="backslash" horiz-adv-x="355" d="M284 -74L0 783H71L355 -74H284Z" />
<glyph unicode="]" glyph-name="bracketright" horiz-adv-x="313" d="M44 -74V-12H152V724H44V786H221V-74H44Z" />
<glyph unicode="^" glyph-name="asciicircum" horiz-adv-x="537" d="M391 413L269 641L146 413H72L236 718H302L465 413H391Z" />
<glyph unicode="_" glyph-name="underscore" horiz-adv-x="537" d="M0 -165V-114H537V-165H0Z" />
<glyph unicode="`" glyph-name="grave" horiz-adv-x="500" d="M233 594L125 747H211L299 594H233Z" />
<glyph unicode="a" glyph-name="a" horiz-adv-x="475" d="M369 0V47Q316 -6 227 -6Q108 -6 68 65Q51 96 51 139Q51 281 221 281H369V328Q369 436 243 436Q160 436 119 380L70 425Q125 498 244 498Q441 498 441 334V0H369ZM369 227H231Q121 227 121 140Q121 56
234 56Q309 56 344 89Q369 112 369 174V227Z" />
<glyph unicode="b" glyph-name="b" horiz-adv-x="500" d="M481 246Q481 97 421 37Q378 -6 301 -6Q211 -6 162 59V0H90V712H162V435Q212 498 301 498Q435 498 470 361Q481 318 481 246ZM409 246Q409 333 388 376Q360 434 286 434Q179 434 164 304Q162 282 162 246Q162
201 166 176Q185 58 286 58Q389 58 405 176Q409 205 409 246Z" />
<glyph unicode="c" glyph-name="c" horiz-adv-x="460" d="M443 67Q376 -6 281 -6Q174 -6 116 68Q63 136 63 246Q63 356 116 424Q174 498 281 498Q376 498 443 425L394 379Q345 434 281 434Q135 434 135 246Q135 58 281 58Q343 58 394 114L443 67Z" />
<glyph unicode="d" glyph-name="d" horiz-adv-x="485" d="M384 0V59Q335 -6 244 -6Q110 -6 75 131Q64 174 64 246Q64 395 124 455Q167 498 244 498Q333 498 383 435V712H455V0H384ZM383 246Q383 333 362 376Q334 434 260 434Q153 434 138 304Q136 282 136 246Q136
201 140 176Q159 58 260 58Q363 58 379 176Q383 205 383 246Z" />
<glyph unicode="e" glyph-name="e" horiz-adv-x="485" d="M135 227Q135 57 280 57Q353 57 409 113L458 70Q416 28 376 11T278 -6Q167 -6 112 67Q63 131 63 246Q63 498 265 498Q366 498 419 428Q467 365 467 260V227H135ZM395 281Q392 333 380 363Q350 437 265
437Q180 437 150 363Q138 333 135 281H395Z" />
<glyph unicode="f" glyph-name="f" horiz-adv-x="300" d="M178 434V0H106V434H43V489H106V582Q106 641 139 677T231 714H283V652H244Q178 652 178 580V489H283V434H178Z" />
<glyph unicode="g" glyph-name="g" horiz-adv-x="485" d="M453 -15Q453 -110 398 -168T248 -226Q155 -226 81 -160L128 -114Q158 -141 179 -150Q209 -163 246 -163Q313 -163 348 -120Q381 -80 381 -12V65Q330 1 243 1Q168 1 124 45Q64 105 64 250Q64 395 124 455Q167
498 244 498Q333 498 382 434V492H453V-15ZM381 250Q381 335 360 377Q332 434 259 434Q157 434 140 318Q136 290 136 250Q136 164 157 124Q187 66 259 66Q360 66 377 182Q381 210 381 250Z" />
<glyph unicode="h" glyph-name="h" horiz-adv-x="495" d="M405 0V304Q405 434 285 434Q162 434 162 304V0H90V712H162V438Q215 498 300 498Q477 498 477 316V0H405Z" />
<glyph unicode="i" glyph-name="i" horiz-adv-x="210" d="M90 0V492H162V0H90ZM96 567V642H161V567H96Z" />
<glyph unicode="j" glyph-name="j" horiz-adv-x="215" d="M162 -89Q162 -221 37 -221H-15V-158H24Q90 -158 90 -86V489H162V-89ZM86 632V713H167V632H86Z" />
<glyph unicode="k" glyph-name="k" horiz-adv-x="516" d="M414 0L258 252L162 142V0H90V712H162V236L384 492H474L307 304L503 0H414Z" />
<glyph unicode="l" glyph-name="l" horiz-adv-x="290" d="M213 0Q88 0 88 131V712H160V134Q160 62 226 62H265V0H213Z" />
<glyph unicode="m" glyph-name="m" horiz-adv-x="820" d="M722 0V303Q722 434 601 434Q478 434 478 311V0H406V303Q406 434 285 434Q162 434 162 303V0H90V492H162V438Q215 498 301 498Q406 498 452 416Q510 498 614 498Q697 498 745 448T794 315V0H722Z" />
<glyph unicode="n" glyph-name="n" horiz-adv-x="500" d="M405 0V303Q405 434 284 434Q162 434 162 303V0H90V492H162V438Q215 498 300 498Q383 498 430 449T477 315V0H405Z" />
<glyph unicode="o" glyph-name="o" horiz-adv-x="485" d="M466 246Q466 110 406 50Q350 -6 265 -6Q180 -6 124 50Q64 110 64 246Q64 382 124 442Q180 498 265 498Q350 498 406 442Q466 382 466 246ZM394 246Q394 297 388 329Q368 434 265 434Q164 434 143 329Q136
293 136 246Q136 199 143 163Q164 58 265 58Q368 58 388 163Q394 195 394 246Z" />
<glyph unicode="p" glyph-name="p" horiz-adv-x="500" d="M481 246Q481 97 421 37Q378 -6 301 -6Q213 -6 162 58V-220H90V492H162V434Q211 498 301 498Q435 498 470 361Q481 318 481 246ZM409 246Q409 333 388 376Q360 434 286 434Q179 434 164 304Q162 282 162
246Q162 201 166 176Q185 58 286 58Q389 58 405 176Q409 205 409 246Z" />
<glyph unicode="q" glyph-name="q" horiz-adv-x="490" d="M383 -220V58Q332 -6 244 -6Q110 -6 75 131Q64 174 64 246Q64 395 124 455Q167 498 244 498Q335 498 384 434V492H455V-220H383ZM383 246Q383 333 362 376Q334 434 260 434Q153 434 138 304Q136 282 136
246Q136 201 140 176Q159 58 260 58Q363 58 379 176Q383 205 383 246Z" />
<glyph unicode="r" glyph-name="r" horiz-adv-x="421" d="M365 398Q329 434 280 434Q225 434 194 396T162 302V0H90V492H162V432Q206 498 300 498Q372 498 418 452L365 398Z" />
<glyph unicode="s" glyph-name="s" horiz-adv-x="466" d="M445 144Q445 66 381 27Q328 -6 245 -6Q117 -6 43 65L91 113Q145 56 244 56Q375 56 375 143Q375 208 293 215L212 222Q65 235 65 354Q65 426 122 464Q171 498 246 498Q358 498 423 445L376 398Q325 437
245 437Q135 437 135 356Q135 292 221 284L300 277Q445 264 445 144Z" />
<glyph unicode="t" glyph-name="t" horiz-adv-x="305" d="M228 0Q168 0 135 38T102 132V434H40V489H102V643H174V489H279V434H174V134Q174 62 241 62H279V0H228Z" />
<glyph unicode="u" glyph-name="u" horiz-adv-x="495" d="M401 0V55Q349 -6 262 -6Q178 -6 132 43T85 178V492H157V189Q157 58 277 58Q400 58 400 189V492H472V0H401Z" />
<glyph unicode="v" glyph-name="v" horiz-adv-x="447" d="M255 0H191L11 492H89L223 97L358 492H436L255 0Z" />
<glyph unicode="w" glyph-name="w" horiz-adv-x="724" d="M558 0H491L362 382L234 0H167L11 492H89L202 97L331 492H393L523 97L635 492H713L558 0Z" />
<glyph unicode="x" glyph-name="x" horiz-adv-x="468" d="M358 0L240 191L120 0H33L200 251L40 492H127L240 310L351 492H438L278 251L445 0H358Z" />
<glyph unicode="y" glyph-name="y" horiz-adv-x="447" d="M212 -119Q198 -158 177 -177Q140 -211 81 -211H50V-147H72Q131 -147 153 -86L188 10L11 492H89L224 97L358 492H436L212 -119Z" />
<glyph unicode="z" glyph-name="z" horiz-adv-x="440" d="M50 0V62L324 428H65V492H407V431L132 64H407V0H50Z" />
<glyph unicode="{" glyph-name="braceleft" horiz-adv-x="354" d="M268 -74Q198 -74 168 -45T137 55V246Q137 324 74 324H48V388H74Q137 388 137 466V657Q137 727 167 756T268 786H305V722H282Q235 722 222 708T209 644V456Q209 386 146 356Q209 326 209 256V68Q209
19 222 5T282 -10H305V-74H268Z" />
<glyph unicode="|" glyph-name="bar" horiz-adv-x="326" d="M127 -74V786H199V-74H127Z" />
<glyph unicode="}" glyph-name="braceright" horiz-adv-x="354" d="M280 324Q217 324 217 246V55Q217 -15 187 -44T86 -74H48V-10H72Q118 -10 131 5T145 68V256Q145 326 208 356Q145 386 145 456V644Q145 692 132 707T72 722H48V786H86Q156 786 186 757T217 657V466Q217
388 280 388H305V324H280Z" />
<glyph unicode="~" glyph-name="asciitilde" horiz-adv-x="539" d="M490 278Q422 210 361 210Q338 210 309 219Q297 223 255 241L216 258Q200 265 177 265Q138 265 93 220L49 265Q117 333 178 333Q202 333 229 324Q244 319 283 302L322 285Q338 278 361 278Q400
278 445 323L490 278Z" />
<glyph unicode="" glyph-name="Adieresis" horiz-adv-x="516" d="M57 0V72L413 644H71V712H499V648L140 68H499V0H57ZM419 883H356L282 800L210 882H148L254 752H311L419 883Z" />
<glyph unicode="&#x80;" glyph-name="Aring" horiz-adv-x="500" d="M428 -229Q324 -229 324 -133Q324 -37 428 -37V-82Q374 -82 374 -133Q374 -184 428 -184V-229Z" />
</font>
</defs>
</svg>
