<svg xmlns="http://www.w3.org/2000/svg">
<defs>
<font id="utmswisscondensedbold" horiz-adv-x="812" ><font-face
    font-family="UTM Swiss Condensed"
    units-per-em="2048"
    panose-1="2 0 5 0 0 0 0 0 0 0"
    ascent="2341"
    descent="-483"
    alphabetic="0" />
<missing-glyph horiz-adv-x="6492" d="M4507 1700H4516Q4552 1691 4552 1655Q4552 1645 4520 1606H4493Q4493 1627 4520 1653L4523 1662Q4518 1672 4513 1674H4504Q4497 1674 4495 1657H4466Q4472 1700 4507 1700ZM3232 1675L3260 1648Q3260 1635 3221 1622H3203L3147
1633L3136 1622L3109 1644Q3120 1669 3151 1669H3161L3201 1660H3203Q3212 1660 3232 1675ZM1747 1644H1883V1593H1794V1528H1879V1477H1794V1366L1789 1361H1742V1639L1747 1644ZM2405 1644H2447L2452 1639V1572H2480V1528H2452V1366L2447 1361H2399V1528H2375V1572H2399V1639L2405
1644ZM2851 1644H2891L2895 1639V1558H2898Q2920 1580 2949 1580H2952Q3007 1580 3030 1518L3033 1485V1361H2983V1460Q2983 1530 2943 1530H2936Q2895 1530 2895 1455V1361H2846V1639L2851 1644ZM3405 1644H3452L3457 1639V1449Q3466 1404 3500 1404Q3542 1411
3542 1455V1639L3546 1644H3594V1458Q3594 1385 3531 1361Q3516 1355 3497 1355Q3452 1355 3418 1402Q3405 1422 3405 1451V1644ZM3630 1644H3782V1593H3728V1361H3677V1593H3625V1639L3630 1644ZM3808 1644H3876Q3883 1640 3955 1428H3957L4033 1644H4103V1361H4051V1570H4050L3979
1361H3937Q3933 1361 3881 1518L3863 1570H3861V1361H3808V1644ZM4897 1644H4947V1361H4904L4900 1366V1375L4902 1377L4900 1389Q4872 1355 4825 1355Q4761 1355 4729 1433L4724 1467V1469Q4724 1550 4812 1577L4834 1580Q4868 1580 4895 1552H4897V1644ZM3268
1599H3302L3306 1594V1552H3264V1361H3217V1382Q3195 1355 3161 1355Q3075 1367 3075 1438V1572H3125V1483Q3125 1415 3149 1409L3167 1404H3172Q3197 1404 3210 1436L3212 1458V1572H3264V1594L3268 1599ZM4626 1599V1552H4597V1361H4552V1383H4549Q4535 1355
4495 1355Q4430 1355 4412 1422L4410 1447V1572H4459V1469Q4459 1426 4478 1411L4498 1404H4507Q4547 1404 4547 1464V1572H4572Q4576 1572 4576 1597L4579 1599H4626ZM2025 1580Q2090 1580 2124 1513Q2132 1498 2136 1467Q2136 1391 2050 1357L2018 1355Q1959

<glyph unicode=" " glyph-name="space" horiz-adv-x="512" />
<glyph unicode="!" glyph-name="exclam" horiz-adv-x="598" d="M211 403L160 1042V1540H436V1042L383 403H211ZM166 0V279H428V0H166Z" />
<glyph unicode="&quot;" glyph-name="quotedbl" horiz-adv-x="678" d="M406 1438H598V879H406V1438ZM80 1438H272V879H80V1438Z" />
<glyph unicode="#" glyph-name="numbersign" horiz-adv-x="1575" d="M709 848L621 604H872L958 848H709ZM709 1464H930L784 1049H1026L1174 1464H1395L1247 1049H1530L1456 848H1176L1092 606H1382L1311 406H1020L872 -10H651L799 406H555L406 -10H186L332 406H45L121
606H403L489 848H190L264 1049H561L709 1464Z" />
<glyph unicode="$" glyph-name="dollar" horiz-adv-x="1024" d="M455 973L454 1329Q427 1329 405 1317T365 1281Q334 1238 334 1165Q334 1109 363 1062T455 973ZM446 -201V-2Q356 -2 287 30T167 121Q74 232 74 444V483H317L316 459L315 436Q315 331 348 274T455
203V657Q259 765 175 875T90 1135Q90 1308 184 1411Q233 1464 298 1493T446 1522V1659H559V1520Q728 1520 821 1424Q911 1331 911 1151V1122H674V1143Q674 1226 641 1276T551 1327V918Q777 802 861 694T946 426Q946 229 846 119Q794 62 723 30T559 -2V-201H446ZM551
203Q617 215 652 261T688 385Q688 459 658 508T551 608V203Z" />
<glyph unicode="%" glyph-name="percent" horiz-adv-x="1579" d="M1055 356Q1055 222 1079 174T1169 125Q1234 125 1261 170Q1286 217 1286 354Q1286 482 1259 532T1165 582Q1106 582 1081 534T1055 356ZM852 360Q852 561 925 649T1165 737Q1336 737 1412 650T1489
362Q1489 159 1412 65T1165 -29Q998 -29 925 61T852 360ZM291 1169Q291 1034 315 987T406 940Q471 940 496 986T522 1169Q522 1296 496 1345T401 1395Q342 1395 317 1347T291 1169ZM90 1176Q90 1375 162 1462T403 1550Q576 1550 650 1464T725 1178Q725 971 648
878T403 784Q237 784 164 874T90 1176ZM360 -29L1065 1550H1214L508 -29H360Z" />
<glyph unicode="&amp;" glyph-name="ampersand" horiz-adv-x="1348" d="M623 1055Q676 1098 704 1144T733 1241Q733 1296 709 1325T635 1354Q586 1354 558 1326Q532 1298 532 1247Q532 1235 538 1217Q541 1210 545 1200T555 1180L623 1055ZM782 285L530 702Q461
655 425 591T389 451Q389 347 449 274T594 201Q642 201 686 220T782 285ZM942 0L891 98Q829 36 747 5T559 -27Q356 -27 239 96T121 434Q121 572 185 677T414 907Q349 1007 321 1083T293 1229Q293 1368 383 1454T623 1540Q783 1540 870 1465T958 1247Q958 1128 903
1032T739 862L924 545Q942 595 951 655Q955 681 958 717T961 788V813H1196Q1196 656 1161 527Q1130 404 1065 309L1247 0H942Z" />
<glyph unicode="&apos;" glyph-name="quotesingle" horiz-adv-x="352" d="M80 1438H272V879H80V1438Z" />
<glyph unicode="(" glyph-name="parenleft" horiz-adv-x="674" d="M446 -389Q290 -164 216 86T141 637Q141 895 217 1135T440 1577H606Q510 1412 460 1158T410 586Q410 426 422 290T460 31Q510 -207 614 -389H446Z" />
<glyph unicode=")" glyph-name="parenright" horiz-adv-x="674" d="M233 -389H66Q169 -209 219 31T270 586Q270 749 258 890T220 1160Q172 1413 74 1577H240Q384 1377 461 1135T539 637Q539 331 465 84T233 -389Z" />
<glyph unicode="*" glyph-name="asterisk" horiz-adv-x="1024" d="M512 1008L367 807L217 915L360 1116L127 1192L184 1370L420 1292V1540H604V1292L840 1370L897 1192L664 1116L807 915L657 807L512 1008Z" />
<glyph unicode="+" glyph-name="plus" horiz-adv-x="1706" d="M752 1221H954V711H1452V512H954V0H752V512H254V711H752V1221Z" />
<glyph unicode="," glyph-name="comma" horiz-adv-x="512" d="M127 -301V-197Q190 -191 228 -142T266 -16V0H127V276H385V-2Q385 -129 316 -209T127 -301Z" />
<glyph unicode="-" glyph-name="hyphen" horiz-adv-x="672" d="M92 459V698H580V459H92Z" />
<glyph unicode="." glyph-name="period" horiz-adv-x="512" d="M127 0V276H385V0H127Z" />
<glyph unicode="/" glyph-name="slash" horiz-adv-x="629" d="M90 -190H-61L516 1577H668L90 -190Z" />
<glyph unicode="0" glyph-name="zero" horiz-adv-x="1024" d="M649 633V1049Q649 1230 620 1283T512 1337Q434 1337 405 1283T375 1036V889V471Q375 287 404 235T512 182Q589 182 619 236T649 485V633ZM88 772Q88 908 92 1009T105 1179Q123 1315 164 1380Q218
1470 301 1510T512 1550Q580 1550 629 1541T723 1510Q803 1471 860 1380Q900 1315 918 1181T936 772Q936 632 932 529T919 357Q904 224 864 156Q808 59 725 15T512 -29Q381 -29 299 14T160 156Q122 220 104 351Q96 419 92 519T88 772Z" />
<glyph unicode="1" glyph-name="one" horiz-adv-x="1024" d="M432 0V1085H92V1267Q185 1267 258 1286T387 1344Q491 1415 512 1550H702V0H432Z" />
<glyph unicode="2" glyph-name="two" horiz-adv-x="1024" d="M88 0L87 24L86 49Q86 226 158 388T381 707L461 785Q561 880 594 928Q623 971 638 1024T653 1145Q653 1243 618 1290T510 1337Q434 1337 398 1279T362 1094L363 1057L364 1034H96L95 1061L94 1085Q94
1325 196 1437T518 1550Q725 1550 833 1449T942 1157Q942 1066 923 993T862 850Q830 796 719 683L630 591Q410 347 379 246H924V0H88Z" />
<glyph unicode="3" glyph-name="three" horiz-adv-x="1024" d="M84 518H352V500Q352 327 387 259T508 190Q591 190 626 250T662 467Q662 623 620 673T455 723L410 722L375 721V922H395Q531 922 583 968T635 1139Q635 1254 605 1298T500 1343Q428 1343 396 1293Q381
1269 373 1229T365 1130V1094H98Q98 1107 96 1115V1151Q96 1349 201 1449T512 1550Q703 1550 807 1447T911 1153Q911 1024 866 943T733 831Q840 804 893 715T946 467Q946 219 836 95T500 -29Q287 -29 185 90T82 457L83 487L84 518Z" />
<glyph unicode="4" glyph-name="four" horiz-adv-x="1024" d="M276 528H563V1155L276 528ZM557 0V305H70V551L526 1522H819V535H948V305H819V0H557Z" />
<glyph unicode="5" glyph-name="five" horiz-adv-x="1024" d="M80 494H346V453Q346 319 385 250T502 180Q581 180 617 261T653 524Q653 689 614 764T485 840Q426 840 388 806T344 715H94L135 1522H864V1276H348L332 967Q372 1010 423 1031T543 1053Q738 1053 836
926T934 543Q934 244 829 107T494 -31Q282 -31 181 88T80 455V494Z" />
<glyph unicode="6" glyph-name="six" horiz-adv-x="1024" d="M371 506Q371 327 403 260T514 193Q592 193 622 252T653 502Q653 693 623 752T512 811Q435 811 403 744T371 506ZM371 936Q404 987 458 1013T588 1040Q765 1040 850 921T936 553Q936 235 838 103T510
-29Q386 -29 306 11T168 143Q126 212 108 349T90 754Q90 888 94 989T107 1159Q125 1297 164 1366Q218 1461 307 1505T532 1550Q711 1550 808 1465T905 1225V1202H639V1217Q639 1279 610 1311T518 1343Q437 1343 403 1272Q387 1238 378 1175T369 1024L370 981L371
936Z" />
<glyph unicode="7" glyph-name="seven" horiz-adv-x="1024" d="M272 0Q272 93 287 190T331 396Q352 477 392 606Q490 923 662 1268H84V1522H936V1300Q781 1011 686 682Q652 563 628 461Q598 335 584 234Q567 113 567 0H272Z" />
<glyph unicode="8" glyph-name="eight" horiz-adv-x="1024" d="M387 1139Q387 1025 415 980T512 934Q580 934 609 981T639 1139Q639 1250 609 1296T508 1343Q443 1343 415 1296T387 1139ZM512 731Q434 731 404 673T373 438Q373 297 404 245T512 193Q591 193 622
248T653 461Q653 613 621 672T512 731ZM317 834Q221 863 172 947Q149 988 136 1044T123 1167Q123 1352 223 1450T514 1548Q705 1548 805 1448T905 1159Q905 1025 856 946T702 834Q824 810 879 719T934 451Q934 204 831 89T510 -27Q297 -27 195 84T92 430Q92 613
145 708T317 834Z" />
<glyph unicode="9" glyph-name="nine" horiz-adv-x="1024" d="M651 586Q618 534 563 509T430 483Q253 483 169 602T84 969Q84 1285 179 1417T496 1550Q630 1550 713 1510T852 1378Q894 1312 912 1174T930 768Q930 631 926 528T913 357Q898 221 858 156Q805 63
718 17T506 -29Q311 -29 213 55T115 309V319H383V303Q383 244 414 212T504 180Q585 180 618 249T651 506V586ZM649 1020Q649 1200 619 1264T508 1329Q430 1329 400 1270T369 1020Q369 824 398 768T510 711Q588 711 618 775T649 1020Z" />
<glyph unicode=":" glyph-name="colon" horiz-adv-x="559" d="M152 862V1139H408V862H152ZM152 0V276H408V0H152Z" />
<glyph unicode=";" glyph-name="semicolon" horiz-adv-x="559" d="M152 -301V-197Q215 -191 252 -142T289 -16V0H152V276H408V-18Q408 -128 333 -212Q295 -255 251 -278T152 -301ZM152 862V1139H408V862H152Z" />
<glyph unicode="&lt;" glyph-name="less" horiz-adv-x="1706" d="M1442 1194V975L549 610L1442 246V27L264 512V711L1442 1194Z" />
<glyph unicode="=" glyph-name="equal" horiz-adv-x="1706" d="M254 496H1452V297H254V496ZM254 926H1452V727H254V926Z" />
<glyph unicode="&gt;" glyph-name="greater" horiz-adv-x="1706" d="M264 1194L1442 711V512L264 27V246L1159 610L264 975V1194Z" />
<glyph unicode="?" glyph-name="question" horiz-adv-x="1006" d="M358 1126H109V1165Q109 1363 210 1470T502 1577Q684 1577 790 1473T897 1186Q897 1116 882 1057T836 948Q799 886 723 799T623 678Q588 632 571 576T553 451L554 432L555 414H314L311 442V485Q311
540 317 585T337 672Q363 750 430 836L482 898Q616 1053 616 1198Q616 1278 584 1320T492 1362Q425 1362 392 1314T358 1163V1126ZM565 266V0H309V266H565Z" />
<glyph unicode="@" glyph-name="at" horiz-adv-x="2048" d="M1167 272Q1113 188 1041 149T870 109Q712 109 630 195T547 449Q547 687 686 849T1030 1012Q1109 1012 1168 979T1266 881L1319 979H1497L1350 381L1345 358L1343 340Q1343 307 1367 287Q1392 270 1438
270Q1460 270 1478 274T1519 290Q1561 310 1599 346Q1684 425 1729 532T1774 768Q1774 1007 1589 1162T1110 1317Q968 1317 847 1284T627 1182Q458 1069 366 897T274 522Q274 217 481 33T1034 -152Q1197 -152 1351 -104T1638 39L1720 -78Q1569 -190 1395 -249T1038
-309Q845 -309 685 -260Q604 -236 534 -201T399 -117Q245 2 168 161T90 520Q90 688 142 840T297 1114Q444 1294 652 1387T1116 1481Q1201 1481 1278 1470T1433 1435Q1583 1390 1692 1307Q1827 1202 1893 1067T1960 764Q1960 600 1895 461T1706 221Q1639 167 1553
135Q1471 106 1382 106Q1278 106 1223 149T1167 272ZM1217 700Q1205 782 1160 824T1042 866Q928 866 844 743T760 444Q760 353 800 305T918 256Q1000 256 1069 319T1163 483L1217 700Z" />
<glyph unicode="A" glyph-name="A" horiz-adv-x="1120" d="M430 618H674L551 1264L430 618ZM18 0L365 1540H750L1100 0H791L715 387H385L311 0H18Z" />
<glyph unicode="B" glyph-name="B" horiz-adv-x="1116" d="M410 219H528Q639 219 684 273T729 463Q729 603 681 656T496 709H410V219ZM410 915H506Q614 915 655 962T696 1135Q696 1247 655 1289T498 1331H410V915ZM131 0V1540H592Q791 1540 887 1448T983 1165Q983
1012 936 929T793 827Q901 812 961 719T1022 475Q1022 230 919 115T600 0H131Z" />
<glyph unicode="C" glyph-name="C" horiz-adv-x="1122" d="M743 549H1022L1023 519L1024 489Q1024 221 912 92T567 -37Q455 -37 378 -9T242 80Q165 158 133 300T100 788Q100 1029 118 1169T178 1376Q240 1481 332 1529T567 1577Q801 1577 908 1455T1015 1063H737V1100Q737
1226 697 1287T573 1348Q471 1348 433 1263T395 793Q395 379 431 288T571 197Q666 197 704 267T743 528V549Z" />
<glyph unicode="D" glyph-name="D" horiz-adv-x="1204" d="M412 227H539Q637 227 675 240T737 289Q776 349 793 455T811 788Q811 1015 791 1116T723 1268Q699 1294 658 1304T535 1315H412V227ZM131 0V1540H592Q732 1540 816 1516T954 1438Q1035 1360 1068 1238Q1084
1179 1093 1084T1102 864Q1102 532 1080 399T1003 171T853 38T526 0H131Z" />
<glyph unicode="E" glyph-name="E" horiz-adv-x="1014" d="M131 0V1540H922V1284H416V928H887V684H416V260H934V0H131Z" />
<glyph unicode="F" glyph-name="F" horiz-adv-x="1001" d="M131 0V1540H936V1288H418V924H907V678H418V0H131Z" />
<glyph unicode="G" glyph-name="G" horiz-adv-x="1206" d="M891 0L870 170Q826 59 750 11T539 -37Q299 -37 200 146T100 817Q100 1050 123 1186T197 1395Q257 1486 356 1530T602 1575Q848 1575 966 1458T1085 1094V1055H817V1071Q817 1209 766 1279T612 1350Q488
1350 442 1253T395 745Q395 418 439 309T598 199Q712 199 760 278T809 541V594H610V840H1085V0H891Z" />
<glyph unicode="H" glyph-name="H" horiz-adv-x="1225" d="M131 0V1540H416V936H809V1540H1094V0H809V698H416V0H131Z" />
<glyph unicode="I" glyph-name="I" horiz-adv-x="549" d="M131 0V1540H418V0H131Z" />
<glyph unicode="J" glyph-name="J" horiz-adv-x="903" d="M25 487H287V305Q287 246 311 215T387 184Q441 184 462 218T483 379V449V1540H764V457Q764 293 758 237T735 145Q694 55 607 9T385 -37Q206 -37 116 55T25 330V487Z" />
<glyph unicode="K" glyph-name="K" horiz-adv-x="1118" d="M131 0V1540H412V897L762 1540H1081L692 901L1106 0H791L514 637L412 467V0H131Z" />
<glyph unicode="L" glyph-name="L" horiz-adv-x="999" d="M131 0V1540H418V262H936V0H131Z" />
<glyph unicode="M" glyph-name="M" horiz-adv-x="1548" d="M131 0V1540H563L774 543L985 1540H1417V0H1143L1149 1366L862 0H686L399 1366L406 0H131Z" />
<glyph unicode="N" glyph-name="N" horiz-adv-x="1221" d="M131 0V1540H426L827 463L819 1540H1090V0H797L393 1079L401 0H131Z" />
<glyph unicode="O" glyph-name="O" horiz-adv-x="1202" d="M393 770Q393 389 437 291T602 193Q718 193 762 289T807 770Q807 1155 763 1252T600 1350Q482 1350 437 1252Q415 1203 404 1084T393 770ZM100 770Q100 1020 122 1163T195 1382Q261 1487 354 1532T600
1577Q750 1577 843 1533T1006 1382Q1053 1309 1077 1160Q1088 1090 1094 991T1100 770Q1100 521 1077 377T1006 158Q938 52 845 8T600 -37Q450 -37 357 8T195 158Q147 232 123 378Q112 449 106 548T100 770Z" />
<glyph unicode="P" glyph-name="P" horiz-adv-x="1116" d="M408 866H528Q661 866 715 918T770 1098Q770 1226 721 1275T532 1325H408V866ZM131 0V1540H629Q856 1540 957 1438Q1007 1387 1032 1305T1057 1104Q1057 875 951 764T625 653H416V0H131Z" />
<glyph unicode="Q" glyph-name="Q" horiz-adv-x="1202" d="M668 203L584 289L727 434L788 371Q800 456 802 476T804 531Q804 566 806 631T809 715Q809 1146 765 1248T600 1350Q482 1350 437 1252Q415 1203 404 1084T393 770Q393 395 434 294T588 193L618 195Q633
195 668 203ZM856 14Q832 2 804 -7T741 -24Q674 -37 600 -37Q450 -37 357 8T195 158Q147 233 124 381T100 770Q100 1019 123 1162T195 1382Q261 1487 354 1532T600 1577Q750 1577 843 1533T1006 1382Q1053 1309 1077 1159Q1088 1088 1094 991T1100 770Q1100 511
1077 366T1006 158L1178 -14L1032 -162L856 14Z" />
<glyph unicode="R" glyph-name="R" horiz-adv-x="1182" d="M408 889H573Q697 889 746 939T795 1118Q795 1232 742 1278T549 1325H408V889ZM131 0V1540H645Q878 1540 980 1445Q1031 1398 1057 1322T1083 1137Q1083 986 1029 901T866 799Q969 772 1024 685T1079
454V434L1087 230Q1087 189 1092 155T1109 90Q1128 37 1165 0H825Q813 39 807 91Q805 113 802 158T799 240L795 401V442Q795 575 738 625T506 676H408V0H131Z" />
<glyph unicode="S" glyph-name="S" horiz-adv-x="1122" d="M102 541H389V442Q389 301 424 249T547 197Q638 197 685 242T733 379Q733 447 700 496T557 625L410 729Q222 861 170 947T117 1163Q117 1356 232 1466T549 1577Q761 1577 876 1460T991 1124L990 1090L989
1069H717V1110Q717 1235 676 1289T541 1343Q472 1343 433 1303T393 1190Q393 1095 570 975L573 973L731 866Q899 755 959 655T1020 401Q1020 191 900 77T557 -37Q327 -37 213 83T98 449L102 535V541Z" />
<glyph unicode="T" glyph-name="T" horiz-adv-x="987" d="M350 0V1286H20V1540H967V1286H637V0H350Z" />
<glyph unicode="U" glyph-name="U" horiz-adv-x="1223" d="M131 1540H418V502Q418 325 461 261T616 197Q725 197 768 261T811 506V1540H1094V477Q1094 324 1077 252T1018 125Q957 45 854 3Q802 -17 743 -27T612 -37Q349 -37 240 77T131 477V1540Z" />
<glyph unicode="V" glyph-name="V" horiz-adv-x="1120" d="M373 0L27 1540H334L563 311L770 1540H1073L750 0H373Z" />
<glyph unicode="W" glyph-name="W" horiz-adv-x="1677" d="M336 0L37 1540H334L522 373L723 1540H961L1182 350L1346 1540H1640L1360 0H1020L842 973L678 0H336Z" />
<glyph unicode="X" glyph-name="X" horiz-adv-x="1122" d="M18 0L395 786L37 1540H360L565 1055L774 1540H1094L723 786L1104 0H780L557 514L330 0H18Z" />
<glyph unicode="Y" glyph-name="Y" horiz-adv-x="1126" d="M422 0V653L18 1540H336L569 961L799 1540H1108L711 653V0H422Z" />
<glyph unicode="Z" glyph-name="Z" horiz-adv-x="991" d="M61 0V260L602 1300H88V1540H907V1303L373 260H930V0H61Z" />
<glyph unicode="[" glyph-name="bracketleft" horiz-adv-x="672" d="M160 -418V1540H571V1370H412V-248H571V-418H160Z" />
<glyph unicode="\" glyph-name="backslash" horiz-adv-x="629" d="M516 -190L-61 1577H90L668 -190H516Z" />
<glyph unicode="]" glyph-name="bracketright" horiz-adv-x="672" d="M489 1540V-418H78V-248H240V1370H78V1540H489Z" />
<glyph unicode="^" glyph-name="asciicircum" horiz-adv-x="2048" d="M897 1460H1149L1630 899H1395L1024 1270L651 899H416L897 1460Z" />
<glyph unicode="_" glyph-name="underscore" horiz-adv-x="1024" d="M0 -279H1024V-483H0V-279Z" />
<glyph unicode="`" glyph-name="grave" horiz-adv-x="1024" d="M653 1280H528L223 1565H479L653 1280Z" />
<glyph unicode="a" glyph-name="a" horiz-adv-x="993" d="M627 606Q477 531 423 470T369 328Q369 251 397 215T487 178Q556 178 591 239T627 422V606ZM664 0Q656 11 648 39L635 112Q594 44 527 7T371 -31Q239 -31 166 58T92 305Q92 447 156 531T412 702L466 726Q623
792 623 883Q623 937 593 967T504 997Q432 997 397 958T362 836V813H102Q102 1008 198 1097T504 1186Q714 1186 799 1104T885 819V166Q885 119 894 79T924 0H664Z" />
<glyph unicode="b" glyph-name="b" horiz-adv-x="995" d="M516 963Q437 963 407 887T377 530Q377 313 406 252T516 190Q586 190 612 258T639 575Q639 706 633 784T613 897Q587 963 516 963ZM117 0V1540H385V1059Q418 1124 474 1156T612 1188Q777 1188 844 1055T911
573Q911 236 843 103T606 -31Q520 -31 462 7T371 121V0H117Z" />
<glyph unicode="c" glyph-name="c" horiz-adv-x="930" d="M846 454L847 428L848 389Q848 173 757 71T473 -31Q257 -31 170 98T82 578Q82 929 169 1058T473 1188Q664 1188 755 1093T846 799V758H590V784Q590 888 563 935Q550 957 528 969T475 981Q414 981 386 936T358
786V387Q358 327 364 286T384 221Q410 174 473 174Q540 174 567 228T594 430V455L846 454Z" />
<glyph unicode="d" glyph-name="d" horiz-adv-x="995" d="M356 596Q356 460 362 378T382 259Q408 190 479 190Q558 190 588 251T618 504Q618 809 589 886T479 963Q411 963 384 897T356 596ZM625 121Q592 45 533 7T389 -31Q223 -31 154 101T84 573Q84 922 151 1055T383
1188Q466 1188 520 1157T610 1059V1540H879V0H625V121Z" />
<glyph unicode="e" glyph-name="e" horiz-adv-x="975" d="M358 725H618V774Q618 893 589 938T487 983Q417 983 387 937T356 774L357 757L358 725ZM627 397H879L880 374L881 352Q881 153 787 61T487 -31Q380 -31 307 -4T186 80Q131 145 107 249Q96 299 90 391T84
616Q84 829 104 918T173 1067T302 1157Q343 1172 390 1180T494 1188Q600 1188 678 1156T807 1057Q849 1001 868 911Q877 868 882 797T887 629V541H361L358 513V467Q358 302 388 236T492 170Q563 170 595 224T627 397Z" />
<glyph unicode="f" glyph-name="f" horiz-adv-x="563" d="M141 0V958H37V1157H141V1272Q141 1420 198 1483T389 1546Q403 1546 415 1546T448 1544Q468 1544 489 1544Q509 1541 518 1540V1339L504 1340L492 1341Q449 1341 430 1323T410 1264V1157H518V958H410V0H141Z" />
<glyph unicode="g" glyph-name="g" horiz-adv-x="995" d="M879 92Q879 -60 865 -131T815 -252Q770 -318 680 -353T465 -389Q294 -389 202 -322Q156 -288 133 -240T109 -127H374Q377 -159 402 -180Q429 -199 473 -199Q548 -199 579 -152T610 18V98Q577 33 522 1T391
-31Q221 -31 153 98T84 584Q84 921 153 1055Q187 1120 246 1154T389 1188Q475 1188 532 1151T625 1036V1157H879V92ZM479 967Q409 967 383 897T356 559Q356 439 362 366T382 259Q409 195 479 195Q558 195 588 270T618 653Q618 844 589 905T479 967Z" />
<glyph unicode="h" glyph-name="h" horiz-adv-x="993" d="M117 0V1540H383V1047Q417 1112 480 1150T621 1188Q746 1188 813 1116T881 909V0H623V776Q623 883 600 920T518 958Q447 958 414 909Q399 885 391 843T383 737V0H117Z" />
<glyph unicode="i" glyph-name="i" horiz-adv-x="496" d="M115 1300V1540H381V1300H115ZM115 0V1157H381V0H115Z" />
<glyph unicode="j" glyph-name="j" horiz-adv-x="514" d="M133 1300V1540H397V1300H133ZM37 -385V-166Q99 -166 117 -148T135 -43V1157H397V-47Q397 -273 343 -332T125 -391H110Q103 -391 97 -391Q87 -389 83 -389Q70 -389 57 -389Q43 -386 37 -385Z" />
<glyph unicode="k" glyph-name="k" horiz-adv-x="885" d="M117 0V1540H377V735L616 1157H897L608 715L901 0H610L442 463L377 360V0H117Z" />
<glyph unicode="l" glyph-name="l" horiz-adv-x="496" d="M115 0V1540H381V0H115Z" />
<glyph unicode="m" glyph-name="m" horiz-adv-x="1538" d="M119 0V1157H367V1024Q412 1114 476 1151T647 1188Q730 1188 794 1150T885 1042Q937 1120 1000 1154T1151 1188Q1287 1188 1357 1112T1427 889V0H1165V739Q1165 876 1137 916T1034 956Q965 956 935 910T905
745V0H641V752Q641 869 613 912T518 956Q447 956 415 910T383 756V0H119Z" />
<glyph unicode="n" glyph-name="n" horiz-adv-x="993" d="M117 0V1157H379V1040Q420 1111 481 1149T621 1188Q746 1188 813 1116T881 909V0H623V776Q623 879 597 920T510 961Q444 961 415 910T385 737V0H117Z" />
<glyph unicode="o" glyph-name="o" horiz-adv-x="979" d="M356 590V563Q356 296 383 235T487 174Q567 174 595 230Q609 259 616 331T623 524V571V637Q623 865 594 922Q567 981 489 981Q414 981 385 927T356 670V590ZM82 578Q82 927 172 1057T489 1188Q717 1188
807 1059T897 578Q897 229 807 99T489 -31Q264 -31 173 98T82 578Z" />
<glyph unicode="p" glyph-name="p" horiz-adv-x="995" d="M377 627Q377 344 406 270T516 195Q586 195 612 260T639 582Q639 709 633 786T613 899Q587 967 516 967Q437 967 406 905Q391 874 384 807T377 627ZM117 -389V1157H371V1036Q403 1111 463 1149T606 1188Q773
1188 842 1056T911 584Q911 234 845 102T612 -31Q529 -31 475 0T385 98V-389H117Z" />
<glyph unicode="q" glyph-name="q" horiz-adv-x="995" d="M479 967Q409 967 383 897T356 559Q356 439 362 366T382 259Q409 195 479 195Q558 195 588 270T618 653Q618 844 589 905T479 967ZM610 98Q577 33 521 1T383 -31Q219 -31 152 102T84 584Q84 921 153 1055Q187
1120 246 1154T389 1188Q475 1188 532 1151T625 1036V1157H879V-389H610V98Z" />
<glyph unicode="r" glyph-name="r" horiz-adv-x="692" d="M119 0V1157H375V969Q428 1084 492 1135T645 1187V862L615 865L578 866Q494 866 443 815T391 678V0H119Z" />
<glyph unicode="s" glyph-name="s" horiz-adv-x="901" d="M76 385H317V352Q317 254 347 211T449 168Q504 168 536 198T569 281Q569 346 440 433L389 467L376 476Q82 677 82 872Q82 1025 177 1106T455 1188Q630 1188 719 1098Q763 1053 785 987T807 827V803H571V827Q571
912 539 950T438 989Q389 989 359 962T328 889Q328 846 355 812T473 717L534 676Q825 484 825 291Q825 139 727 54T446 -31Q256 -31 165 59T74 340L75 362L76 385Z" />
<glyph unicode="t" glyph-name="t" horiz-adv-x="557" d="M399 428V350Q399 256 417 232T481 207H498L510 208V0L419 -8L367 -10Q231 -10 181 44T131 264V958H27V1157H131V1473H399V1157H510V958H399V428Z" />
<glyph unicode="u" glyph-name="u" horiz-adv-x="991" d="M877 1157V0H614V115Q574 43 511 6Q482 -11 446 -21T371 -31Q244 -31 179 40T113 248V1157H371V401Q371 285 397 242T485 199Q551 199 579 248T608 418V1157H877Z" />
<glyph unicode="v" glyph-name="v" horiz-adv-x="909" d="M291 0L23 1157H307L461 272L608 1157H885L618 0H291Z" />
<glyph unicode="w" glyph-name="w" horiz-adv-x="1341" d="M274 0L27 1157H307L430 301L561 1157H780L936 289L1047 1157H1313L1090 0H803L672 688L567 0H274Z" />
<glyph unicode="x" glyph-name="x" horiz-adv-x="895" d="M14 0L319 592L27 1157H332L457 868L582 1157H874L588 592L881 0H584L451 309L317 0H14Z" />
<glyph unicode="y" glyph-name="y" horiz-adv-x="909" d="M176 -379V-179H193L219 -180Q276 -180 302 -162T328 -102L325 -71Q323 -59 322 -53T317 -36L20 1157H303L463 322L618 1157H889L588 -109Q549 -274 482 -330T270 -387H254Q245 -387 238 -387T224 -385L176 -379Z" />
<glyph unicode="z" glyph-name="z" horiz-adv-x="784" d="M43 0V213L434 932H47V1157H735V963L332 227H739V0H43Z" />
<glyph unicode="{" glyph-name="braceleft" horiz-adv-x="1024" d="M883 1477V1268L858 1269L836 1270Q737 1270 701 1232T664 1069V829Q664 682 620 621T457 530Q574 503 619 443T664 233V-8Q664 -131 699 -169T836 -207L858 -206L883 -205V-414L844 -415L807
-416Q709 -416 641 -404T526 -367Q468 -334 445 -276T422 -76V176Q422 311 371 369T199 428L179 427L158 426V635L179 634L199 633Q319 633 370 691Q396 720 409 768T422 887V1137Q422 1282 445 1338T526 1430Q571 1453 638 1466T807 1479L844 1478L883 1477Z"
/>
<glyph unicode="|" glyph-name="bar" horiz-adv-x="1024" d="M410 1565H616V-483H410V1565Z" />
<glyph unicode="}" glyph-name="braceright" horiz-adv-x="1024" d="M143 1477H211Q320 1477 388 1465T500 1427Q556 1396 580 1336T604 1137V885Q604 749 655 691T827 633L847 634L868 635V426H831Q707 426 656 370T604 176V-76Q604 -218 581 -276T500 -367Q455
-390 388 -403T219 -416L182 -415L143 -414V-205L168 -206L190 -207Q290 -207 326 -169T362 -8V231Q362 380 407 441T569 530Q451 557 407 619T362 829V1071Q362 1192 327 1231T190 1270L168 1269L143 1268V1477Z" />
<glyph unicode="~" glyph-name="asciitilde" horiz-adv-x="1706" d="M1530 803V582Q1425 511 1333 478T1151 444Q1115 444 1101 445T1061 451T1014 461T967 475L896 500Q677 575 563 575Q520 575 477 566T385 537Q291 500 178 418V639Q281 709 379 745T565 782Q683
782 856 724L860 723L915 704Q1072 649 1155 649Q1196 649 1240 658T1330 686Q1418 721 1530 803Z" />
</font>
</defs>
</svg>
