<svg xmlns="http://www.w3.org/2000/svg">
<defs>
<font id="utmswisscondensed" horiz-adv-x="783" ><font-face
    font-family="UTM Swiss Condensed"
    units-per-em="2048"
    panose-1="2 0 5 0 0 0 0 0 0 0"
    ascent="2284"
    descent="-483"
    alphabetic="0" />
<missing-glyph horiz-adv-x="6492" d="M4507 1700H4516Q4552 1691 4552 1655Q4552 1645 4520 1606H4493Q4493 1627 4520 1653L4523 1662Q4518 1672 4513 1674H4504Q4497 1674 4495 1657H4466Q4472 1700 4507 1700ZM3232 1675L3260 1648Q3260 1635 3221 1622H3203L3147
1633L3136 1622L3109 1644Q3120 1669 3151 1669H3161L3201 1660H3203Q3212 1660 3232 1675ZM1747 1644H1883V1593H1794V1528H1879V1477H1794V1366L1789 1361H1742V1639L1747 1644ZM2405 1644H2447L2452 1639V1572H2480V1528H2452V1366L2447 1361H2399V1528H2375V1572H2399V1639L2405
1644ZM2851 1644H2891L2895 1639V1558H2898Q2920 1580 2949 1580H2952Q3007 1580 3030 1518L3033 1485V1361H2983V1460Q2983 1530 2943 1530H2936Q2895 1530 2895 1455V1361H2846V1639L2851 1644ZM3405 1644H3452L3457 1639V1449Q3466 1404 3500 1404Q3542 1411
3542 1455V1639L3546 1644H3594V1458Q3594 1385 3531 1361Q3516 1355 3497 1355Q3452 1355 3418 1402Q3405 1422 3405 1451V1644ZM3630 1644H3782V1593H3728V1361H3677V1593H3625V1639L3630 1644ZM3808 1644H3876Q3883 1640 3955 1428H3957L4033 1644H4103V1361H4051V1570H4050L3979
1361H3937Q3933 1361 3881 1518L3863 1570H3861V1361H3808V1644ZM4897 1644H4947V1361H4904L4900 1366V1375L4902 1377L4900 1389Q4872 1355 4825 1355Q4761 1355 4729 1433L4724 1467V1469Q4724 1550 4812 1577L4834 1580Q4868 1580 4895 1552H4897V1644ZM3268
1599H3302L3306 1594V1552H3264V1361H3217V1382Q3195 1355 3161 1355Q3075 1367 3075 1438V1572H3125V1483Q3125 1415 3149 1409L3167 1404H3172Q3197 1404 3210 1436L3212 1458V1572H3264V1594L3268 1599ZM4626 1599V1552H4597V1361H4552V1383H4549Q4535 1355
4495 1355Q4430 1355 4412 1422L4410 1447V1572H4459V1469Q4459 1426 4478 1411L4498 1404H4507Q4547 1404 4547 1464V1572H4572Q4576 1572 4576 1597L4579 1599H4626ZM2025 1580Q2090 1580 2124 1513Q2132 1498 2136 1467Q2136 1391 2050 1357L2018 1355Q1959

<glyph unicode=" " glyph-name="space" horiz-adv-x="549" />
<glyph unicode="!" glyph-name="exclam" horiz-adv-x="530" d="M180 0V211H350V0H180ZM215 379L172 1102V1540H358V1102L315 379H215Z" />
<glyph unicode="&quot;" glyph-name="quotedbl" horiz-adv-x="614" d="M524 1436V881H385V1436H524ZM229 1436V881H90V1436H229Z" />
<glyph unicode="#" glyph-name="numbersign" horiz-adv-x="1575" d="M969 858H709L616 594H877L969 858ZM924 1458L762 1004H1018L1182 1458H1346L1186 1004H1487L1436 858H1133L1040 596H1362L1311 449H989L827 -4H662L823 449H565L403 -4H238L397 449H88L141
596H451L543 858H213L264 1004H596L758 1458H924Z" />
<glyph unicode="$" glyph-name="dollar" horiz-adv-x="1020" d="M457 897L456 1386Q370 1377 317 1310T264 1141Q264 1049 309 991T457 897ZM457 -199V-2Q365 -2 293 29T170 116Q76 224 76 432V468Q76 484 78 492H246L245 467L244 444Q244 289 294 215T449 141H457V719Q266
785 181 884T96 1141Q96 1309 193 1413Q243 1466 309 1495T457 1524V1663H545V1526Q718 1509 806 1414T895 1149V1126H731V1135Q731 1248 686 1309T545 1384V866Q764 788 851 691T938 430Q938 232 835 120Q782 62 710 31T545 0V-199H457ZM545 139Q595 139 635 159T707
219Q766 292 766 416Q766 515 712 581T545 684V139Z" />
<glyph unicode="%" glyph-name="percent" horiz-adv-x="1430" d="M1053 629Q978 629 946 569T913 358Q913 237 946 180T1053 123Q1124 123 1159 187T1194 387Q1194 509 1159 569T1053 629ZM774 383Q774 567 843 659T1051 752Q1195 752 1265 661T1335 383Q1335
197 1263 99T1055 0Q911 0 843 93T774 383ZM373 1399Q299 1399 268 1340T236 1128Q236 1004 268 949T373 893Q444 893 479 957T514 1157Q514 1279 479 1339T373 1399ZM94 1153Q94 1337 163 1429T371 1522Q515 1522 585 1431T655 1155Q655 969 583 870T373 770Q231
770 163 863T94 1153ZM305 -29L999 1550H1116L424 -29H305Z" />
<glyph unicode="&amp;" glyph-name="ampersand" horiz-adv-x="1253" d="M553 973Q632 1025 676 1095T721 1241Q721 1315 683 1359T578 1403Q511 1403 474 1360T436 1239Q436 1190 466 1120T553 973ZM836 276L498 768Q392 699 341 617T289 432Q289 304 369 215Q410
171 459 149T569 127Q643 127 713 166T836 276ZM1026 0L920 150Q847 64 750 19T539 -27Q351 -27 233 98Q175 161 145 242T115 424Q115 568 187 676T422 883Q354 973 314 1065T274 1231Q274 1369 358 1456T582 1544Q712 1544 797 1461T883 1247Q883 1134 820 1038T627
862L922 432Q927 447 935 484T951 557T964 650Q967 677 971 717H1135Q1135 658 1123 591Q1115 544 1096 477Q1066 373 1018 299L1225 0H1026Z" />
<glyph unicode="&apos;" glyph-name="quotesingle" horiz-adv-x="317" d="M229 1436V881H90V1436H229Z" />
<glyph unicode="(" glyph-name="parenleft" horiz-adv-x="653" d="M504 -449Q337 -175 262 62T186 553Q186 821 264 1065T504 1540H621Q487 1333 426 1101Q397 988 381 850T365 559Q365 348 386 195T457 -88Q487 -169 529 -263Q546 -302 571 -353T621 -449H504Z" />
<glyph unicode=")" glyph-name="parenright" horiz-adv-x="653" d="M172 -449H55Q105 -352 142 -270Q161 -227 180 -181T217 -88Q264 40 287 199T311 559Q311 869 251 1100T55 1540H172Q331 1309 410 1064T489 553Q489 302 414 63T172 -449Z" />
<glyph unicode="*" glyph-name="asterisk" horiz-adv-x="1024" d="M510 1057L332 797L215 881L416 1126L121 1206L166 1343L449 1241V1540H571V1241L852 1339L903 1208L606 1126L807 881L690 797L510 1057Z" />
<glyph unicode="+" glyph-name="plus" horiz-adv-x="1706" d="M924 1221V680H1452V541H924V0H782V541H254V680H782V1221H924Z" />
<glyph unicode="," glyph-name="comma" horiz-adv-x="512" d="M160 -295V-199Q201 -192 223 -143T246 -10V0H160V211H342V0Q342 -116 294 -194T160 -295Z" />
<glyph unicode="-" glyph-name="hyphen" horiz-adv-x="676" d="M90 485V666H584V485H90Z" />
<glyph unicode="." glyph-name="period" horiz-adv-x="512" d="M164 0V211H346V0H164Z" />
<glyph unicode="/" glyph-name="slash" horiz-adv-x="569" d="M582 1577L33 -190H-78L471 1577H582Z" />
<glyph unicode="0" glyph-name="zero" horiz-adv-x="1020" d="M272 766Q272 580 285 452T325 255Q379 119 512 119Q643 119 695 243T748 764Q748 949 735 1074T695 1267Q642 1399 510 1399Q376 1399 324 1272Q298 1208 285 1084T272 766ZM94 762Q94 1194 190 1371T510
1548Q624 1548 704 1499T842 1346Q885 1268 906 1132Q916 1065 921 975T926 760Q926 330 831 150T516 -31Q289 -31 192 146T94 762Z" />
<glyph unicode="1" glyph-name="one" horiz-adv-x="1020" d="M481 0V1133H154V1264H174Q338 1264 421 1334Q464 1370 488 1424T512 1550H647V0H481Z" />
<glyph unicode="2" glyph-name="two" horiz-adv-x="1020" d="M100 1L98 23V59Q98 208 164 342T367 598L442 665Q601 806 649 862Q690 909 709 975T729 1124Q729 1257 670 1328T502 1399Q391 1399 335 1320T279 1081L280 1064L281 1030H115L114 1057L113 1085Q113
1309 216 1430T510 1552Q695 1552 801 1442T907 1133Q907 1033 887 956T822 812T620 617L561 569Q403 439 339 345Q307 298 290 251T272 158H920V0L100 1Z" />
<glyph unicode="3" glyph-name="three" horiz-adv-x="1020" d="M82 459H252V434Q252 274 309 197T487 119Q612 119 677 198T743 432Q743 585 669 659T438 733L405 732L386 731L385 872H420Q567 872 633 938T700 1145Q700 1265 643 1333T479 1401Q378 1401 325
1329T272 1116V1092H109V1114Q109 1317 208 1432T483 1548Q662 1548 766 1445T870 1163Q870 1022 812 929T653 817Q788 793 854 700T920 440Q920 217 807 93T487 -31Q290 -31 186 91T82 444V459Z" />
<glyph unicode="4" glyph-name="four" horiz-adv-x="1020" d="M205 541H621L639 1329L205 541ZM621 0V393H63V543L635 1548H784V541H928V393H784V0H621Z" />
<glyph unicode="5" glyph-name="five" horiz-adv-x="1020" d="M88 405L256 406V393Q256 264 316 193T485 121Q604 121 668 218T733 496Q733 678 670 770T481 862Q399 862 343 825T264 719L119 731L203 1522H852V1366H336L281 907Q302 956 369 987T522 1018Q702
1018 806 885T911 518Q911 259 800 114T487 -31Q295 -31 192 81T88 405Z" />
<glyph unicode="6" glyph-name="six" horiz-adv-x="1020" d="M279 500Q279 316 344 217T530 117Q642 117 703 215T764 494Q764 663 702 752T518 842Q395 842 337 760T279 500ZM258 797Q294 889 369 939T547 989Q730 989 835 860T940 502Q940 256 829 113T530 -31Q304
-31 200 144T96 707Q96 1158 201 1354T541 1550Q703 1550 800 1450T897 1182H727V1192Q727 1289 676 1345T535 1401Q398 1401 337 1277Q304 1209 283 1096Q258 961 258 797Z" />
<glyph unicode="7" glyph-name="seven" horiz-adv-x="1020" d="M240 0Q264 197 308 376T422 727Q558 1066 780 1354H92V1522H928V1374Q705 1079 580 730Q510 536 475 374Q432 178 432 0H240Z" />
<glyph unicode="8" glyph-name="eight" horiz-adv-x="1020" d="M508 1405Q412 1405 362 1340T311 1149Q311 1037 364 971T508 905Q608 905 661 970T715 1157Q715 1272 661 1338T508 1405ZM270 459Q270 290 331 205T514 119Q623 119 686 202T750 432Q750 599 690
678T504 758Q394 758 332 680T270 459ZM362 831Q255 861 200 942T145 1155Q145 1341 243 1445T516 1550Q684 1550 783 1448T883 1167Q883 1034 829 952T662 838Q797 808 861 714T926 451Q926 222 818 96T510 -31Q321 -31 208 93T94 428Q94 596 164 702T362 831Z"
/>
<glyph unicode="9" glyph-name="nine" horiz-adv-x="1020" d="M741 1020Q741 1203 676 1302T489 1401Q378 1401 317 1304T256 1024Q256 852 318 765T502 678Q625 678 683 761T741 1020ZM762 721Q726 629 651 579T473 528Q290 528 185 658T80 1018Q80 1263 191
1406T489 1550Q717 1550 820 1375T924 813Q924 363 820 166T479 -31Q317 -31 219 70T121 338H293V328Q293 232 344 176T485 119Q620 119 682 242Q716 312 737 423Q762 556 762 721Z" />
<glyph unicode=":" glyph-name="colon" horiz-adv-x="512" d="M164 926V1137H346V926H164ZM164 0V211H346V0H164Z" />
<glyph unicode=";" glyph-name="semicolon" horiz-adv-x="512" d="M164 926V1137H346V926H164ZM164 -295V-199Q204 -192 228 -143T252 -10V0H164V211H346V0Q346 -116 298 -194T164 -295Z" />
<glyph unicode="&lt;" glyph-name="less" horiz-adv-x="1706" d="M1442 1006L473 610L1442 217V63L264 547V676L1442 1159V1006Z" />
<glyph unicode="=" glyph-name="equal" horiz-adv-x="1706" d="M1452 481V342H254V481H1452ZM1452 879V739H254V879H1452Z" />
<glyph unicode="&gt;" glyph-name="greater" horiz-adv-x="1706" d="M1442 676V547L264 63V217L1235 610L264 1006V1159L1442 676Z" />
<glyph unicode="?" glyph-name="question" horiz-adv-x="1018" d="M430 388V400Q430 406 428 422V465Q428 569 458 650T592 854L608 873Q739 1028 739 1184Q739 1296 685 1361T537 1427Q432 1427 376 1349T319 1122V1092H154V1118Q154 1340 251 1458T535 1577Q712
1577 816 1470T920 1180Q920 995 740 783L737 780L735 778Q586 603 586 449V413Q586 396 588 388H430ZM422 0V211H592V0H422Z" />
<glyph unicode="@" glyph-name="at" horiz-adv-x="2048" d="M1284 854L1341 969H1473L1327 393L1321 362L1319 334Q1319 289 1344 265T1419 240Q1444 240 1469 246T1521 266Q1574 293 1628 342Q1706 415 1752 527T1798 762Q1798 1021 1608 1182T1108 1343Q974
1343 861 1316T651 1229Q462 1116 356 930T250 520Q250 343 311 213T504 -18Q603 -94 740 -136T1028 -178Q1197 -178 1355 -130T1649 12L1704 -70Q1559 -179 1391 -236T1040 -293Q848 -293 691 -246T412 -106Q260 10 183 168T106 522Q106 688 157 834T309 1104Q455
1281 661 1373T1116 1466Q1277 1466 1425 1421T1679 1294Q1806 1196 1875 1064T1944 780Q1944 605 1881 466T1696 229Q1665 204 1626 183T1546 146Q1464 117 1380 117Q1281 117 1231 156T1180 274V293Q1126 205 1052 162T879 119Q726 119 646 204T565 451Q565 684
703 844T1042 1004Q1085 1004 1120 995T1187 966Q1247 930 1284 854ZM1190 475L1249 711Q1233 797 1181 846T1051 895Q913 895 819 765T725 446Q725 341 773 284T911 227Q1007 227 1085 296T1190 475Z" />
<glyph unicode="A" glyph-name="A" horiz-adv-x="1126" d="M356 600H766L561 1407L356 600ZM31 0L451 1540H670L1096 0H922L805 444H317L205 0H31Z" />
<glyph unicode="B" glyph-name="B" horiz-adv-x="1108" d="M303 885H483Q644 885 710 945T776 1151Q776 1289 710 1346T473 1403H303V885ZM303 152H522Q677 152 747 218T817 434Q817 602 744 672T492 743H303V152ZM137 0V1540H539Q756 1540 853 1449T950 1155Q950
1015 898 933T737 819Q870 792 934 699T999 442Q999 231 883 116T555 0H137Z" />
<glyph unicode="C" glyph-name="C" horiz-adv-x="1157" d="M866 565H1036Q1036 420 1005 308T914 117Q796 -37 573 -37Q337 -37 222 159T106 766Q106 1195 219 1386T586 1577Q795 1577 910 1454T1026 1106V1087H860Q860 1245 786 1335T584 1425Q429 1425 359 1273T289
766Q289 591 306 470T360 273Q431 127 594 127Q725 127 795 235T866 541V565Z" />
<glyph unicode="D" glyph-name="D" horiz-adv-x="1192" d="M309 147H532Q640 147 699 168T793 240Q847 318 871 436T895 768Q895 1140 817 1265T526 1391H309V147ZM137 0V1540H573Q833 1540 958 1365T1083 821Q1083 560 1041 392T907 125Q846 58 766 29T535 0H137Z" />
<glyph unicode="E" glyph-name="E" horiz-adv-x="1004" d="M137 0V1540H901V1380H307V885H862V729H307V162H907V0H137Z" />
<glyph unicode="F" glyph-name="F" horiz-adv-x="885" d="M137 0V1540H848V1384H313V889H811V729H313V0H137Z" />
<glyph unicode="G" glyph-name="G" horiz-adv-x="1214" d="M954 0L944 213Q902 92 811 28T590 -37Q342 -37 224 161T106 780Q106 1197 229 1387T625 1577Q832 1577 951 1451Q1010 1389 1040 1301T1071 1100H901Q901 1179 881 1238T822 1344Q748 1430 616 1430Q437
1430 361 1273T285 731Q285 423 366 273Q407 199 468 162T614 125Q764 125 844 241T924 578L923 619L922 647H573V803H1087V0H954Z" />
<glyph unicode="H" glyph-name="H" horiz-adv-x="1200" d="M137 0V1540H313V905H887V1540H1063V0H887V750H313V0H137Z" />
<glyph unicode="I" glyph-name="I" horiz-adv-x="451" d="M137 0V1540H313V0H137Z" />
<glyph unicode="J" glyph-name="J" horiz-adv-x="862" d="M35 477H201V328Q201 219 245 165T375 111Q479 111 519 175Q539 207 549 277T559 461V1540H725V344Q725 152 638 59T367 -35Q204 -35 120 63T35 352V477Z" />
<glyph unicode="K" glyph-name="K" horiz-adv-x="1110" d="M137 0V1540H307V799L864 1540H1063L584 918L1098 0H889L469 768L307 557V0H137Z" />
<glyph unicode="L" glyph-name="L" horiz-adv-x="975" d="M137 0V1540H309V166H924V0H137Z" />
<glyph unicode="M" glyph-name="M" horiz-adv-x="1511" d="M1204 0V1452L829 0H662L303 1452V0H135V1540H424L748 227L1087 1540H1372V0H1204Z" />
<glyph unicode="N" glyph-name="N" horiz-adv-x="1188" d="M137 0V1540H367L901 219L885 1540H1051V0H831L289 1360L303 0H137Z" />
<glyph unicode="O" glyph-name="O" horiz-adv-x="1200" d="M285 770Q285 398 355 257T600 115Q774 115 844 254T915 770Q915 1146 846 1284T600 1423Q427 1423 356 1281T285 770ZM106 770Q106 1201 222 1389T600 1577Q863 1577 978 1390T1094 770Q1094 336 980
150T600 -37Q341 -37 224 152T106 770Z" />
<glyph unicode="P" glyph-name="P" horiz-adv-x="1085" d="M309 803H535Q691 803 764 878T838 1112Q838 1260 764 1325T524 1391H309V803ZM137 0V1540H532Q784 1540 900 1437T1016 1110Q1016 882 896 765T539 647H309V0H137Z" />
<glyph unicode="Q" glyph-name="Q" horiz-adv-x="1200" d="M780 170L618 307L717 422L862 299Q888 391 901 508T915 750Q915 1144 846 1283T600 1423Q428 1423 358 1282T287 770Q287 397 356 256T600 115Q665 115 705 128Q747 140 780 170ZM907 61Q864 13 785
-12T600 -37Q341 -37 224 152T106 770Q106 1201 222 1389T600 1577Q863 1577 978 1390T1094 770Q1094 663 1088 577T1068 412Q1043 264 993 184L1167 43L1075 -74L907 61Z" />
<glyph unicode="R" glyph-name="R" horiz-adv-x="1196" d="M305 834H514Q693 834 778 903T864 1120Q864 1260 789 1324T547 1389H305V834ZM137 0V1540H569Q808 1540 924 1443T1040 1145Q1040 991 971 899T754 768Q816 768 864 746T946 685Q1009 613 1024 462L1035
307Q1035 189 1058 110T1116 0H903Q886 28 874 93T862 251Q862 300 858 344T852 408Q838 567 770 625T524 684H305V0H137Z" />
<glyph unicode="S" glyph-name="S" horiz-adv-x="1098" d="M104 489H268V434Q268 278 340 198T555 117Q683 117 756 194T829 406Q829 513 785 571T584 690L480 729Q295 796 254 831Q191 888 159 967T127 1149Q127 1349 238 1463T547 1577Q734 1577 841 1472T948
1182L947 1162L946 1143H788V1159Q788 1288 725 1359T545 1430Q424 1430 356 1363T287 1180Q287 1071 333 1011T539 893L595 872Q836 783 883 739Q940 687 967 610Q981 571 988 528T995 428Q995 209 875 87T537 -35Q323 -35 213 85T102 438L103 463L104 489Z" />
<glyph unicode="T" glyph-name="T" horiz-adv-x="995" d="M422 0V1382H29V1540H967V1382H598V0H422Z" />
<glyph unicode="U" glyph-name="U" horiz-adv-x="1180" d="M139 1540H311V504Q311 288 372 204T582 119Q731 119 802 212T874 504V1540H1042V535Q1042 338 1021 259T946 117Q883 42 790 4T580 -35Q458 -35 363 6T211 125Q173 174 155 258Q147 301 143 366T139 535V1540Z" />
<glyph unicode="V" glyph-name="V" horiz-adv-x="1075" d="M436 0L6 1540H193L539 213L895 1540H1067L643 0H436Z" />
<glyph unicode="W" glyph-name="W" horiz-adv-x="1620" d="M350 0L25 1540H203L444 238L717 1540H913L1180 248L1425 1540H1593L1268 0H1083L813 1257L539 0H350Z" />
<glyph unicode="X" glyph-name="X" horiz-adv-x="1012" d="M-25 0L403 797L-4 1540H205L510 956L819 1540H1016L604 801L1036 0H829L504 645L174 0H-25Z" />
<glyph unicode="Y" glyph-name="Y" horiz-adv-x="1028" d="M424 0V596L-31 1540H174L514 782L870 1540H1057L598 596V0H424Z" />
<glyph unicode="Z" glyph-name="Z" horiz-adv-x="905" d="M47 0V160L668 1380H82V1540H850V1382L233 166H858V0H47Z" />
<glyph unicode="[" glyph-name="bracketleft" horiz-adv-x="653" d="M233 -434V1540H596V1417H399V-309H596V-434H233Z" />
<glyph unicode="\" glyph-name="backslash" horiz-adv-x="569" d="M549 -190L0 1577H111L659 -190H549Z" />
<glyph unicode="]" glyph-name="bracketright" horiz-adv-x="653" d="M420 -434H57V-309H254V1417H57V1540H420V-434Z" />
<glyph unicode="^" glyph-name="asciicircum" horiz-adv-x="2048" d="M1116 1458L1626 901H1446L1024 1321L600 901H420L930 1458H1116Z" />
<glyph unicode="_" glyph-name="underscore" horiz-adv-x="1024" d="M1024 -340V-483H0V-340H1024Z" />
<glyph unicode="`" glyph-name="grave" horiz-adv-x="1024" d="M633 1276H532L285 1546H463L633 1276Z" />
<glyph unicode="a" glyph-name="a" horiz-adv-x="913" d="M616 621Q580 580 448 532L432 526Q322 487 287 438T252 293Q252 207 290 160T397 113Q496 113 556 188T616 393V621ZM871 -2L817 -9L776 -12Q709 -12 669 31Q649 53 638 82T627 153Q591 65 521 18T354
-29Q230 -29 160 55T90 291Q90 439 154 517T433 668L436 669Q612 728 612 807V913Q612 984 572 1016T442 1049Q358 1049 315 1004T272 866V846H121Q121 1017 205 1103Q286 1184 461 1184Q623 1184 699 1110T776 874V201Q776 156 792 137T844 117L866 120L870 121L871
-2Z" />
<glyph unicode="b" glyph-name="b" horiz-adv-x="981" d="M274 584Q274 333 327 227T500 121Q611 121 662 232T713 596Q713 820 660 927T494 1034Q376 1034 325 934T274 584ZM125 0V1540H285V1032Q306 1097 375 1137T535 1178Q703 1178 796 1031T889 612Q889 303
797 140T526 -23Q435 -23 366 22T274 145V0H125Z" />
<glyph unicode="c" glyph-name="c" horiz-adv-x="942" d="M680 406H838Q838 199 742 84T471 -31Q279 -31 187 120T94 584Q94 883 190 1032T481 1182Q640 1182 734 1083T829 815V791H672Q672 849 659 895T620 975Q573 1038 487 1038Q371 1038 320 933T268 578Q268
325 319 219T489 113Q578 113 628 188Q653 227 666 281T680 406Z" />
<glyph unicode="d" glyph-name="d" horiz-adv-x="975" d="M705 584Q705 838 656 936T487 1034Q375 1034 321 927T266 596Q266 347 317 234T481 121Q600 121 652 227T705 584ZM856 0H705V145Q684 71 615 24T455 -23Q279 -23 185 139T90 612Q90 881 183 1029T446
1178Q537 1178 605 1138T694 1032V1540H856V0Z" />
<glyph unicode="e" glyph-name="e" horiz-adv-x="901" d="M256 700H647V731Q647 813 636 870T600 970Q555 1051 461 1051Q359 1051 308 965T256 700ZM649 389H807Q807 186 715 78T453 -31Q268 -31 179 114T90 563Q90 885 178 1034T457 1184Q635 1184 723 1057T811
670L810 608L809 570L256 569V518Q256 300 306 202T465 104Q549 104 599 179T649 381V389Z" />
<glyph unicode="f" glyph-name="f" horiz-adv-x="532" d="M166 0V1020H4V1151H166V1307Q166 1432 232 1490T438 1548Q456 1548 467 1546Q482 1546 506 1540L505 1397L472 1401L440 1403Q382 1403 357 1380T332 1300V1151H506V1020H332V0H166Z" />
<glyph unicode="g" glyph-name="g" horiz-adv-x="973" d="M262 573Q262 452 274 367T312 227Q363 123 477 123Q595 123 646 228T698 588Q698 825 645 932T473 1040Q363 1040 313 931T262 573ZM127 -106H287Q287 -173 339 -212Q387 -248 475 -248Q592 -248 645
-171T698 78L697 103L696 139Q662 61 598 22T440 -18Q266 -18 179 138T92 610Q92 891 182 1034T453 1178Q543 1178 607 1136T698 1016V1151H854V53Q854 -158 752 -273T463 -389Q317 -389 222 -312T127 -113V-106Z" />
<glyph unicode="h" glyph-name="h" horiz-adv-x="963" d="M123 0V1540H285V1026Q330 1100 398 1139Q469 1176 563 1176Q695 1176 769 1108T844 915V0H682V838Q682 939 644 985T520 1032Q413 1032 349 964T285 780V0H123Z" />
<glyph unicode="i" glyph-name="i" horiz-adv-x="408" d="M121 1331V1540H287V1331H121ZM121 0V1151H287V0H121Z" />
<glyph unicode="j" glyph-name="j" horiz-adv-x="426" d="M147 1333V1540H307V1331L147 1333ZM20 -387V-250H29Q98 -250 122 -223T147 -98V1151H307V-111Q307 -256 245 -321T41 -387H20Z" />
<glyph unicode="k" glyph-name="k" horiz-adv-x="868" d="M123 0V1540H279V629L672 1151H860L516 715L887 0H690L406 567L279 410V0H123Z" />
<glyph unicode="l" glyph-name="l" horiz-adv-x="401" d="M121 0V1540H281V0H121Z" />
<glyph unicode="m" glyph-name="m" horiz-adv-x="1528" d="M123 0V1151H272V1012Q318 1092 395 1135T575 1178Q671 1178 734 1136T823 1010Q849 1052 879 1083T948 1136Q1022 1178 1122 1178Q1262 1178 1336 1106T1411 895V0H1245V795Q1245 934 1209 984T1083
1034Q980 1034 915 969T850 801V0H684V801Q684 927 646 980T518 1034Q413 1034 347 971T281 809V0H123Z" />
<glyph unicode="n" glyph-name="n" horiz-adv-x="963" d="M123 0V1151H274V1008Q316 1092 388 1134T563 1176Q715 1176 779 1099T844 834V0H682V846Q682 939 642 985T520 1032Q412 1032 349 964T285 780V0H123Z" />
<glyph unicode="o" glyph-name="o" horiz-adv-x="989" d="M90 575Q90 884 189 1034T494 1184Q701 1184 800 1037T899 575Q899 262 801 116T494 -31Q284 -31 187 115T90 575ZM262 575Q262 316 315 211T494 106Q617 106 671 213T725 575Q725 829 672 935T494 1042Q371
1042 317 938T262 575Z" />
<glyph unicode="p" glyph-name="p" horiz-adv-x="975" d="M279 580Q279 343 335 230T508 117Q615 117 664 226Q687 279 700 370T713 582Q713 702 701 787T663 927Q613 1034 502 1034Q383 1034 331 930T279 580ZM123 -389V1151H279V1006Q297 1082 366 1130T522
1178Q704 1178 795 1027T887 578Q887 267 803 121T537 -25Q454 -25 391 13T289 123V-389H123Z" />
<glyph unicode="q" glyph-name="q" horiz-adv-x="975" d="M696 580Q696 825 645 929T473 1034Q363 1034 313 928T262 582Q262 337 310 227T467 117Q582 117 639 230T696 580ZM852 -389H686V123Q651 54 586 15T438 -25Q258 -25 173 121T88 578Q88 876 179 1027T453
1178Q541 1178 609 1130T696 1006V1151H852V-389Z" />
<glyph unicode="r" glyph-name="r" horiz-adv-x="596" d="M123 0V1151H272V963Q306 1062 377 1120T539 1178L580 1177L608 1174V1002L579 1012L545 1016Q422 1016 353 935T283 705V0H123Z" />
<glyph unicode="s" glyph-name="s" horiz-adv-x="909" d="M92 346H252L251 340L248 307Q248 214 302 165T457 115Q550 115 603 165T657 301Q657 436 448 509L444 510Q236 582 174 655T111 864Q111 1014 200 1099T446 1184Q613 1184 698 1103T784 864V848H631Q631
900 619 936T584 999Q542 1047 453 1047Q361 1047 313 1003T264 870Q264 832 276 802T313 750Q355 714 488 670Q561 648 596 633Q713 589 765 518T817 330Q817 157 717 63T434 -31Q266 -31 179 59T92 322V346Z" />
<glyph unicode="t" glyph-name="t" horiz-adv-x="504" d="M307 238Q307 166 333 144T457 121H478Q489 121 493 123L494 -18L454 -20L375 -23Q262 -23 206 22T150 160V1018H-10V1151H150V1458H307V1151H494V1018H307V238Z" />
<glyph unicode="u" glyph-name="u" horiz-adv-x="963" d="M682 0V150Q649 64 574 17T395 -31Q250 -31 185 40T119 266V1151H287V262Q287 191 322 152T422 113Q537 113 602 185T668 387V1151H831V0H682Z" />
<glyph unicode="v" glyph-name="v" horiz-adv-x="872" d="M344 0L33 1151H209L434 248L670 1151H838L518 0H344Z" />
<glyph unicode="w" glyph-name="w" horiz-adv-x="1364" d="M338 0L43 1151H209L422 231L600 1151H764L963 229L1161 1151H1321L1042 0H883L682 893L506 0H338Z" />
<glyph unicode="x" glyph-name="x" horiz-adv-x="825" d="M-18 0L309 596L4 1151H188L410 737L635 1151H815L508 608L842 0H653L406 467L164 0H-18Z" />
<glyph unicode="y" glyph-name="y" horiz-adv-x="909" d="M78 -369V-223Q101 -233 128 -239Q144 -242 152 -243T178 -244Q248 -244 290 -196Q310 -173 331 -126T373 -10L35 1151H209L455 223L709 1151H874L520 -51Q465 -245 392 -316T184 -387Q175 -387 163 -386T136
-382Q108 -379 78 -369Z" />
<glyph unicode="z" glyph-name="z" horiz-adv-x="793" d="M47 0V147L541 1006H68V1151H733V1022L229 154H743V0H47Z" />
<glyph unicode="{" glyph-name="braceleft" horiz-adv-x="1024" d="M866 1327H825Q706 1327 665 1283T623 1098V856Q623 697 579 630T422 530Q534 503 578 435T623 205V-37Q623 -178 664 -222T827 -266H866V-414H823Q716 -414 655 -403T551 -365Q497 -332 473
-268Q451 -202 451 -57V188Q451 337 396 398T211 459L189 458L168 457V606L191 605L213 604Q341 604 396 664T451 872V1118Q451 1266 473 1328T551 1425Q595 1451 658 1464T829 1477H866V1327Z" />
<glyph unicode="|" glyph-name="bar" horiz-adv-x="1024" d="M588 1565V-483H438V1565H588Z" />
<glyph unicode="}" glyph-name="braceright" horiz-adv-x="1024" d="M575 1118V872Q575 726 629 665T813 604L835 605L858 606V457L836 458L815 459Q683 459 629 399T575 188V-57Q575 -206 553 -268T475 -365Q434 -390 373 -402T203 -414H160V-266H199Q319 -266
361 -221T403 -35V205Q403 366 447 433T604 530Q493 560 448 628T403 856V1098Q403 1237 361 1282T199 1327H160V1477H197Q250 1477 292 1474T368 1464Q430 1452 475 1425Q528 1393 551 1329T575 1118Z" />
<glyph unicode="~" glyph-name="asciitilde" horiz-adv-x="1706" d="M1530 614Q1429 544 1331 507Q1285 491 1237 482T1141 473Q1094 473 1032 487T885 531L851 543L836 548Q660 608 563 608Q522 608 478 599T388 571Q298 535 178 451V606Q284 678 380 714T565
750Q598 750 627 747T692 736Q756 724 856 688L903 671Q1062 614 1143 614Q1230 614 1322 651T1530 770V614Z" />
</font>
</defs>
</svg>
