<?xml version="1.0" standalone="no"?> <!DOCTYPE svg PUBLIC "-//W3C//DTD SVG 1.0//EN" "http://www.w3.org/TR/2001/REC-SVG-20010904/DTD/svg10.dtd" > <svg xmlns="http://www.w3.org/2000/svg" width="100%" height="100%">
<defs >
<font id="centaur" horiz-adv-x="742" ><font-face
    font-family="Centaur"
    units-per-em="2048"
    panose-1="2 3 5 4 5 2 5 2 3 4"
    ascent="1745"
    descent="-590"
    alphabetic="0" />
<missing-glyph horiz-adv-x="1536" d="M0 0V1280H1024V0H0ZM32 32H992V1248H32V32Z" />
<glyph unicode=" " glyph-name="space" horiz-adv-x="502" />
<glyph unicode="!" glyph-name="exclam" horiz-adv-x="426" d="M229 334L188 340Q197 543 197 840Q197 961 193 1001Q187 1041 166 1053Q143 1070 143 1077Q143 1091 164 1094Q182 1100 346 1163Q358 1163 358 1149Q358 1139 356 1130L262 559Q256 525 233 356Q229
352 229 334ZM78 90Q78 104 104 121Q148 144 180 203Q191 219 207 219Q224 219 233 203T242 180Q280 129 307 115Q325 107 328 102T332 86Q332 71 315 61Q271 41 236 -16Q222 -39 207 -39Q190 -39 176 -18Q158 15 145 30T100 61Q86 71 82 75T78 90Z" />
<glyph unicode="&quot;" glyph-name="quotedbl" horiz-adv-x="897" d="M270 696H227L174 991Q164 1047 158 1085T152 1157Q152 1280 248 1280Q278 1280 301 1266T338 1229T352 1174Q352 1132 332 1024L270 696ZM666 696H623L569 991Q559 1047 553 1085T547 1157Q547
1280 643 1280Q673 1280 697 1266T734 1229T748 1174Q748 1137 727 1024L666 696Z" />
<glyph unicode="#" glyph-name="numbersign" horiz-adv-x="1366" d="M55 920V1014H414L508 1458H600L506 1014H993L1085 1458H1180L1085 1014H1313V920H1067L977 485H1313V391H956L866 -51H772L864 391H375L287 -51H190L283 391H55V485H303L393 920H55ZM885 485L975
920H485L395 485H885Z" />
<glyph unicode="$" glyph-name="dollar" horiz-adv-x="1004" d="M477 1376H526V1282Q731 1282 856 1151Q785 1080 764 1010L727 1014Q731 1110 669 1169T526 1235L524 754Q660 676 727 629T842 513T891 352Q891 276 851 197T726 62T518 0L520 -133Q520 -154 508
-154Q469 -154 471 -133V0Q382 7 290 54T82 260L190 416L221 393Q211 371 211 338Q211 314 232 251T311 124T471 47L473 612Q434 634 368 672T254 753T175 853T145 979Q145 1047 184 1114T300 1228T475 1282L477 1376ZM475 780L477 1237Q364 1230 311 1175T258
1044Q258 957 316 899T475 780ZM522 586L520 41Q634 51 696 99T778 202T799 291Q799 373 731 444T522 586Z" />
<glyph unicode="%" glyph-name="percent" horiz-adv-x="1665" d="M416 1323Q495 1323 563 1283T673 1170T715 1004Q715 919 679 838T572 704T406 651Q324 651 255 689T144 800T102 975Q102 1075 144 1154T260 1278T416 1323ZM399 1282Q338 1282 296 1244T234 1143T213
1012Q213 885 270 789T418 692Q454 692 495 713T567 796T598 963Q598 1085 547 1183T399 1282ZM1278 635Q1359 635 1428 594T1538 478T1579 313Q1579 252 1559 189T1498 74T1399 -9T1268 -39Q1189 -39 1119 -1T1007 111T965 285Q965 437 1057 536T1278 635ZM1262
592Q1200 592 1158 553T1096 454T1075 322Q1075 261 1090 204T1133 101T1199 30T1282 4Q1345 4 1403 62T1462 274Q1462 349 1440 422T1373 544T1262 592ZM379 -98L344 -84Q396 -10 499 152T707 483T889 785T999 975Q1040 1049 1071 1105T1188 1313L1210 1348Q1244
1348 1263 1350T1309 1362Q1161 1129 1036 923T807 542T599 189T463 -55Q411 -58 379 -98Z" />
<glyph unicode="&amp;" glyph-name="ampersand" horiz-adv-x="1300" d="M1202 897L1198 864Q1152 862 1130 849T1085 798T1020 664Q970 553 941 489T889 379Q863 334 858 322Q885 251 919 192T991 97T1067 61Q1135 61 1200 180Q1223 218 1227 223T1241 229Q1248
229 1255 224T1262 209Q1247 155 1189 74T1014 -8Q957 -8 912 26T835 107T778 203Q720 119 658 72T529 5T391 -14Q282 -14 211 37T106 168T72 326Q72 473 155 559T336 698Q256 745 220 810T184 928Q184 1014 247 1074T381 1165T467 1196Q479 1196 503 1184T558
1151T602 1120Q637 1093 657 1049T678 956Q678 911 668 891T604 817Q591 800 567 776T522 729Q598 691 641 659T728 564T827 387Q832 398 859 449T889 508Q924 571 961 678T1006 848Q993 867 977 880T918 913L932 946Q985 928 1064 915T1202 897ZM467 760Q518 786
551 827T584 920Q584 961 556 1005T483 1077T391 1106Q337 1106 292 1056T246 967Q246 916 305 855T467 760ZM385 668Q276 594 235 539T193 399Q193 260 250 189T371 99T475 80Q557 80 626 124T752 256L743 274Q708 357 676 418T605 525T514 606T385 668Z" />
<glyph unicode="&apos;" glyph-name="quotesingle" horiz-adv-x="385" d="M211 696H168L115 991Q92 1108 92 1157Q92 1280 188 1280Q217 1280 241 1267T279 1229T293 1174Q293 1124 272 1024L211 696Z" />
<glyph unicode="(" glyph-name="parenleft" horiz-adv-x="682" d="M631 -520L600 -571Q465 -485 367 -385T201 -162T101 98T68 397Q68 576 110 733T226 1010T395 1220T604 1376L629 1325Q515 1258 403 1146T209 846T127 410Q127 227 171 74T290 -190T448 -378T631 -520Z" />
<glyph unicode=")" glyph-name="parenright" horiz-adv-x="682" d="M55 1325L86 1376Q354 1208 486 968T618 408Q618 223 576 70T461 -204T293 -415T82 -571L57 -520Q171 -453 283 -341T477 -41T559 395Q559 585 515 734T398 994T238 1185T55 1325Z" />
<glyph unicode="*" glyph-name="asterisk" horiz-adv-x="725" d="M33 1130L51 1163Q173 1110 281 1104Q327 1199 344 1333H381Q390 1249 406 1201T444 1104Q546 1109 676 1163L692 1130Q583 1047 528 961Q582 876 692 793L676 760Q551 813 444 819Q396 721 381
590H344Q327 724 281 819Q168 810 51 760L33 793Q141 872 197 961Q142 1049 33 1130ZM233 961Q233 909 270 870T362 831Q418 831 455 870T492 961Q492 1013 455 1052T362 1092Q307 1092 270 1053T233 961Z" />
<glyph unicode="+" glyph-name="plus" horiz-adv-x="1366" d="M111 651V745H635V1274H729V745H1257V651H729V129H635V651H111Z" />
<glyph unicode="," glyph-name="comma" horiz-adv-x="406" d="M82 -229L61 -197Q122 -158 157 -125T193 -41Q193 20 135 61Q109 83 104 90T98 117Q168 154 193 240Q207 240 215 242Q240 185 285 162Q310 151 317 146T324 129Q324 122 297 68L293 37Q276 -70 214
-132T82 -229Z" />
<glyph unicode="-" glyph-name="hyphen" horiz-adv-x="641" d="M72 330V438H567V330H72Z" />
<glyph unicode="." glyph-name="period" horiz-adv-x="406" d="M78 90Q78 104 104 121Q148 144 180 203Q191 219 207 219Q224 219 233 203T242 180Q280 129 307 115Q325 107 328 102T332 86Q332 71 315 61Q271 41 236 -16Q222 -39 207 -39Q190 -39 176 -18Q158
15 145 30T100 61Q86 71 82 75T78 90Z" />
<glyph unicode="/" glyph-name="slash" horiz-adv-x="1087" d="M59 -297L934 1520H1028L152 -297H59Z" />
<glyph unicode="0" glyph-name="zero" horiz-adv-x="1004" d="M53 612Q53 824 120 975T294 1203T514 1280Q612 1280 693 1232T832 1096T919 894T950 645Q950 460 894 310T733 74T489 -12Q355 -12 255 77T104 309T53 612ZM203 705Q203 640 211 537T251 318T347
121T518 39Q616 39 680 113T772 303T801 553Q801 647 785 795T713 1065Q695 1104 669 1139T596 1203T494 1231Q450 1231 403 1212T309 1135T233 972T203 705Z" />
<glyph unicode="1" glyph-name="one" horiz-adv-x="1004" d="M215 -10L213 33Q284 33 335 51T403 125Q416 168 423 304T433 585T436 860Q436 1092 426 1133Q417 1174 366 1184T219 1194L217 1233Q360 1236 455 1244T610 1262T745 1288L756 1249L686 1233Q626 1220
609 1190T584 1094Q574 994 570 897T564 711T563 489Q563 117 596 78Q611 63 649 53T795 33L793 -8Q653 0 594 0Q371 0 215 -10Z" />
<glyph unicode="2" glyph-name="two" horiz-adv-x="1004" d="M651 0H176Q115 0 37 -10Q29 6 25 12L170 162Q680 677 680 924Q680 1038 608 1103T428 1169Q272 1169 168 1057L131 1087Q181 1142 226 1181T343 1252T502 1284Q590 1284 664 1247T780 1139T823 977Q823
884 785 801T672 628T477 412L311 236Q308 231 294 217T266 186L211 127L526 125Q653 125 698 128T783 149T855 204T928 317L965 297L852 90Q843 74 829 48T803 -4T778 -51L748 -49Q737 -19 716 -10T651 0Z" />
<glyph unicode="3" glyph-name="three" horiz-adv-x="1004" d="M205 1096L176 1130Q351 1280 510 1280Q586 1280 648 1252T745 1171T780 1049Q780 901 621 754Q731 684 801 606T872 399Q872 303 818 207T661 48T424 -14Q331 -14 237 27T76 160L174 326L213 303Q188
264 188 246Q188 216 236 166T355 79T496 41Q563 41 624 78T722 178T758 315Q758 395 723 456T638 557T500 655L436 608L410 645Q522 733 586 809T651 979Q651 1067 588 1128T432 1190Q327 1190 205 1096Z" />
<glyph unicode="4" glyph-name="four" horiz-adv-x="1004" d="M391 -12V35Q462 35 497 43T549 78T571 158T580 324L582 393H356Q318 393 249 390T124 384T31 379Q28 387 20 397Q136 542 219 647T382 858T535 1072T676 1296Q697 1300 725 1311Q722 1260 720 1076T717
795L715 479L825 481Q861 481 888 491T950 539L979 526L911 383Q847 389 715 389Q715 254 717 197T730 106T763 58T834 33V-2Q797 0 705 0Q514 0 391 -12ZM586 1059Q543 991 492 924Q391 788 372 763T322 696L152 479Q366 477 584 479L588 655Q590 750 586 1059Z"
/>
<glyph unicode="5" glyph-name="five" horiz-adv-x="1004" d="M147 326L178 317Q176 309 176 285Q176 214 233 160T372 79T516 51Q596 51 650 104T731 230T758 354Q758 434 716 507T597 639T419 734T209 772Q220 839 260 944L379 1262H729Q786 1262 811 1268T864
1307H907L803 1137Q791 1137 728 1139T655 1141L571 1143Q477 1145 436 1134T367 1076T299 907Q525 858 656 770T835 589T883 414Q883 308 826 207T665 44T428 -18Q310 -18 234 22T90 127Q120 196 147 326Z" />
<glyph unicode="6" glyph-name="six" horiz-adv-x="1004" d="M793 1317L807 1280Q649 1218 542 1126T372 931T284 723T258 524Q258 365 307 252T429 84T571 29Q632 29 684 63T768 163T799 319Q799 419 762 505T661 643T526 696Q451 696 346 616L348 662Q455 735
497 754T604 774Q687 774 761 724T879 588T924 410Q924 306 874 207T733 47T532 -14Q452 -14 377 21T243 123T150 284T115 487Q115 602 146 720T255 953T467 1163T793 1317Z" />
<glyph unicode="7" glyph-name="seven" horiz-adv-x="1004" d="M119 1024L78 1026Q157 1199 176 1253Q194 1302 197 1308T209 1315Q219 1315 223 1303Q236 1279 252 1274T309 1268Q326 1268 407 1270T500 1272Q554 1272 605 1272T717 1270Q872 1270 952 1286L965
1264Q877 1122 797 969T644 652T509 337T369 -23Q351 -18 338 -18Q330 -18 305 -26T276 -37T262 -39Q242 -39 242 -20Q242 -9 280 64T322 145Q358 213 420 337T535 571T608 725L760 1049Q762 1054 773 1077T799 1135Q768 1139 705 1142T578 1147T465 1149Q361 1149
298 1142T170 1118L119 1024Z" />
<glyph unicode="8" glyph-name="eight" horiz-adv-x="1004" d="M418 666Q280 743 222 821T164 993Q164 1071 203 1139T319 1249T496 1290Q598 1290 674 1251T792 1148T834 1016Q834 940 794 881T705 787T608 727Q697 679 758 634T866 515T913 336Q913 244 861
164T715 35T496 -14Q386 -14 293 28T146 144T92 301Q92 521 418 666ZM569 748Q707 858 707 983Q707 1045 680 1104T599 1204T467 1245Q406 1245 355 1220T274 1152T244 1057Q244 971 305 915T473 799Q547 761 569 748ZM461 643Q369 593 301 528T233 354Q233 269
283 196T407 79T547 35Q614 35 667 66T752 154T784 283Q784 503 487 629Q465 640 461 643Z" />
<glyph unicode="9" glyph-name="nine" horiz-adv-x="1004" d="M211 -43L195 -6Q399 74 523 206T696 479T745 750Q745 875 715 970T637 1125T536 1214T432 1245Q370 1245 317 1210T234 1110T203 956Q203 857 240 770T342 630T475 578Q522 578 572 604T655 657V612Q585
566 545 542T473 509T399 500Q316 500 242 550T124 684T80 864Q80 968 130 1067T271 1227T469 1288Q550 1288 627 1253T762 1152T854 993T889 786Q889 707 871 613T802 412T659 215Q605 160 538 113T416 39T303 -9T211 -43Z" />
<glyph unicode=":" glyph-name="colon" horiz-adv-x="406" d="M76 672Q76 685 102 702Q145 726 178 784Q188 801 205 801Q222 801 231 785T240 762Q278 712 305 696Q324 687 327 683T330 668Q330 652 313 643Q269 623 233 565Q220 543 205 543Q188 543 174 563Q156
595 143 611T98 643Q86 650 81 655T76 672ZM78 90Q78 104 104 121Q148 144 180 203Q191 219 207 219Q224 219 233 203T242 180Q280 129 307 115Q325 107 328 102T332 86Q332 71 315 61Q271 41 236 -16Q222 -39 207 -39Q190 -39 176 -18Q158 15 145 30T100 61Q86
71 82 75T78 90Z" />
<glyph unicode=";" glyph-name="semicolon" horiz-adv-x="426" d="M213 207H238Q255 167 258 162Q307 73 307 10Q307 -83 253 -149T117 -266L92 -233Q139 -200 174 -160T209 -66Q209 -16 181 1Q153 18 109 25Q80 33 80 51Q80 60 94 74Q131 97 163 128T213 207ZM115
668Q115 681 141 698Q184 722 217 780Q228 797 244 797Q261 797 270 781T279 758Q317 708 344 692Q363 683 366 679T369 664Q369 648 352 639Q330 629 313 614T272 561Q259 539 244 539Q227 539 213 559Q195 592 179 608T137 639Q125 646 120 651T115 668Z" />
<glyph unicode="&lt;" glyph-name="less" horiz-adv-x="1366" d="M1255 276V174L113 659V743L1255 1227V1124L236 702L1255 276Z" />
<glyph unicode="=" glyph-name="equal" horiz-adv-x="1366" d="M111 905V999H1257V905H111ZM111 410V504H1257V410H111Z" />
<glyph unicode="&gt;" glyph-name="greater" horiz-adv-x="1366" d="M111 1124V1227L1253 741V657L111 174V276L1130 698L111 1124Z" />
<glyph unicode="?" glyph-name="question" horiz-adv-x="575" d="M104 1202L133 1204Q149 1143 168 1129T240 1108Q335 1096 422 1020Q508 944 508 797Q508 694 467 607T344 471Q300 445 289 429T270 348Q268 322 266 317T250 311Q229 311 229 338L240 514Q241
545 255 553T334 575Q390 586 415 609T445 664T451 760Q451 826 426 870T338 943T172 983Q130 988 108 995T86 1028Q102 1102 104 1118Q105 1124 105 1153Q105 1181 104 1202ZM113 94Q113 108 139 125Q183 148 215 207Q226 223 242 223Q259 223 267 208T276 184Q315
133 342 119Q360 111 363 106T367 90Q367 75 350 66Q328 56 311 41T270 -12Q258 -35 242 -35Q225 -35 211 -14Q193 19 177 35T135 66Q123 73 118 78T113 94Z" />
<glyph unicode="@" glyph-name="at" horiz-adv-x="2005" d="M1335 999L1503 1022L1378 596Q1377 591 1370 564T1356 512Q1311 351 1296 290T1280 190Q1280 166 1299 139T1360 111Q1436 111 1515 164T1663 315T1772 539T1812 805Q1812 946 1763 1067T1622 1276T1403
1413T1120 1462Q916 1462 745 1377T453 1146T269 817T205 446Q205 256 267 99T443 -173T710 -348T1040 -408Q1155 -408 1275 -379T1511 -280T1728 -94T1898 184H1960Q1909 25 1813 -98T1589 -305T1320 -430T1034 -471Q842 -471 673 -403T374 -205T174 99T104 475Q104
697 183 889T402 1222T726 1440T1114 1518Q1303 1518 1448 1458T1688 1294T1829 1060T1876 786Q1876 658 1838 526T1724 282T1537 102T1286 33Q1205 33 1165 70T1124 180Q1124 230 1143 332L1139 336Q1068 248 1011 189T878 82T723 33Q661 33 616 72T550 169T528
281Q528 441 623 617T859 910T1116 1028Q1192 1028 1237 992T1298 883H1303L1335 999ZM1128 979Q1032 979 933 857T766 570T698 313Q698 256 732 209T821 162Q909 162 1014 260T1190 514T1262 825Q1262 890 1227 934T1128 979Z" />
<glyph unicode="A" glyph-name="A" horiz-adv-x="1280" d="M864 -4V29Q910 37 937 50T965 94Q965 123 947 178T920 254L846 455Q788 463 657 463H578Q459 467 369 451L295 266Q246 150 246 121Q246 86 277 63T406 25V-8Q289 6 207 6Q123 6 25 -2V27Q85 42 117
74Q141 95 180 173T260 344T319 489L479 872Q509 941 540 1016T600 1168T641 1290Q641 1303 647 1309L680 1311Q711 1200 748 1098L958 535Q1039 324 1080 224T1153 80Q1179 43 1260 35V0Q1178 8 1102 8Q1042 8 991 5T909 0T864 -4ZM547 897L434 606Q411 544 403
528Q479 516 578 516L670 518Q753 518 819 522Q784 624 774 643L702 827Q690 857 657 936T608 1044Q589 1002 576 968T547 897Z" />
<glyph unicode="B" glyph-name="B" horiz-adv-x="1044" d="M612 707Q754 681 840 622T961 492T995 340Q995 120 833 57Q671 -6 502 -6Q486 -6 444 -5T360 -2T295 -1T244 0Q184 0 49 -8V29Q89 33 113 39T155 63T178 109Q188 152 193 288T201 564T203 782Q203 865
201 943T191 1096T168 1196Q154 1224 126 1236T51 1255V1294Q157 1286 238 1286Q257 1286 377 1294Q505 1303 512 1303Q609 1303 689 1267T817 1160T866 993Q866 892 804 819T612 707ZM330 838V715Q352 717 381 717Q471 719 539 733T660 802T713 971Q713 1061 676
1124T575 1220T440 1253Q371 1253 356 1237Q343 1226 337 1085T330 838ZM330 668V276Q330 174 334 132T353 70T398 45T504 41Q585 41 660 66T788 156T840 328Q840 388 817 451T748 563T627 644T451 676Q427 676 394 674T330 668Z" />
<glyph unicode="C" glyph-name="C" horiz-adv-x="1280" d="M1204 201Q1199 188 1161 53Q1053 21 965 4T774 -14Q650 -14 526 30T303 160T146 371T88 655Q88 873 195 1023T469 1244T813 1315Q952 1315 1081 1266Q1141 1247 1171 1247Q1185 1250 1191 1251T1208
1253Q1214 1253 1221 1245L1206 1188Q1185 1113 1169 997Q1151 1000 1145 1009T1139 1040Q1137 1103 1122 1126Q1095 1170 987 1216T770 1262Q626 1262 510 1191T326 981T258 657Q258 486 317 363T466 167T648 63T809 31Q917 31 988 66T1099 151T1178 270Q1193
299 1204 299Q1223 299 1223 281Q1223 268 1204 201Z" />
<glyph unicode="D" glyph-name="D" horiz-adv-x="1473" d="M51 1239L49 1276Q317 1276 500 1298Q568 1307 641 1307Q790 1307 926 1263T1168 1134T1334 930T1395 659Q1395 477 1302 327T1035 91T639 4Q626 4 560 6T483 8Q444 8 414 8T325 6T213 4T139 2L41 4V41Q148
41 170 88Q195 143 195 586Q195 880 188 1024T160 1204Q134 1242 51 1239ZM1221 657Q1221 847 1131 983T901 1190T614 1260Q470 1260 354 1208Q344 1152 339 874T334 395Q334 387 335 320T338 185T340 106Q441 74 495 62T631 49Q838 49 970 138T1162 367T1221 657Z"
/>
<glyph unicode="E" glyph-name="E" horiz-adv-x="1153" d="M1075 293H1106Q1090 189 1071 121T1022 -10Q989 -7 932 -6T772 -4Q710 -4 639 -2T578 0Q513 0 427 -1T218 -7T39 -14L41 20Q72 27 104 35T147 54T164 78T174 131Q180 169 185 268T194 492T197 647L190
965Q187 1113 179 1165T146 1234T55 1264Q55 1280 57 1290H698Q806 1290 1024 1298Q1019 1212 1006 1126T973 1040Q948 1040 948 1055Q948 1061 952 1093T956 1130Q956 1203 869 1223T659 1243Q512 1243 352 1223Q334 1057 334 944Q334 870 335 774T336 684Q360
682 483 682Q695 682 774 690Q819 695 834 702T864 737T895 825L924 823Q924 719 924 637T922 449H887Q884 541 860 577T765 623T516 633Q401 633 336 623L332 481Q325 221 350 80Q368 75 393 69T440 60T505 53T610 49Q767 49 856 72T993 146T1075 293Z" />
<glyph unicode="F" glyph-name="F" horiz-adv-x="1044" d="M25 1260V1290L154 1292Q172 1292 336 1288Q418 1286 469 1284T528 1282Q808 1282 983 1296Q978 1240 977 1166T977 1044H936Q931 1123 911 1160T815 1217T569 1237Q397 1237 342 1223Q334 1114 334 856V698Q454
688 561 688Q700 688 759 698T831 732T844 815Q866 815 883 819Q887 753 887 698Q887 594 883 489H842Q842 590 825 600Q803 616 717 629T514 643Q395 643 336 637Q332 449 332 299Q332 203 336 163T360 97T418 62T547 39V0Q418 6 330 6H231Q151 6 47 -2L49 31Q114
42 137 62T168 119Q190 238 190 666Q190 723 190 778T188 928T180 1096T164 1196Q152 1230 120 1241T25 1260Z" />
<glyph unicode="G" glyph-name="G" horiz-adv-x="1386" d="M1360 635V598Q1321 585 1311 579T1292 551Q1287 538 1286 516T1283 450T1282 285Q1282 196 1286 158T1298 106T1327 74L1317 51Q1301 50 1178 25Q1096 10 1021 1T901 -11T795 -14Q610 -14 473 43T247
197T117 409T76 641Q76 794 138 920T309 1133T555 1263T838 1307Q893 1307 943 1300T1032 1285T1081 1272Q1124 1253 1137 1253Q1190 1298 1198 1298Q1212 1298 1212 1260Q1212 1231 1225 1136T1239 1006Q1239 991 1227 991Q1218 991 1216 994T1206 1014Q1169 1100
1068 1175T791 1251Q625 1251 497 1168T301 948T233 666Q233 563 271 455T388 250T579 96T827 39Q941 39 1020 71T1124 133Q1135 147 1138 177T1141 332Q1141 454 1132 502T1086 566T958 582Q919 582 895 578L899 621Q1037 622 1155 624T1360 635Z" />
<glyph unicode="H" glyph-name="H" horiz-adv-x="1579" d="M45 -12L31 25Q137 37 160 68Q177 92 187 289T197 631L199 961Q199 1096 190 1155T150 1233T55 1255L57 1288Q115 1298 158 1298Q172 1298 262 1294Q330 1288 369 1288L514 1290Q514 1272 516 1255L463
1247Q413 1240 395 1230T369 1190T350 1065Q340 975 340 852Q340 750 342 692H815Q1086 692 1150 693T1243 700L1245 911Q1245 1083 1242 1126T1227 1194Q1216 1226 1191 1237T1085 1266L1090 1303Q1136 1297 1182 1292Q1241 1286 1313 1286Q1331 1286 1417 1290Q1507
1294 1518 1294L1522 1266Q1508 1262 1503 1260Q1462 1250 1441 1234T1411 1184T1398 1105T1391 891L1382 430Q1377 240 1386 157T1424 49T1524 16L1522 -14Q1483 -5 1425 -2Q1393 0 1341 0Q1323 0 1221 -4Q1140 -10 1096 -10L1092 25Q1160 33 1188 52T1225 113T1237
258L1243 485L1241 616L1130 621L559 625L342 623Q336 506 336 274Q336 129 348 94Q353 75 365 62T407 39T496 16L494 -16Q473 -15 421 -11T319 -5T231 -2Q168 -2 45 -12Z" />
<glyph unicode="I" glyph-name="I" horiz-adv-x="641" d="M41 1253V1296Q154 1290 182 1288Q284 1284 319 1284Q331 1284 423 1288T596 1296V1249Q508 1249 476 1240T428 1202Q395 1139 395 721Q395 433 395 357T399 193Q401 123 410 94T459 51T588 35L584 -4Q570
-4 529 -3T443 0T374 1T319 2Q275 2 246 2T167 0T79 -2T31 -4L29 33Q137 39 175 58T227 119Q247 173 252 323T258 641Q258 792 248 1075Q245 1153 233 1186T177 1236T41 1253Z" />
<glyph unicode="J" glyph-name="J" horiz-adv-x="641" d="M35 1253L29 1292Q51 1292 178 1286T328 1280Q396 1280 594 1292L596 1253Q504 1247 467 1230T419 1164T406 993Q403 937 403 855T401 700V547Q401 508 403 301T406 -12Q406 -86 401 -145Q314 -269 219
-367T29 -465Q7 -465 -15 -450T-37 -422Q-37 -404 13 -374T84 -344Q90 -344 141 -362Q266 -362 266 178V575Q266 825 261 966T243 1155T203 1223Q175 1244 125 1250T35 1253Z" />
<glyph unicode="K" glyph-name="K" horiz-adv-x="1280" d="M57 1257L55 1292Q219 1284 293 1284Q366 1284 412 1288T500 1298V1266Q383 1252 360 1210Q351 1191 344 1103T334 911T330 758V639Q365 670 453 758L698 999Q803 1104 831 1141Q854 1167 854 1200Q854
1246 756 1251L754 1288L920 1286Q1021 1283 1133 1296L1135 1257Q1052 1248 921 1138T678 915L539 780Q480 724 442 684L813 375Q1056 175 1133 115T1270 20L1272 -12Q1262 -11 1248 -9T1210 -4Q1162 0 1116 0Q1032 0 897 -12L895 16Q903 19 911 21T938 27Q979
34 979 49Q979 80 756 256L571 406Q538 432 517 449T451 500T358 569Q345 579 332 588Q330 498 334 308T348 88Q363 56 419 35T502 14V-16Q466 -10 371 -6Q319 -4 213 -4Q125 -4 47 -8V27Q107 32 134 46T170 102Q179 138 186 247T196 489T199 645Q199 885 193 1004Q193
1091 189 1138T172 1208T134 1241T57 1257Z" />
<glyph unicode="L" glyph-name="L" horiz-adv-x="1153" d="M96 1251V1286Q222 1285 261 1284T326 1282Q494 1282 547 1286L545 1247Q476 1241 442 1231T393 1186Q384 1164 380 1076T373 850Q369 695 367 569T365 319Q365 206 371 152T391 84Q408 71 447 65T616
59Q758 59 853 82T997 131Q1061 170 1085 264L1118 260Q1112 219 1091 137T1042 -12Q956 -2 905 -2Q874 -1 848 -1T786 0H84L82 31Q141 43 168 57T208 105T225 209T229 408L231 848Q233 997 231 1074T217 1188T179 1237T96 1251Z" />
<glyph unicode="M" glyph-name="M" horiz-adv-x="1792" d="M43 1260L47 1298Q66 1298 84 1297T147 1294Q199 1290 244 1287T336 1284Q355 1285 372 1285T422 1286Q455 1197 481 1136T587 923T739 633T924 287Q969 362 1071 559Q1090 595 1210 821T1380 1140T1454
1288Q1532 1286 1624 1286Q1700 1286 1745 1288L1743 1251Q1666 1242 1634 1231T1585 1190T1564 1106T1561 913L1567 635Q1568 611 1568 588T1570 530T1574 441T1579 305Q1584 211 1590 164T1616 91T1665 56T1757 45V8L1585 10L1452 8Q1342 8 1262 -2L1260 35Q1344
55 1380 78T1432 161T1448 340Q1448 416 1446 463L1438 733Q1432 907 1411 1053Q1381 995 1319 879T1204 664T1102 471T1022 311Q958 171 938 122T897 10L866 8Q841 87 806 181T707 397Q578 643 362 1059Q345 889 329 662T313 182Q313 104 345 73T498 29L496 -4Q430
4 354 4L233 2Q212 2 195 2T144 0T79 -2T33 -4L35 25Q131 42 171 74T223 168T246 387L276 909Q281 981 281 1006Q281 1108 255 1161T179 1233T43 1260Z" />
<glyph unicode="N" glyph-name="N" horiz-adv-x="1579" d="M33 1255V1296Q123 1290 148 1289T207 1288L293 1290Q353 1214 434 1129T615 947T729 836L1319 276Q1327 401 1327 655V848Q1327 1002 1320 1080T1291 1195T1236 1244T1122 1270L1133 1298Q1147 1300
1182 1300Q1213 1300 1244 1299T1317 1294Q1342 1292 1369 1292Q1396 1292 1413 1292L1540 1294L1542 1260Q1482 1251 1456 1232T1419 1169Q1401 1087 1394 848T1386 393Q1386 308 1387 230T1391 90T1397 -25L1356 -23Q1287 126 940 449L565 799Q546 813 473 882T287
1055L274 442Q269 253 282 178T339 78T506 29Q506 8 502 -8Q486 -8 406 -4Q324 0 307 0Q291 0 197 -4Q181 -5 154 -7T84 -12Q70 -12 64 -7T57 12Q57 27 62 30T84 35Q128 40 147 51T179 93T196 191T203 365L209 842Q211 999 204 1075T159 1198T33 1255Z" />
<glyph unicode="O" glyph-name="O" horiz-adv-x="1516" d="M84 645Q84 827 180 981T437 1225T776 1315Q898 1315 1017 1267T1230 1133T1380 921T1436 649Q1436 470 1347 315T1100 67T741 -25Q588 -25 465 35T256 197T127 415T84 645ZM233 721Q233 546 315 390T535
141T827 47Q941 47 1045 103T1217 278T1284 569Q1284 707 1240 831T1116 1048T932 1193T713 1245Q587 1245 477 1183T300 1000T233 721Z" />
<glyph unicode="P" glyph-name="P" horiz-adv-x="1087" d="M55 -14V16Q131 38 154 49T182 84Q197 141 197 547Q197 610 197 684T195 798T190 924Q188 982 183 1068T174 1178T160 1217Q146 1238 118 1246T37 1260Q35 1281 37 1300Q117 1294 225 1294Q256 1294 334
1298L397 1303Q420 1305 461 1305Q602 1305 708 1266T885 1163T991 1025T1026 881Q1026 773 960 678T765 524T461 465Q394 465 332 475Q333 397 334 293T336 166Q339 106 351 80T400 43T526 27L524 -18Q486 -11 422 -8Q344 -4 315 -4Q205 -4 143 -14L92 -20Q72
-20 55 -14ZM342 1235Q342 1226 340 1131T336 974T332 840T330 756Q330 659 332 543Q419 520 494 520Q577 520 661 552T804 663T862 870Q862 969 820 1056T689 1198T479 1253Q416 1253 342 1235Z" />
<glyph unicode="Q" glyph-name="Q" horiz-adv-x="1516" d="M1628 -203L1640 -227Q1580 -256 1509 -266T1391 -276Q1073 -276 776 -25Q675 -23 618 -14T481 29Q350 86 262 188T129 411T84 649Q84 822 178 977T431 1223T776 1315Q896 1315 1015 1268T1229 1134T1379
923T1436 649Q1436 509 1381 383T1223 158Q1174 110 1125 82T993 18Q1324 -213 1544 -213Q1576 -213 1628 -203ZM233 721Q233 588 280 467T411 250T603 101T827 47Q940 47 1044 104T1216 278T1284 569Q1284 710 1239 833T1115 1049T932 1193T713 1245Q587 1245
477 1183T300 1000T233 721Z" />
<glyph unicode="R" glyph-name="R" horiz-adv-x="1366" d="M647 446L532 610Q400 610 313 623L311 383Q311 307 315 213T336 80Q344 56 363 46T451 18Q473 13 473 2Q473 -20 459 -20Q443 -20 375 -10Q289 -2 270 -2Q173 -2 70 -16Q63 -16 53 -18Q33 -18 33 0Q33
10 40 15T74 27Q119 39 139 63T168 159T178 389V831Q180 993 177 1069T160 1180T120 1228T35 1247L39 1280Q92 1278 174 1278Q198 1278 348 1290T539 1303Q644 1303 728 1274T868 1197T954 1088T983 961Q983 894 953 831T862 717T705 629L750 561Q844 419 906 332T1039
163T1185 32T1331 -25Q1350 -28 1350 -45Q1350 -54 1341 -58T1298 -63Q1201 -63 1111 -21T940 94T796 245T647 446ZM319 680Q386 664 481 664Q529 664 582 671T692 702T790 783T831 936Q831 1004 796 1078T686 1206T506 1260Q462 1260 407 1249T342 1212Q319 1163
319 680Z" />
<glyph unicode="S" glyph-name="S" horiz-adv-x="961" d="M127 -4L86 -2Q88 137 31 332Q55 339 63 340Q87 265 100 232T135 173T195 127Q260 93 345 66T528 39Q613 39 698 81T784 266Q784 338 759 390T694 474T600 531T461 588Q343 631 267 676T145 787T100 948Q100
1099 211 1199T528 1300Q633 1300 735 1278Q776 1270 786 1270Q816 1270 846 1290L854 1294Q862 1294 874 1290Q871 1267 869 1245T864 1195T860 1153T858 1133Q871 1012 870 1001L840 999Q832 1101 773 1159T640 1239T498 1260Q332 1260 279 1174T225 1010Q225
929 265 876T364 792T532 719Q654 671 728 631T860 514T918 324Q918 228 868 151T718 29T473 -16Q332 -16 180 25Q153 31 147 31Q121 31 127 -4Z" />
<glyph unicode="T" glyph-name="T" horiz-adv-x="1366" d="M59 1075L25 1083Q72 1208 109 1321Q133 1299 145 1293T188 1282Q252 1274 479 1274H985Q1004 1274 1107 1276T1225 1278Q1267 1278 1281 1283T1311 1307Q1320 1293 1337 1282Q1302 1187 1282 1077L1239
1071Q1244 1104 1247 1161Q1219 1185 1157 1199T958 1214Q858 1214 826 1213T786 1205T776 1176L770 1042Q770 1010 764 866Q763 830 762 670T760 391Q760 241 763 181T780 88T822 46T920 27Q965 23 965 14Q965 -6 963 -10Q948 -12 924 -12Q863 -8 817 -6Q750 0
709 0Q612 0 496 -18Q432 -29 426 -29Q411 -29 405 -22T391 4Q404 8 453 20Q523 36 553 49T592 81T600 141Q600 190 608 254Q608 248 610 373T613 550T614 676Q614 890 613 982T606 1124T590 1204Q504 1212 401 1212Q293 1212 234 1205T142 1182T96 1146T59 1075Z"
/>
<glyph unicode="U" glyph-name="U" horiz-adv-x="1473" d="M43 1245L47 1282Q94 1280 190 1280Q360 1280 524 1288L535 1255Q442 1244 410 1228T362 1184Q332 1128 332 715Q332 573 336 465T352 297Q385 146 513 97T752 47Q815 47 903 65T1070 130T1176 258Q1231
418 1231 887Q1231 1027 1223 1097T1195 1199T1147 1238T1055 1245L1051 1280Q1096 1286 1151 1286Q1366 1286 1440 1284V1243Q1371 1240 1346 1228T1315 1185T1307 1053Q1304 864 1298 718T1283 477T1258 308T1217 188Q1171 103 1074 56T878 -5T698 -20Q563 -20
449 20T263 155T190 397Q190 433 192 594T195 834Q195 1111 168 1202Q161 1225 145 1230T43 1245Z" />
<glyph unicode="V" glyph-name="V" horiz-adv-x="1473" d="M20 1264L25 1300L106 1298L270 1292Q293 1293 312 1293T369 1294L469 1292L471 1260Q383 1254 363 1248T342 1223Q342 1196 383 1092T485 853T573 657L713 356L741 299Q769 241 782 213Q816 273 863
368T951 553T997 651L1128 938Q1157 1001 1185 1075T1214 1182Q1214 1248 1104 1257L1110 1298Q1225 1288 1346 1288Q1378 1289 1403 1289T1466 1290V1262Q1400 1240 1367 1215T1301 1133T1188 915L963 467Q899 343 837 195T764 -25L733 -29Q710 37 682 96L614
246Q583 326 530 436L362 791Q176 1178 139 1219Q116 1245 90 1253T20 1264Z" />
<glyph unicode="W" glyph-name="W" horiz-adv-x="2005" d="M31 1245L29 1286L123 1282Q257 1278 293 1278Q408 1278 467 1282H539L543 1243Q484 1239 432 1219T379 1163Q379 1125 455 907T619 461T713 223L754 330Q760 342 786 406T827 504L1001 893Q925 1069
903 1119T868 1184Q831 1235 756 1239L752 1280Q820 1276 891 1276Q1073 1276 1219 1286L1221 1251Q1150 1243 1116 1229T1075 1201T1067 1165Q1067 1131 1130 941T1281 517T1397 219Q1471 402 1543 602T1658 941T1700 1122Q1700 1203 1644 1224T1507 1249L1499
1282H1606Q1740 1279 1905 1284L1985 1286L1982 1251Q1920 1245 1880 1218T1804 1127T1724 940L1526 389Q1476 254 1466 231Q1446 181 1433 143T1403 55T1364 -61L1333 -59Q1305 25 1277 113T1228 264T1196 356L1028 817Q1014 787 992 739T958 668L852 428Q812
339 785 264T727 98T674 -61H647L530 276Q505 353 467 466T377 726T282 984T213 1141Q177 1209 134 1227T31 1245Z" />
<glyph unicode="X" glyph-name="X" horiz-adv-x="1386" d="M37 1266L39 1300Q140 1288 293 1288Q420 1288 492 1294L498 1255Q393 1255 393 1219Q393 1200 419 1158T480 1069T549 977L729 750Q889 962 946 1049T1004 1186Q1004 1230 970 1245T870 1264L874 1298Q889
1298 983 1294Q1077 1290 1096 1290H1303V1257Q1252 1252 1218 1239T1152 1198T1078 1119T963 977L885 874L817 782Q807 769 788 742T762 709L1098 262Q1179 153 1217 110T1282 53T1370 29L1374 -8Q1338 -4 1284 -4Q1206 0 1149 0Q1054 0 903 -8L897 29Q959 40
990 52T1022 88Q1022 113 1002 153T961 223Q827 408 784 463L676 600Q617 534 414 258Q374 202 355 168T336 109Q336 69 375 52T475 27V-8Q409 -4 315 -4L250 -2Q245 -2 188 -3T73 -6T10 -8L12 23Q92 35 153 74T276 184T453 403L571 555Q576 559 595 584T626 626T641
647L547 764Q404 949 325 1045T198 1188T118 1247T37 1266Z" />
<glyph unicode="Y" glyph-name="Y" horiz-adv-x="1366" d="M18 1249L12 1284H111Q184 1281 218 1280T258 1278Q286 1278 333 1280T446 1284L494 1282L489 1243Q419 1237 394 1231T369 1204Q369 1182 443 1075T615 840T754 664Q784 705 844 793L920 907Q960 965
1009 1053T1059 1178Q1059 1250 924 1243L928 1282L1012 1278Q1022 1278 1078 1276T1143 1274Q1158 1274 1241 1276T1339 1278L1337 1237Q1271 1234 1230 1215T1136 1131T991 928L881 762L776 598L780 274Q780 154 783 115T800 62T852 39Q886 32 958 12L956 -14Q964
-14 881 -8L819 -4Q779 0 754 0H711Q696 0 590 -8Q505 -18 467 -18V14Q571 18 606 55Q622 69 628 93T636 200T639 465Q639 565 637 588L555 709Q494 796 439 870T350 983Q243 1118 197 1167T118 1231T18 1249Z" />
<glyph unicode="Z" glyph-name="Z" horiz-adv-x="1260" d="M840 0H324Q166 0 8 -12Q9 -6 9 -1T10 12Q140 146 272 297T510 580T745 888T979 1217Q906 1221 809 1223T596 1225Q376 1225 279 1213T133 1162T43 1036L14 1051Q27 1090 36 1127T50 1184T57 1212L78
1309Q81 1321 84 1327T94 1333Q101 1333 109 1323Q128 1291 180 1286Q211 1281 245 1280T323 1277T469 1276Q844 1276 1214 1286V1268Q1141 1171 1098 1116T992 983T895 862T850 807L627 524Q612 508 549 424Q523 394 490 353T418 262T341 165T260 66Q355 47 524
47Q766 47 873 61T1075 113Q1140 139 1171 171T1227 272L1257 254Q1240 213 1197 106T1139 -35Q1126 -35 1120 -33Q1118 -15 1074 -8T840 0Z" />
<glyph unicode="[" glyph-name="bracketleft" horiz-adv-x="641" d="M152 -553V1358H578V1300H209V-492H578V-553H152Z" />
<glyph unicode="\" glyph-name="backslash" horiz-adv-x="1087" d="M154 1520L1028 -297H936L59 1520H154Z" />
<glyph unicode="]" glyph-name="bracketright" horiz-adv-x="641" d="M487 1358V-553H61V-496H430V1296H61V1358H487Z" />
<glyph unicode="^" glyph-name="asciicircum" horiz-adv-x="1024" d="M500 1313H530L985 549H887L514 1174L139 549H39L500 1313Z" />
<glyph unicode="_" glyph-name="underscore" horiz-adv-x="1024" d="M-12 -154H1036V-256H-12V-154Z" />
<glyph unicode="`" glyph-name="grave" horiz-adv-x="682" d="M330 1245L526 889H479L190 1245H330Z" />
<glyph unicode="a" glyph-name="a" horiz-adv-x="768" d="M246 590L123 535Q115 567 115 582Q115 633 177 676T318 747T428 774Q455 774 495 750T559 702Q580 682 591 663T612 601T621 494Q621 475 616 360L612 285Q608 231 608 199Q608 158 619 111Q629 63 664
63Q703 63 768 92V51L621 -8Q577 -23 571 -23Q548 -23 526 7T489 80Q304 -23 205 -23Q144 -23 113 12T82 119Q82 187 98 220T152 272Q227 310 311 328T487 360L492 483V516Q492 601 444 650T330 700Q299 700 268 683T236 633Q236 617 246 590ZM483 117Q480 150
489 305Q357 314 277 273T197 170Q197 125 221 85T289 45Q337 45 483 117Z" />
<glyph unicode="b" glyph-name="b" horiz-adv-x="961" d="M274 967L268 682Q362 730 424 750T547 770Q633 770 712 726T839 601T887 420Q887 288 811 191T626 45T418 -4Q367 -4 281 23Q229 37 211 37Q192 37 177 31T143 10L127 2L115 10L129 66Q154 206 154 735Q154
909 150 1059Q148 1164 131 1196T53 1229Q44 1229 36 1229T26 1232T23 1241Q236 1351 248 1360Q269 1378 279 1378Q295 1378 295 1358Q288 1254 285 1239Q275 1020 274 967ZM266 385V238Q268 186 271 169T291 137Q394 61 502 61Q576 61 634 97T726 199T760 348Q760
407 743 468T690 583T601 670T477 705Q385 705 272 637Q272 644 268 538T266 385Z" />
<glyph unicode="c" glyph-name="c" horiz-adv-x="768" d="M717 125L731 96Q598 -14 457 -14Q376 -14 290 19T154 106Q123 143 106 209T88 338Q88 463 155 565T319 725T502 782Q553 782 644 754T735 700Q735 690 707 648T662 606Q654 606 640 614T590 641Q481 686
410 686Q309 686 258 620T207 422Q207 301 260 218T387 97T524 59Q576 59 620 77T717 125Z" />
<glyph unicode="d" glyph-name="d" horiz-adv-x="981" d="M713 952V1092Q706 1159 701 1184T684 1218T647 1227Q620 1227 580 1217L578 1247Q762 1323 842 1380L866 1370Q855 1322 847 1203T831 918L827 819L819 416V319Q819 176 828 105T856 33Q867 33 902 43T977
66V29Q742 -53 723 -53Q708 -53 700 -13T692 109Q584 52 520 28T385 4Q311 4 240 42T124 155T78 326Q78 459 137 548T274 683T422 748T514 768Q545 768 593 760T707 735Q713 846 713 952ZM692 258L698 600Q698 623 664 641T588 670T496 687T438 694Q374 694 317
661T225 569T190 440Q190 330 230 250T338 128T489 86Q547 86 594 106T692 158Q691 165 691 197T692 258Z" />
<glyph unicode="e" glyph-name="e" horiz-adv-x="748" d="M707 520L207 412Q212 318 225 267T279 162Q356 61 465 61Q510 61 561 78T674 139L692 115Q518 -10 383 -10Q240 -10 160 98T80 346Q80 489 141 583T278 721T393 764Q438 764 486 750T581 694T659 582Q668
567 676 562T705 557L707 520ZM209 451L340 479Q348 483 400 495T471 510Q523 522 537 527T551 543Q551 559 527 597T459 668T354 700Q279 700 248 621T209 451Z" />
<glyph unicode="f" glyph-name="f" horiz-adv-x="618" d="M70 692V752L203 754Q204 928 233 1030T317 1196Q361 1247 427 1289T558 1355T666 1378Q724 1378 781 1358T838 1309Q838 1293 816 1261T774 1229L694 1257Q610 1288 561 1288Q482 1288 434 1242T361 1079T332
754H604V690L332 688L328 403Q328 231 331 150T348 55Q357 48 378 46T500 41V2Q441 4 300 5T63 6V39Q116 42 142 52T181 89T197 165T201 305L203 639Q203 675 195 680Q176 692 70 692Z" />
<glyph unicode="g" glyph-name="g" horiz-adv-x="854" d="M342 131Q285 145 227 173T121 263T74 432Q74 528 125 608T259 734T428 780Q481 780 527 766T612 721Q684 735 764 735Q817 735 836 731Q833 677 809 623Q741 651 666 651Q679 633 692 603T713 537T721
469Q721 377 680 313T579 211T424 127Q248 49 248 14Q248 -47 395 -47Q517 -47 585 -51T705 -72T786 -129T815 -242Q815 -339 740 -413T547 -528T311 -569Q159 -569 100 -503T41 -362Q41 -278 92 -227T223 -129Q117 -71 119 25Q166 61 276 102L342 131ZM449 184Q521
222 561 268T602 418Q602 477 585 531T538 628T465 695T367 721Q285 721 230 659T174 500Q174 365 255 297T449 184ZM279 -152Q217 -171 167 -215T117 -317Q117 -383 194 -436T393 -489Q462 -489 543 -469T681 -403T739 -293Q739 -248 708 -208Q676 -169 612 -164Q598
-162 511 -163T406 -164Q317 -164 279 -152Z" />
<glyph unicode="h" glyph-name="h" horiz-adv-x="961" d="M37 1217V1255Q59 1266 66 1270L260 1364L293 1382L326 1366Q307 1276 299 1159T287 860L281 657Q399 708 472 732T614 756Q710 756 754 698T808 555T819 332Q819 305 819 282T817 218T815 142T813 102Q813
59 834 45T950 31L948 0H883Q868 0 760 -1T648 -2Q645 -2 604 -12Q594 -12 594 2Q594 12 610 16Q648 25 666 48T691 126T698 307Q698 506 666 591T520 676Q461 676 390 654T285 614Q285 586 281 520L272 279Q272 256 272 237T270 195Q270 98 283 70Q288 53 307
47T408 33V-2Q375 2 268 2Q157 2 29 -8L31 25Q95 38 115 50T143 98T154 229Q157 386 162 498L166 778Q168 821 168 969Q168 1104 157 1168T100 1233Q93 1233 37 1217Z" />
<glyph unicode="i" glyph-name="i" horiz-adv-x="492" d="M66 -4L70 27Q155 35 166 57Q171 66 175 128T181 277T184 375Q184 517 180 557T162 612Q158 617 112 622T66 635Q66 651 84 655Q203 692 317 786Q324 786 336 782Q326 741 319 662T308 496T303 342Q303
292 306 199T319 72Q327 54 339 49T387 41Q422 40 457 35L469 6L66 -4ZM217 1192Q217 1226 240 1248T295 1270Q327 1270 349 1247T371 1192Q371 1160 350 1137T295 1114Q263 1114 240 1137T217 1192Z" />
<glyph unicode="j" glyph-name="j" horiz-adv-x="469" d="M53 627L39 657Q207 724 322 821Q332 811 338 807Q313 729 313 569V256L317 -88Q319 -187 311 -237T265 -335T137 -457Q95 -491 84 -512T66 -573L61 -575L31 -547Q32 -500 51 -464T106 -379Q151 -319 170
-268T193 -149T197 76Q197 227 193 365T178 555Q169 595 155 616T106 637Q96 637 53 627ZM193 1180Q193 1220 219 1244T279 1268Q299 1268 317 1259T346 1231T356 1194Q356 1163 329 1137T266 1110Q234 1110 214 1129T193 1180Z" />
<glyph unicode="k" glyph-name="k" horiz-adv-x="938" d="M27 -2V31Q74 36 97 45T130 72T145 125Q152 202 155 352T160 652T162 889Q162 1112 143 1182Q129 1225 96 1225Q80 1225 61 1218T31 1206L33 1239Q41 1244 57 1252T85 1266T116 1281T154 1298Q217 1325
246 1340T289 1376H319Q308 1340 299 1242T285 989T278 724T276 588L274 451Q294 458 363 504T486 599T539 680Q539 705 521 714T465 727V756L557 754Q586 752 690 752Q741 752 856 754L852 717Q789 711 734 687T575 594L403 479Q435 446 664 225Q782 107 833 74T930
33V-2Q916 0 901 1T874 3T821 4H743Q635 4 567 -2V33Q578 36 600 39T636 45T649 55Q649 65 617 103T565 162Q483 245 416 309L350 369Q343 377 321 395T291 414Q274 414 274 379V272Q274 178 275 138T282 78T299 53Q323 43 395 33L393 -2Q341 6 266 6Q155 6 27
-2Z" />
<glyph unicode="l" glyph-name="l" horiz-adv-x="492" d="M27 -4V27Q102 40 133 72T172 170Q177 204 183 326T194 607T199 891Q199 1155 172 1192Q155 1217 104 1217Q92 1217 85 1216T72 1214T59 1212V1243Q250 1323 328 1378H358Q327 1260 319 950L311 469Q311
131 326 86Q335 60 386 47T477 29V-8Q281 6 213 6Q122 6 27 -4Z" />
<glyph unicode="m" glyph-name="m" horiz-adv-x="1450" d="M29 -2L31 29Q91 43 118 64T157 153T170 360Q170 495 157 552T117 623T29 639V672Q136 697 248 764Q260 772 268 772Q288 772 292 720T293 629Q314 641 367 669T451 712T530 742T614 758Q666 758 716
729T786 631Q971 729 1106 729Q1202 729 1246 686T1299 576T1309 381V203Q1306 126 1307 98T1316 61T1348 49Q1356 48 1403 38T1458 27L1444 0H1065L1059 27Q1121 43 1144 62T1176 143T1186 360Q1186 452 1171 516T1115 614T1004 649Q914 649 795 594Q800 552 802
450T806 239T809 98Q811 71 818 61T844 45T928 31V0H803Q786 0 677 -4T547 -8L541 23Q607 36 636 57T674 133T682 319L680 416Q678 539 643 603T526 668Q487 668 444 654T362 621T295 586Q294 569 293 500T291 385V283Q293 104 297 88Q301 70 326 56T434 29V-6Q422
-6 348 -2T260 2L29 -2Z" />
<glyph unicode="n" glyph-name="n" horiz-adv-x="961" d="M37 14L35 43Q89 53 114 64T147 89T158 127Q166 182 169 262T172 424Q172 538 165 579T133 632T41 651Q41 664 39 670Q82 681 153 712T229 748Q267 768 274 768Q289 768 293 739T297 643Q407 705 478 731T614
758Q711 758 755 716T810 613T821 453V215Q821 74 834 61Q841 54 885 44T936 31L938 0Q863 12 764 12Q680 12 563 0V29Q654 47 676 86Q691 119 696 225T702 391Q702 479 695 535T653 632T547 672Q515 672 450 659T297 600L291 334Q289 164 295 109Q297 85 304 73T338
52T426 35L424 4Q402 6 361 9T256 14H37Z" />
<glyph unicode="o" glyph-name="o" horiz-adv-x="961" d="M78 375Q78 463 110 534T200 658T333 738T496 766Q575 766 645 737T769 657T852 537T883 387Q883 283 834 192T694 46T485 -10Q396 -10 302 29T143 154T78 375ZM209 430Q209 337 246 245T349 94T496 35Q566
35 623 73T714 183T748 344Q748 435 709 521T600 662T446 717Q378 717 324 680T240 577T209 430Z" />
<glyph unicode="p" glyph-name="p" horiz-adv-x="981" d="M31 625L23 653Q71 682 90 690Q104 690 177 732T279 809Q287 785 301 668L387 702Q521 758 590 758Q665 758 739 709T860 577T907 399Q907 278 852 198T717 74T562 13T449 -4Q387 -4 301 25Q301 7 299
-88T297 -199V-381Q297 -445 302 -472T320 -506T367 -516L440 -520Q465 -520 465 -539Q465 -551 458 -554T422 -557Q298 -557 267 -558T63 -571Q63 -553 61 -541Q112 -537 129 -527T156 -492Q172 -448 177 -316T182 -39L184 86Q184 230 182 383T174 571Q169 591
159 609T134 639T104 651Q93 651 31 625ZM299 627L297 121L389 90Q494 55 535 55Q584 55 644 79T749 162T795 313Q795 415 748 501T631 637T498 686Q466 686 299 627Z" />
<glyph unicode="q" glyph-name="q" horiz-adv-x="961" d="M539 -569L535 -535Q595 -529 624 -515T666 -470T682 -379T686 -186V41L573 6Q484 -23 422 -23Q330 -23 251 24T124 153T76 330Q76 452 146 551T326 705T557 760Q638 760 700 731Q740 709 758 709Q768
709 805 741T850 774Q864 774 864 764Q864 756 854 733Q837 687 831 637T820 465T813 150V-188Q814 -263 815 -328T817 -430T822 -486T831 -510Q835 -512 883 -518T954 -528V-561Q922 -559 856 -559Q826 -559 686 -563Q578 -569 539 -569ZM694 193L698 371Q698
596 690 608Q675 637 606 669T473 702Q400 702 341 661T245 544T209 369Q209 272 250 197T360 81T504 41Q567 41 605 56T690 100Q694 146 694 193Z" />
<glyph unicode="r" glyph-name="r" horiz-adv-x="641" d="M49 -2L51 27Q101 37 120 47T153 94T171 205T176 432Q176 553 163 593T98 633Q67 633 35 625L39 657L297 807Q301 745 301 637L408 698Q416 703 422 707Q433 713 447 721T495 750T549 784L557 780Q563
774 571 770Q601 756 618 738T635 686Q635 647 603 622T526 592Q526 626 510 644T465 662Q435 662 394 641T332 600Q307 578 303 564T297 492Q291 323 291 313Q291 118 311 72Q320 56 331 53T369 49L395 51L514 53L512 12Q507 12 449 10T371 8L49 -2Z" />
<glyph unicode="s" glyph-name="s" horiz-adv-x="662" d="M55 225L90 223Q90 204 122 161T210 84T330 49Q377 49 424 69T471 156Q471 226 422 269Q373 311 311 342L236 377Q170 411 131 449Q92 486 92 545Q92 591 125 641T220 725T362 758Q410 758 522 743L555
573H520Q511 608 479 639T403 693T328 715Q275 715 242 682T209 598Q209 557 233 533Q257 508 324 475L385 446Q468 407 527 355Q586 302 586 209Q586 174 572 135T528 78Q445 25 391 10T281 -6Q261 -6 224 -1T172 7T120 21T72 35Q80 75 80 92Q80 117 72 160T55
225Z" />
<glyph unicode="t" glyph-name="t" horiz-adv-x="598" d="M145 287L150 676Q104 682 43 682Q45 690 45 707Q132 760 181 808T297 944L287 764Q373 756 475 756Q524 756 582 758L580 696Q528 690 473 690Q468 690 434 691T328 696Q309 696 300 693T287 679T282
641T279 582L274 270Q272 180 294 122T403 63Q436 63 484 77T596 121Q598 113 598 109T600 100Q565 62 472 25T303 -12Q238 -12 192 32T145 186V287Z" />
<glyph unicode="u" glyph-name="u" horiz-adv-x="938" d="M20 606V647L242 770L262 778Q276 778 276 760L264 588Q252 384 252 336Q252 223 282 149T422 74Q457 74 494 85T581 120T659 158Q659 233 662 256L668 461Q671 554 662 592T628 642T543 655L541 692L807
754Q802 664 797 583T787 408T782 270Q782 124 801 66Q853 68 913 90V45Q800 14 684 -29Q667 27 657 113Q412 -12 317 -12Q253 -12 189 49Q125 110 131 285L139 510Q141 570 135 601T96 633Q78 633 20 606Z" />
<glyph unicode="v" glyph-name="v" horiz-adv-x="811" d="M412 -47H381Q354 67 298 225T183 520T113 668Q101 678 79 689T41 709V733Q74 731 147 731Q257 731 403 739L399 705Q328 697 310 689T291 664Q291 617 351 436T446 176Q513 283 571 426T629 629Q629 675
600 689T522 705L526 737L596 739Q650 733 690 733Q753 733 805 745V715Q759 696 727 647T680 559Q677 554 663 521T643 477L463 80L412 -47Z" />
<glyph unicode="w" glyph-name="w" horiz-adv-x="1260" d="M377 -37L344 -39Q327 96 209 465Q175 565 154 609T112 670T47 705V729Q74 733 123 733Q243 733 288 735T387 743L381 705Q330 699 312 689T293 655Q293 603 329 485T416 223L428 195Q436 217 438 223Q454
251 489 319T559 464T610 594Q585 658 563 675T485 700L489 733L588 731Q604 731 776 739L840 741L838 709Q737 703 737 655Q737 640 769 525T874 182Q921 272 962 356T1037 523T1071 645Q1071 675 1060 689T1035 707T989 713L991 741Q1049 737 1116 737Q1175 737
1253 741Q1253 723 1251 715Q1216 707 1185 663T1059 436L930 180Q918 163 901 125T862 32T836 -39H805Q802 -20 793 13T776 76L694 352Q691 361 674 414T641 512L440 96Q384 -30 377 -37Z" />
<glyph unicode="x" glyph-name="x" horiz-adv-x="831" d="M33 0L35 37Q74 43 93 54T143 104Q167 131 173 138T231 205L371 362Q322 463 267 555T178 674Q162 687 132 693T53 705L57 741L141 739Q158 739 180 739T231 737Q331 737 401 748L410 709Q380 707 364
701T348 674Q348 642 455 457Q495 497 547 561T600 662Q600 699 502 711L514 743Q545 741 596 737Q623 735 676 735Q729 735 795 743V711Q746 708 682 642T489 416L481 406L590 203Q651 92 689 64T795 31V-4Q749 2 614 2Q489 2 453 -4L446 35Q503 38 514 40T526
55Q484 146 446 221L397 315Q316 234 269 165T221 76Q221 59 240 51T313 37L317 0Q269 5 235 5T170 6Q96 6 33 0Z" />
<glyph unicode="y" glyph-name="y" horiz-adv-x="831" d="M23 698V729Q72 723 160 723Q263 723 365 735L362 698Q321 690 303 680T285 639Q285 591 328 431T430 113L496 231Q539 305 598 437T657 618Q657 688 518 705L532 737Q651 725 739 725Q804 725 838 731L836
698Q809 694 788 678T748 632T707 557L598 332Q596 327 522 184Q415 -26 362 -150T284 -356T227 -573H14V-539Q80 -524 120 -493T192 -407T272 -242L350 -68Q293 147 245 310T154 575Q134 627 114 652T76 684T23 698Z" />
<glyph unicode="z" glyph-name="z" horiz-adv-x="831" d="M41 -12L27 16Q124 110 230 232T423 468T590 690H354Q236 692 163 667T68 575H29Q61 638 75 683T88 772Q117 757 129 753T176 744T246 738T375 737L610 735Q654 736 693 736T805 737Q761 676 735 645L578
457L455 313Q438 296 347 183T248 53Q332 45 440 45Q537 45 599 56T709 107T778 225H809Q799 135 748 -14Q731 -14 727 -10Q671 0 590 0L225 -2Q102 -2 41 -12Z" />
<glyph unicode="{" glyph-name="braceleft" horiz-adv-x="1044" d="M244 344V381Q306 388 359 418T443 493T473 590Q473 615 453 745Q432 875 432 907Q432 1002 479 1085T612 1224T801 1292V1257Q727 1241 674 1206T596 1124T571 1028Q571 1016 576 977T590 882T606
775T614 707Q614 649 595 599T540 505T449 425T326 365V360Q462 315 538 224T614 18Q614 -3 594 -141Q571 -271 571 -303Q571 -381 630 -444T801 -532V-567Q698 -554 613 -499T480 -361T432 -182Q432 -160 452 -28T473 135Q473 186 443 231T360 307T244 344Z" />
<glyph unicode="|" glyph-name="bar" horiz-adv-x="1087" d="M496 -295V1520H592V-295H496Z" />
<glyph unicode="}" glyph-name="braceright" horiz-adv-x="1044" d="M801 381V344Q702 332 637 273T571 135Q571 117 592 -20Q612 -156 612 -182Q612 -276 565 -360T433 -499T244 -567V-532Q357 -508 415 -445T473 -303Q473 -280 452 -141T430 18Q430 93 464 159T563
278T719 360V365Q628 395 563 447T464 565T430 707Q430 734 451 866Q473 1016 473 1028Q473 1106 415 1169T244 1257V1292Q348 1279 433 1224T565 1085T612 907Q612 879 592 748T571 590Q571 512 636 453T801 381Z" />
<glyph unicode="~" glyph-name="asciitilde" horiz-adv-x="1366" d="M160 557H115Q122 687 173 752T276 834T362 850Q407 850 486 828T768 717Q838 686 885 671T956 651T1006 647Q1048 647 1090 664T1164 725T1204 846H1251Q1250 758 1214 692T1120 590T991 555Q948
555 919 561T821 594T594 684Q496 725 445 738T358 752Q200 752 160 557Z" />
</font>
</defs>
</svg>
