<?xml version="1.0" encoding="utf-8"?>
<!-- Generator: Adobe Illustrator 16.0.0, SVG Export Plug-In . SVG Version: 6.00 Build 0)  -->
<!DOCTYPE svg PUBLIC "-//W3C//DTD SVG 1.1//EN" "http://www.w3.org/Graphics/SVG/1.1/DTD/svg11.dtd">
<svg version="1.1" id="Layer_1" xmlns="http://www.w3.org/2000/svg" xmlns:xlink="http://www.w3.org/1999/xlink" x="0px" y="0px"
	 width="16px" height="16px" viewBox="0 0 16 16" enable-background="new 0 0 16 16" xml:space="preserve">
<g>
	<path fill="#757576" d="M8.097,6.034c2.277,1.4,4.499,0.641,4.883,0.493c0.004-0.487-0.03-0.801-0.03-0.801
		s-2.269-2.152-2.993-2.616C7.236,2.982,5.611,3.99,4.631,5.271C5.527,5.161,6.791,5.23,8.097,6.034z"/>
	<path fill="#757576" d="M10.251,2.613c0,0,0.483-3.258,0.875-2.354c0.394,0.903,0.384,1.265,0.676,1.388
		c0.292,0.124,1.1-0.054,1.359,0.306c0.353,0.417,0.034,1.21,0.178,1.375c0.063,0.323,1.33,0.265,1.835,0.387
		c0.782,0.033-0.893,1.004-0.893,1.004l-1.08,0.678l-2.95-2.623L10.251,2.613z"/>
	<path fill="#757576" d="M5.65,13.445c0,0-0.712,3.216-1.039,2.286c-0.329-0.928-0.293-1.29-0.576-1.433
		c-0.282-0.145-1.1-0.025-1.333-0.402c-0.322-0.439,0.051-1.209-0.082-1.384c-0.04-0.325-1.307-0.359-1.802-0.516
		c-0.779-0.088,0.961-0.938,0.961-0.938l1.125-0.6l2.757,2.824L5.65,13.445z"/>
	<g>
		<path fill="#757576" d="M7.702,7.94c2.019,1.239,4.261,0.713,5.059,0.461c0.075-0.324,0.128-0.638,0.161-0.929
			c-0.419,0.126-1.083,0.274-1.896,0.274c-0.984,0-2.177-0.218-3.391-0.964C6.073,5.821,4.598,6.112,4,6.296
			C3.835,6.629,3.712,6.962,3.605,7.291C4.461,7.082,6.051,6.923,7.702,7.94z"/>
		<path fill="#757576" d="M10.633,9.615c-1.032,0-2.234-0.215-3.392-0.925c-1.948-1.202-3.799-0.44-3.904-0.395
			C3.137,9.301,3.16,10.05,3.16,10.05s2.05,2.308,2.877,2.877c3.959,0.181,5.678-1.662,6.413-3.529
			C11.971,9.512,11.345,9.615,10.633,9.615z"/>
	</g>
</g>
</svg>
