<?xml version="1.0" standalone="no"?>
<!DOCTYPE svg PUBLIC "-//W3C//DTD SVG 1.1//EN" "http://www.w3.org/Graphics/SVG/1.1/DTD/svg11.dtd" >
<svg xmlns="http://www.w3.org/2000/svg">
<metadata></metadata>
<defs>
<font id="uvn_tin_tuc_hepbold" horiz-adv-x="1024" >
<font-face units-per-em="2048" ascent="1638" descent="-410" />
<missing-glyph horiz-adv-x="440" />
<glyph horiz-adv-x="2048" />
<glyph horiz-adv-x="2048" />
<glyph unicode="&#xd;" horiz-adv-x="440" />
<glyph unicode=" "  horiz-adv-x="440" />
<glyph unicode="&#x09;" horiz-adv-x="440" />
<glyph unicode="&#xa0;" horiz-adv-x="440" />
<glyph unicode="!" horiz-adv-x="530" d="M166 0v244h233v-244h-233zM166 1499h233l-37 -1057h-161z" />
<glyph unicode="&#x22;" horiz-adv-x="643" d="M86 879v557h164v-557h-164zM395 879v557h164v-557h-164z" />
<glyph unicode="#" horiz-adv-x="1575" d="M70 428l61 172h297l90 252h-315l61 172h316l155 436h191l-154 -436h250l156 436h190l-154 -436h291l-59 -172h-293l-90 -252h309l-61 -172h-307l-156 -434h-191l156 434h-252l-158 -434h-190l156 434h-299zM618 598h256l91 254h-256z" />
<glyph unicode="$" horiz-adv-x="883" d="M39 242l166 123q60 -130 170 -158v463q-152 103 -218 186q-91 116 -91 266q0 149 76 247q80 103 225 120v201h131v-199q175 -16 278 -195l-153 -100q-45 90 -135 98l-1 -426q164 -107 237 -195q103 -125 103 -282q0 -320 -329 -391v-221h-131v221q-219 40 -328 242z M258 1141q0 -109 119 -199v352q-119 -25 -119 -153zM487 205q123 42 123 182q0 130 -123 215v-397z" />
<glyph unicode="%" horiz-adv-x="1626" d="M55 1159q0 141 97.5 237.5t238.5 96.5t238.5 -96.5t97.5 -237.5t-97.5 -239.5t-238.5 -98.5q-140 0 -238 98.5t-98 239.5zM236 1157q0 -65 45 -109t110 -44t110.5 44t45.5 109t-45.5 111.5t-110.5 46.5t-110 -46.5t-45 -111.5zM328 -25l815 1518h147l-817 -1518h-145z M891 313q0 141 97.5 238.5t238.5 97.5t238.5 -97.5t97.5 -238.5t-98 -238.5t-238 -97.5t-238 97.5t-98 238.5zM1071 313q0 -66 45 -110.5t111 -44.5q65 0 110 45t45 110t-45 110.5t-110 45.5t-110.5 -45.5t-45.5 -110.5z" />
<glyph unicode="&#x26;" horiz-adv-x="1087" d="M72 338q0 178 192 418q-108 255 -108 422q0 151 80 243q84 97 233 97q136 0 222.5 -80t86.5 -215q0 -216 -262 -478q78 -178 203 -313q61 92 106 281l172 -43q-44 -215 -139 -383q64 -68 158 -82v-228q-172 22 -283 125q-135 -127 -305 -127q-157 0 -256.5 103t-99.5 260 zM285 371q0 -76 41 -129q45 -56 120 -56q86 0 150 64q-153 161 -229 325q-82 -103 -82 -204zM362 1210q0 -113 66 -274q127 147 127 289q0 131 -92 131q-101 0 -101 -146z" />
<glyph unicode="'" horiz-adv-x="334" d="M86 879v557h164v-557h-164z" />
<glyph unicode="(" horiz-adv-x="594" d="M119 684q0 462 233 842h197q-238 -404 -238 -842q0 -439 238 -844h-197q-233 378 -233 844z" />
<glyph unicode=")" horiz-adv-x="594" d="M43 -160q238 405 238 844q0 438 -238 842h195q235 -384 235 -842t-235 -844h-195z" />
<glyph unicode="*" d="M78 1108l65 195l320 -164l-47 358h192l-47 -358l320 164l65 -195l-354 -61l254 -256l-168 -125l-166 323l-166 -323l-168 125l254 256z" />
<glyph unicode="+" horiz-adv-x="1706" d="M254 528v166h514v527h170v-527h514v-166h-514v-528h-170v528h-514z" />
<glyph unicode="," horiz-adv-x="440" d="M106 0v246h230v-260l-135 -248h-95l80 262h-80z" />
<glyph unicode="-" horiz-adv-x="688" d="M92 451v194h504v-194h-504z" />
<glyph unicode="." horiz-adv-x="440" d="M104 0v244h234v-244h-234z" />
<glyph unicode="/" horiz-adv-x="569" d="M-47 -188l522 1714h143l-524 -1714h-141z" />
<glyph unicode="0" horiz-adv-x="883" d="M72 741q0 425 85 595q88 175 283 175q196 0 285 -176q86 -171 86 -594q0 -422 -86 -592q-89 -176 -285 -176q-195 0 -283 175q-85 169 -85 593zM313 741q0 -338 28 -442q31 -115 99 -115q70 0 101 117q28 108 28 440q0 333 -28 441q-31 116 -101 116q-68 0 -99 -114 q-28 -104 -28 -443z" />
<glyph unicode="1" horiz-adv-x="883" d="M127 0v199h205v977h-205v139q133 49 266 170h166v-1286h195v-199h-627z" />
<glyph unicode="2" horiz-adv-x="883" d="M76 0v219q209 281 305 440q188 309 188 482q0 172 -114 172q-131 0 -131 -258h-232q4 199 81 315q93 139 282 139q160 0 259 -99t99 -259q0 -184 -177 -488q-90 -156 -298 -444h453v-219h-715z" />
<glyph unicode="3" horiz-adv-x="883" d="M84 434h227q0 -256 131 -256q123 0 123 232q0 142 -41 201q-50 73 -184 73v203q117 0 168 58q49 54 49 173q0 191 -119 191q-114 0 -114 -213h-226q4 413 338 413q171 0 261 -115q81 -105 81 -280q0 -227 -174 -332q199 -98 199 -385q0 -187 -89 -299q-98 -123 -280 -123 q-350 0 -350 459z" />
<glyph unicode="4" horiz-adv-x="883" d="M35 354v191l440 940h244v-940h133v-191h-133v-354h-225v354h-459zM233 545h261l12 526q1 41 26 227q-21 -78 -73 -229z" />
<glyph unicode="5" horiz-adv-x="883" d="M78 434h227q0 -256 131 -256q69 0 99 68q28 64 28 264q0 208 -28 270q-30 66 -99 66q-89 0 -123 -119h-213l29 758h616l-6 -195h-411l-11 -332q99 89 195 89q289 0 289 -517q0 -250 -62 -377q-88 -178 -311 -178q-350 0 -350 459z" />
<glyph unicode="6" horiz-adv-x="883" d="M82 752q0 410 88.5 582.5t286.5 172.5q175 0 261 -129q73 -110 73 -293h-220q0 215 -116 215q-72 0 -103 -87q-28 -78 -30 -389q105 91 208 91q155 0 225 -147q52 -109 52 -283q0 -510 -352 -510q-200 0 -287 174q-86 170 -86 603zM324 487q0 -309 131 -309 q112 0 112 289q0 235 -121 235q-47 0 -118 -75q-4 -54 -4 -140z" />
<glyph unicode="7" horiz-adv-x="883" d="M63 1276v209h672v-133l-115 -514h81v-160h-117l-152 -678h-244l160 678h-218v160h256l103 438h-426z" />
<glyph unicode="8" horiz-adv-x="883" d="M78 397q0 288 198 385q-174 106 -174 332q0 172 81 278q90 117 257 117q168 0 257 -117q81 -105 81 -278q0 -227 -174 -332q199 -98 199 -385q0 -185 -87 -297q-96 -125 -276 -125q-179 0 -275 125q-87 112 -87 297zM311 426q0 -248 133 -248q123 0 123 248t-133 248 q-123 0 -123 -248zM324 1106q0 -203 118 -203q117 0 117 201q0 205 -121 205q-114 0 -114 -203z" />
<glyph unicode="9" horiz-adv-x="883" d="M70 997q0 510 352 510q199 0 286 -173q85 -169 85 -603q0 -411 -87 -581q-89 -175 -286 -175q-174 0 -261 130q-73 109 -73 292h219q0 -215 117 -215q70 0 101 86q28 76 30 391q-106 -92 -207 -92q-154 0 -224 147q-52 110 -52 283zM307 1016q0 -236 121 -236 q45 0 119 76q4 54 4 143q0 306 -129 306q-115 0 -115 -289z" />
<glyph unicode=":" horiz-adv-x="487" d="M129 0v244h233v-244h-233zM129 580v239h233v-239h-233z" />
<glyph unicode=";" horiz-adv-x="487" d="M129 0v246h233v-260l-139 -248h-94l80 262h-80zM129 580v239h233v-239h-233z" />
<glyph unicode="&#x3c;" horiz-adv-x="1706" d="M264 530v160l1178 486v-185l-934 -381l934 -381v-182z" />
<glyph unicode="=" horiz-adv-x="1706" d="M254 322v165h1198v-165h-1198zM254 733v168h1198v-168h-1198z" />
<glyph unicode="&#x3e;" horiz-adv-x="1706" d="M264 47v182l934 381l-934 381v185l1178 -486v-160z" />
<glyph unicode="?" horiz-adv-x="707" d="M45 1186q17 154 102 243q92 97 242 97q135 0 219 -72q90 -76 90 -209q0 -57 -55 -196q-9 -23 -69 -113q-118 -176 -146 -311q-16 -73 -16 -187h-195v39q0 168 72 350q10 25 108 205q76 141 76 193q0 108 -98 108q-132 0 -144 -176zM193 0v244h235v-244h-235z" />
<glyph unicode="@" horiz-adv-x="2048" d="M98 522q0 282 150.5 512t408.5 346q206 93 459 93q344 0 578 -179q256 -196 256 -530q0 -254 -155 -445q-165 -206 -413 -206q-208 0 -208 170q-106 -168 -304 -168q-313 0 -313 336q0 233 138 395t333 162q172 0 248 -142l55 107h154l-148 -586q-8 -32 -8 -49 q0 -84 96 -84q50 0 108 31q119 64 189 203q64 129 64 274q0 272 -208 428q-187 141 -468 141q-138 0 -256 -31q-114 -30 -215 -94q-377 -239 -377 -686q0 -327 224 -513q210 -173 544 -173q340 0 615 191l67 -99q-299 -227 -674 -227q-192 0 -351 48q-273 82 -431 287.5 t-158 487.5zM741 444q0 -204 174 -204q96 0 171 73q68 67 92 166l55 228q-29 176 -184 176q-126 0 -217 -128t-91 -311z" />
<glyph unicode="A" horiz-adv-x="889" d="M18 0l273 1497h317l269 -1497h-246l-43 324h-279l-49 -324h-242zM348 557h203l-105 696z" />
<glyph unicode="B" horiz-adv-x="989" d="M127 0v1497h279q184 0 262 -24q131 -41 187 -173q34 -83 34 -186q0 -215 -162 -326q197 -124 197 -362q0 -80 -21 -150q-52 -176 -202 -235q-102 -41 -320 -41h-254zM379 215q22 -2 55 -2q126 0 182 53t56 178q0 230 -226 230q-9 0 -34 -3q-21 -2 -33 -1v-455zM379 889 h33q118 0 173 45q60 50 60 166q0 196 -211 196q-37 0 -55 -2v-405z" />
<glyph unicode="C" horiz-adv-x="969" d="M72 748q0 778 440 778q207 0 310 -160q85 -133 87 -352h-231q-4 291 -166 291q-190 0 -190 -557q0 -560 194 -560q172 0 172 347h230v-21q0 -225 -88 -371q-107 -176 -318 -176q-440 0 -440 781z" />
<glyph unicode="D" horiz-adv-x="1030" d="M127 0v1497h309q152 0 235 -33q283 -113 283 -714q0 -604 -283 -717q-83 -33 -235 -33h-309zM379 219h61q78 0 116.5 13t61.5 44q80 107 80 474q0 366 -80 473q-23 31 -61.5 44t-116.5 13h-61v-1061z" />
<glyph unicode="E" horiz-adv-x="889" d="M127 0v1497h686v-233h-436v-375h334v-236h-334v-417h463v-236h-713z" />
<glyph unicode="F" horiz-adv-x="870" d="M127 0v1497h686v-233h-436v-375h334v-236h-334v-653h-250z" />
<glyph unicode="G" horiz-adv-x="999" d="M72 748q0 778 440 778q199 0 308 -156q93 -132 93 -324v-20q0 -3 -2 -8l2 -4h-235q-6 291 -166 291q-190 0 -190 -557q0 -564 204 -564q153 0 153 279v50q-1 31 -1 42h-166v201h401v-756h-118l-35 82q-85 -115 -248 -115q-440 0 -440 781z" />
<glyph unicode="H" horiz-adv-x="1053" d="M127 0v1497h252v-612h295v612h250v-1497h-250v655h-295v-655h-252z" />
<glyph unicode="I" horiz-adv-x="516" d="M133 0v1497h250v-1497h-250z" />
<glyph unicode="J" horiz-adv-x="606" d="M25 -25v226q16 -2 45 -2q103 0 135 57q22 40 22 154v1087h252v-1090q0 -163 -21 -235q-60 -201 -337 -201q-13 0 -48 3q-31 2 -48 1z" />
<glyph unicode="K" horiz-adv-x="918" d="M129 0v1497h250v-508l270 508h256l-284 -536l319 -961h-260l-225 729l-76 -137v-592h-250z" />
<glyph unicode="L" horiz-adv-x="866" d="M127 0v1497h250v-1261h463v-236h-713z" />
<glyph unicode="M" horiz-adv-x="1319" d="M127 0v1497h332l170 -790q18 -84 35 -334q4 229 28 338l172 786h328v-1497h-231l2 967q0 33 18 321q-27 -157 -59 -313l-199 -975h-129l-199 975q-32 156 -59 313q18 -285 18 -321l2 -967h-229z" />
<glyph unicode="N" horiz-adv-x="1036" d="M127 0v1497h229l291 -799q33 -91 68 -270h8q-33 194 -33 303v766h219v-1497h-209l-311 862q-48 134 -68 264h-8q33 -157 33 -327v-799h-219z" />
<glyph unicode="O" d="M72 748q0 778 440 778t440 -778q0 -781 -440 -781t-440 781zM322 748q0 -558 190 -558t190 558q0 557 -190 557t-190 -557z" />
<glyph unicode="P" horiz-adv-x="1022" d="M127 0v1497h334q252 0 366 -96q123 -105 123 -352q0 -212 -114.5 -322.5t-327.5 -110.5h-129v-616h-252zM379 824q18 -3 63 -3q135 0 195.5 56t60.5 190q0 229 -233 229q-42 0 -86 -6v-466z" />
<glyph unicode="Q" d="M72 748q0 778 440 778q442 0 442 -778q0 -375 -112 -574q46 -72 137 -72v-211h-16q-168 0 -256 136q-87 -60 -195 -60q-440 0 -440 781zM322 748q0 -558 190 -558q51 0 88 35q-23 48 -65 84v228q103 -29 141 -127q26 150 26 338q0 557 -190 557t-190 -557z" />
<glyph unicode="R" horiz-adv-x="1042" d="M127 0v1497h332q146 0 218 -18q139 -37 210 -159q63 -108 63 -263q0 -274 -205 -395l207 -662h-254l-180 622q-69 -6 -139 -6v-616h-252zM379 824q17 -3 57 -3q137 0 197.5 55.5t60.5 190.5q0 229 -241 229q-28 0 -74 -4v-468z" />
<glyph unicode="S" horiz-adv-x="920" d="M66 391l233 35q37 -227 168 -227q67 0 106 40.5t39 108.5q0 118 -267 359q-123 111 -176 195q-71 114 -71 251q0 163 105 265t268 102q317 0 363 -355l-228 -35q-26 183 -143 183q-62 0 -98 -45q-33 -41 -33 -105q0 -59 33 -115q29 -51 145 -159q157 -147 224 -235 q118 -155 118 -294q0 -170 -107.5 -277.5t-277.5 -107.5q-180 0 -286 121q-95 109 -115 295z" />
<glyph unicode="T" horiz-adv-x="807" d="M29 1270v227h747v-227h-248v-1270h-252v1270h-247z" />
<glyph unicode="U" horiz-adv-x="1036" d="M125 467v1030h256v-1075q0 -102 18 -147q30 -74 115 -74q90 0 120 79q19 48 19 156v1061h256v-1030q0 -235 -77 -353q-94 -145 -316 -145q-221 0 -315 145q-76 118 -76 353z" />
<glyph unicode="V" horiz-adv-x="887" d="M18 1497h244l148 -807q26 -141 34 -372q12 229 37 368l148 811h237l-284 -1497h-275z" />
<glyph unicode="W" horiz-adv-x="1360" d="M31 1497h227l125 -823q10 -67 20 -301q6 105 31 311l150 813h198l148 -840q22 -125 24 -284q0 145 23 293l129 831h221l-252 -1497h-207l-157 842q-31 167 -33 319q-7 -104 -33 -309l-158 -852h-202z" />
<glyph unicode="X" horiz-adv-x="813" d="M-25 0l306 776l-273 721h244l123 -362q16 -47 33 -180q4 106 30 180l125 362h240l-268 -711l305 -786h-254l-150 436q-22 63 -30 172q-6 -107 -31 -176l-154 -432h-246z" />
<glyph unicode="Y" horiz-adv-x="793" d="M-20 1497h249l140 -467q22 -74 30 -208q5 72 31 210l141 465h248l-197 -584q-37 -87 -98 -292q-7 -35 -7 -76q0 -13 1 -27q6 -95 6 -104v-414h-250v414q0 9 6 104q1 14 1 27q0 41 -7 76q-14 70 -43 147q-51 133 -55 145z" />
<glyph unicode="Z" horiz-adv-x="870" d="M66 0v246l499 1034h-440v217h676v-248l-498 -1028h494v-221h-731z" />
<glyph unicode="[" horiz-adv-x="586" d="M154 -145v1642h426v-90h-242v-1462h242v-90h-426z" />
<glyph unicode="\" horiz-adv-x="569" d="M-47 1526h141l524 -1714h-143z" />
<glyph unicode="]" horiz-adv-x="586" d="M10 -55h242v1462h-242v90h426v-1642h-426v90z" />
<glyph unicode="^" horiz-adv-x="2048" d="M418 899l497 561h218l495 -561h-207l-397 397l-399 -397h-207z" />
<glyph unicode="_" d="M0 -311h1024v-172h-1024v172z" />
<glyph unicode="`" d="M250 1581h201l204 -348h-120z" />
<glyph unicode="a" horiz-adv-x="883" d="M57 236q0 324 490 483v78q0 135 -109 135q-125 0 -135 -155l-225 -1q12 158 110.5 249t257.5 91q269 0 319 -212q13 -55 13 -214v-411q0 -169 13 -279h-226l-12 98q-126 -116 -262 -116q-115 0 -176 71q-58 67 -58 183zM287 272q0 -47 26 -77q28 -33 74 -33q74 0 160 106 v285q-260 -130 -260 -281z" />
<glyph unicode="b" horiz-adv-x="915" d="M119 0v1497h229v-489q81 106 201 106q301 0 301 -569q0 -572 -301 -572q-130 0 -213 129v-102h-217zM348 281q58 -121 131 -121q135 0 135 385q0 155 -13 227q-30 156 -122 156q-70 0 -131 -113v-534z" />
<glyph unicode="c" horiz-adv-x="838" d="M66 547q0 573 366 573q166 0 258 -123q82 -109 88 -282h-223q0 77 -24 134q-33 77 -99 77q-133 0 -133 -379t133 -379q119 0 123 241l223 1q-5 -188 -80 -300q-89 -135 -266 -135q-366 0 -366 572z" />
<glyph unicode="d" horiz-adv-x="915" d="M68 545q0 569 301 569q119 0 198 -106v489h232v-1497h-219v102q-84 -129 -211 -129q-301 0 -301 572zM303 545q0 -385 135 -385q71 0 129 121v534q-61 113 -129 113q-135 0 -135 -383z" />
<glyph unicode="e" horiz-adv-x="844" d="M66 547q0 573 366 573q346 0 346 -485q0 -75 -4 -117h-475v-14q0 -336 133 -336q119 0 123 241l223 1q-5 -188 -80 -300q-89 -135 -266 -135q-366 0 -366 572zM305 692h248q0 234 -121 234q-106 0 -127 -234z" />
<glyph unicode="f" horiz-adv-x="504" d="M10 911v185h131q0 220 30 292q53 128 237 128q40 0 94 -7v-175q-31 3 -45 3q-65 0 -85 -49q-12 -28 -12 -106v-86h142v-185h-142v-911h-219v911h-131z" />
<glyph unicode="g" horiz-adv-x="844" d="M23 -168q0 89 139 166q-99 54 -99 137q0 89 150 199q-145 90 -145 371q0 419 327 419q179 0 264 -133q76 127 189 135v-192q-26 6 -45 6q-64 0 -96 -52q18 -98 18 -190q0 -413 -328 -413q-15 0 -57 4q-66 -19 -66 -64q0 -47 150 -53q191 -7 282 -42q154 -58 154 -210 q0 -154 -153 -227q-116 -55 -289 -55q-395 0 -395 194zM258 -117q0 -84 182 -84q209 0 209 88q0 90 -313 90q-78 -51 -78 -94zM295 705q0 -236 102 -236q103 0 103 236q0 235 -103 235q-102 0 -102 -235z" />
<glyph unicode="h" horiz-adv-x="907" d="M119 0v1497h227v-500q117 123 238 123q132 0 179 -105q30 -69 30 -222v-793h-230v803q0 131 -69 131q-81 0 -148 -88v-846h-227z" />
<glyph unicode="i" horiz-adv-x="465" d="M119 0v1096h227v-1096h-227zM119 1288v209h227v-209h-227z" />
<glyph unicode="j" horiz-adv-x="465" d="M-12 -152q87 0 111 33q20 27 20 119v1096h227v-1096q0 -181 -44 -256q-59 -102 -224 -102q-37 0 -90 8v198zM119 1288v209h227v-209h-227z" />
<glyph unicode="k" horiz-adv-x="860" d="M119 0v1497h227v-762l250 361h250l-246 -342l272 -754h-237l-195 561l-94 -131v-430h-227z" />
<glyph unicode="l" horiz-adv-x="465" d="M119 0v1497h227v-1497h-227z" />
<glyph unicode="m" horiz-adv-x="1354" d="M119 0v1096h207v-115q129 139 260 139q139 0 190 -139q122 139 254 139t177 -105q30 -68 30 -222v-793h-227v821q0 113 -70 113q-84 0 -149 -88v-846h-228v821q0 113 -69 113q-86 0 -148 -88v-846h-227z" />
<glyph unicode="n" horiz-adv-x="907" d="M119 0v1096h207v-115q129 139 260 139t177 -106q30 -68 30 -221v-793h-230v803q0 131 -69 131q-86 0 -148 -88v-846h-227z" />
<glyph unicode="o" horiz-adv-x="862" d="M66 547q0 573 366 573q365 0 365 -573q0 -572 -365 -572q-366 0 -366 572zM299 547q0 -379 133 -379q131 0 131 379t-131 379q-133 0 -133 -379z" />
<glyph unicode="p" horiz-adv-x="915" d="M119 -356v1452h217v-105q78 127 213 127q301 0 301 -571q0 -570 -301 -570q-124 0 -201 107v-440h-229zM348 283q56 -119 131 -119q92 0 122 156q13 72 13 227q0 385 -135 385q-77 0 -131 -119v-530z" />
<glyph unicode="q" horiz-adv-x="915" d="M68 547q0 571 299 571q133 0 213 -127v105h217v-1452h-230v440q-75 -107 -200 -107q-299 0 -299 570zM303 547q0 -383 135 -383q73 0 129 119v530q-54 119 -129 119q-135 0 -135 -385z" />
<glyph unicode="r" horiz-adv-x="655" d="M119 0v1096h207v-129q115 155 268 155q9 0 51 -4v-248q-68 35 -113 35q-115 0 -186 -112v-793h-227z" />
<glyph unicode="s" horiz-adv-x="784" d="M57 285l195 49q33 -176 156 -176q49 0 80.5 29t31.5 77q0 63 -112 155q-193 158 -208 173q-112 115 -112 233q0 133 90 215q86 80 221 80q131 0 216 -78q81 -75 106 -206l-191 -33q-19 141 -124 141q-45 0 -77 -27t-32 -71q0 -74 170 -199q134 -99 179 -150 q83 -95 83 -212q0 -141 -92.5 -225.5t-235.5 -84.5q-280 0 -344 310z" />
<glyph unicode="t" horiz-adv-x="524" d="M12 911v185h121v299h223v-299h148v-185h-148v-569q0 -91 11 -118q20 -50 94 -50q6 0 18.5 1t18.5 1v-190q-74 -13 -117 -13q-149 0 -206 100q-42 75 -42 240v598h-121z" />
<glyph unicode="u" horiz-adv-x="907" d="M115 301v795h229v-803q0 -133 70 -133q86 0 147 90v846h227v-1096h-208v115q-132 -142 -258 -142q-132 0 -177 106q-30 68 -30 222z" />
<glyph unicode="v" horiz-adv-x="782" d="M25 1096h229l115 -599q9 -47 22 -267q4 154 25 257l123 609h219l-254 -1096h-223z" />
<glyph unicode="w" horiz-adv-x="1145" d="M29 1096h217l90 -578q7 -44 14 -223q11 146 25 221l112 580h168l121 -577q3 -13 19 -224q0 100 18 221l86 580h219l-225 -1096h-184l-121 602q-6 29 -17 204q-3 -70 -20 -206l-117 -600h-184z" />
<glyph unicode="x" horiz-adv-x="715" d="M-10 0l250 575l-234 521h238l88 -236q18 -49 28 -126q4 71 27 126l98 236h234l-242 -512l252 -584h-235l-107 279q-18 48 -27 124q-9 -84 -26 -127l-111 -276h-233z" />
<glyph unicode="y" horiz-adv-x="772" d="M18 1096h228l119 -595q8 -41 24 -239q2 81 21 238l125 596h217l-256 -1116q-37 -163 -105 -241q-84 -95 -237 -95q-42 0 -86 6v198q100 0 141 23q59 33 59 127q0 54 -45 242z" />
<glyph unicode="z" horiz-adv-x="821" d="M70 0v186l444 723h-412v187h652v-187l-441 -723h439v-186h-682z" />
<glyph unicode="{" d="M162 442v179q7 0 21.5 -1.5t21.5 -1.5q132 0 184 66q47 59 47 195v247q0 116 12 168q21 91 91 133q83 50 290 50h45v-179q-8 0 -23.5 1t-23.5 1q-116 0 -154 -51q-32 -42 -32 -164v-241q0 -140 -35 -204q-43 -80 -168 -110q124 -29 168 -110q35 -63 35 -203v-240 q0 -132 40 -175q30 -32 91 -39q16 -1 102 -1v-176h-74q-286 0 -341 145q-23 61 -23 203v248q0 144 -52 203q-37 41 -104 52q-31 5 -118 5z" />
<glyph unicode="|" d="M424 -483v2048h178v-2048h-178z" />
<glyph unicode="}" d="M152 -238q7 0 22 -1t23 -1q109 0 147.5 42t38.5 175v240q0 139 36 203q45 80 169 110q-125 30 -169 110q-36 64 -36 204v241q0 132 -38 174q-29 31 -91 38q-14 1 -102 1v179h45q205 0 288 -50q69 -42 91 -133q12 -52 12 -168v-247q0 -137 46 -195q53 -66 185 -66 q7 0 21.5 1.5t21.5 1.5v-179q-7 0 -21.5 1t-21.5 1q-132 0 -185 -67q-46 -59 -46 -195v-248q0 -115 -12 -166q-22 -91 -91 -133q-81 -49 -288 -49h-45v176z" />
<glyph unicode="~" horiz-adv-x="1706" d="M178 434v187q211 143 387 143q118 0 294 -60q214 -73 292 -73q166 0 379 153v-184q-205 -141 -381 -141q-99 0 -291.5 67.5t-294.5 67.5q-158 0 -385 -160z" />
<glyph horiz-adv-x="883" d="M0 580l23 110h106v146h-113l23 108h94q16 249 72 373q88 194 293 194q306 0 350 -438h-238q-18 225 -112 225q-114 0 -125 -354h282l-22 -108h-262v-146h245l-22 -110l-223 -1q7 -232 35 -309q31 -86 92 -86q55 0 84 59q25 52 41 240h235q-35 -307 -117 -407 q-83 -103 -243 -103q-213 0 -301 212q-54 131 -66 395h-131z" />
<glyph unicode="&#xa1;" horiz-adv-x="530" d="M182 0l35 1057h164l35 -1057h-234zM182 1255v244h234v-244h-234z" />
<glyph unicode="&#xa2;" horiz-adv-x="883" d="M82 547q0 233 66 377q90 198 294 198q55 0 99 -16l77 285h117l-92 -336q147 -113 149 -355h-200q0 101 -17 146l-192 -686q34 -19 66 -19q145 0 145 269h199q-5 -189 -80 -301q-89 -134 -267 -134q-58 0 -98 17l-78 -289h-116l94 338q-166 109 -166 506zM295 547 q0 -187 24 -268l185 659q-31 14 -55 14q-154 0 -154 -405z" />
<glyph unicode="&#xa3;" horiz-adv-x="883" d="M59 -20v225q162 64 162 327q0 3 -4 130h-151v169h127q-52 223 -52 332q0 158 88.5 253t245.5 95q169 0 257 -103q81 -96 81 -269q0 -7 -1 -20.5t-1 -20.5h-211q0 100 -15 145q-27 78 -106 78q-54 0 -84 -41q-28 -36 -28 -92q0 -37 23 -158q22 -124 32 -199h211v-169 l-195 -1q6 -64 6 -114q0 -169 -69 -303q81 -49 135 -49q108 0 115 214l204 1q2 -14 2 -70q0 -154 -56 -248q-68 -117 -212 -117q-141 0 -274 111q-104 -104 -230 -106z" />
<glyph unicode="&#xa4;" horiz-adv-x="883" d="M0 580l23 110h106v146h-113l23 108h94q16 249 72 373q88 194 293 194q306 0 350 -438h-238q-18 225 -112 225q-114 0 -125 -354h282l-22 -108h-262v-146h245l-22 -110l-223 -1q7 -232 35 -309q31 -86 92 -86q55 0 84 59q25 52 41 240h235q-35 -307 -117 -407 q-83 -103 -243 -103q-213 0 -301 212q-54 131 -66 395h-131z" />
<glyph unicode="&#xa5;" horiz-adv-x="793" d="M-10 1485h239l142 -465q19 -61 28 -206q6 144 29 216l143 455h240l-172 -506h154v-109h-191l-49 -147h240v-109h-279v-614h-231v614h-277v109h240l-49 147h-191v109h154z" />
<glyph unicode="&#xa6;" d="M424 -350v758h178v-758h-178zM424 674v758h178v-758h-178z" />
<glyph unicode="&#xa7;" d="M104 813q0 201 222 242q-103 114 -103 219q0 117 86 188q80 66 199 66q193 0 321 -166l-141 -105q-92 107 -164 107q-45 0 -73.5 -28.5t-28.5 -73.5q0 -53 129 -181l184 -182q180 -178 180 -326q0 -196 -219 -235q107 -109 107 -242q0 -130 -84 -204q-79 -70 -211 -70 q-198 0 -334 182l141 109q102 -121 179 -121q110 0 110 106q0 67 -121 193l-204 213q-175 183 -175 309zM295 836q0 -34 28.5 -79t117 -135t131 -117.5t79.5 -27.5q32 0 53 23.5t21 56.5q0 31 -25 72.5t-114 133.5t-131 123q-46 32 -80 32q-35 0 -57.5 -23.5t-22.5 -58.5z " />
<glyph unicode="&#xa8;" d="M256 1290v209h182v-209h-182zM586 1290v209h182v-209h-182z" />
<glyph unicode="&#xa9;" horiz-adv-x="1706" d="M113 731q0 219 127.5 410.5t329.5 274.5q130 54 282 54q309 0 525 -215t216 -524q0 -153 -54 -286q-84 -203 -275.5 -329t-411.5 -126q-303 0 -521 219t-218 522zM223 731q0 -258 186.5 -444.5t444.5 -186.5q261 0 446 185.5t185 445.5q0 265 -183 448t-448 183 q-262 0 -446.5 -184.5t-184.5 -446.5zM457 725q0 197 100 321q108 134 301 134q137 0 233 -69q105 -76 115 -208h-166q-21 154 -190 154q-115 0 -170 -112q-41 -85 -41 -214q0 -317 221 -317q166 0 189 168h165q-7 -142 -115 -224q-98 -75 -245 -75q-192 0 -298 128 q-99 119 -99 314z" />
<glyph unicode="&#xaa;" horiz-adv-x="662" d="M43 897q0 225 367 338v53q0 96 -80 96q-95 0 -103 -110h-167q9 114 86 178q74 61 190 61q199 0 238 -147q10 -38 10 -152q0 -379 9 -483h-169l-8 70q-94 -82 -197 -82q-176 0 -176 178zM215 922q0 -78 76 -78q57 0 119 76v198q-195 -89 -195 -196z" />
<glyph unicode="&#xab;" horiz-adv-x="905" d="M66 547l241 311h178l-237 -311l237 -309h-178zM416 547l241 311h179l-238 -311l238 -309h-179z" />
<glyph unicode="&#xac;" horiz-adv-x="1706" d="M254 696v166h1198v-502h-166v336h-1032z" />
<glyph unicode="&#xad;" horiz-adv-x="688" d="M92 451v194h504v-194h-504z" />
<glyph unicode="&#xae;" horiz-adv-x="1706" d="M113 731q0 306 216 522.5t523 216.5q309 0 525 -215t216 -524q0 -307 -216.5 -524t-524.5 -217q-303 0 -521 219t-218 522zM223 731q0 -255 183.5 -443t437.5 -188q262 0 451.5 180t189.5 441q0 269 -181.5 455t-449.5 186q-260 0 -445.5 -185.5t-185.5 -445.5zM551 330 v829h319q351 0 351 -225q0 -190 -185 -229l185 -375h-199l-164 346h-129v-346h-178zM729 786h117q192 0 192 127q0 134 -200 134h-109v-261z" />
<glyph unicode="&#xaf;" d="M242 1325v141h540v-141h-540z" />
<glyph unicode="&#xb0;" horiz-adv-x="674" d="M43 1163q0 125 85 211t210 86q123 0 209 -87t86 -210t-87 -209t-210 -86q-124 0 -208.5 85.5t-84.5 209.5zM152 1165q0 -77 54.5 -131.5t131.5 -54.5t130.5 54t53.5 132t-53.5 131.5t-130.5 53.5q-78 0 -132 -54t-54 -131z" />
<glyph unicode="&#xb1;" horiz-adv-x="1706" d="M254 14v168h1198v-168h-1198zM254 707v165h514v334h170v-334h514v-165h-514v-334h-170v334h-514z" />
<glyph unicode="&#xb2;" horiz-adv-x="582" d="M49 594v131q326 396 326 553q0 104 -74 104q-88 0 -88 -155h-151q2 272 239 272q102 0 167 -56q69 -59 69 -159q0 -162 -314 -559h299v-131h-473z" />
<glyph unicode="&#xb3;" horiz-adv-x="582" d="M55 854h150q0 -154 88 -154q80 0 80 140q0 87 -30 124q-33 40 -118 40v122q144 0 144 140q0 112 -80 112q-76 0 -76 -127h-147q0 248 223 248q108 0 168 -65q57 -63 57 -172q0 -136 -115 -199q131 -58 131 -232q0 -116 -64 -183.5t-179 -67.5q-232 0 -232 274z" />
<glyph unicode="&#xb4;" d="M369 1233l204 348h201l-285 -348h-120z" />
<glyph unicode="&#xb6;" d="M55 1130q0 166 115 261q107 88 276 88h523v-99h-117v-1380h-129v1380h-168v-1380h-131v784q-161 6 -262 94q-107 94 -107 252z" />
<glyph unicode="&#xb7;" horiz-adv-x="440" d="M90 735q0 54 37.5 91.5t91.5 37.5t91.5 -37.5t37.5 -91.5t-37.5 -91.5t-91.5 -37.5t-91.5 37.5t-37.5 91.5z" />
<glyph unicode="&#xb8;" d="M254 -326q171 -39 246 -39q121 0 121 82q0 64 -69 80q-23 5 -118 5v198h78v-102q250 0 250 -181q0 -188 -248 -188q-103 0 -260 45v100z" />
<glyph unicode="&#xb9;" horiz-adv-x="582" d="M84 594v119h135v585h-135v84q91 31 176 103h109v-772h129v-119h-414z" />
<glyph unicode="&#xba;" horiz-adv-x="647" d="M49 1114q0 402 275 402q274 0 274 -402q0 -399 -274 -399q-275 0 -275 399zM225 1114q0 -266 99 -266q98 0 98 266q0 264 -98 264q-99 0 -99 -264z" />
<glyph unicode="&#xbb;" horiz-adv-x="905" d="M63 238l238 309l-238 311h179l241 -311l-241 -309h-179zM416 238l237 309l-237 311h176l244 -311l-242 -309h-178z" />
<glyph unicode="&#xbc;" horiz-adv-x="1454" d="M80 653v111h129v547h-129v80q85 26 168 94h104v-721h123v-111h-395zM213 -25l889 1532h135l-889 -1532h-135zM920 199v106l276 526h154v-526h84v-106h-84v-199h-142v199h-288zM1044 305h164q2 106 5 212q4 122 20 210q-32 -99 -189 -422z" />
<glyph unicode="&#xbd;" horiz-adv-x="1454" d="M80 653v111h129v547h-129v80q85 26 168 94h104v-721h123v-111h-395zM213 -25l889 1532h135l-889 -1532h-135zM944 0v123q311 372 311 516q0 96 -71 96q-82 0 -82 -145h-147q6 256 229 256q96 0 158 -52q67 -55 67 -149q0 -155 -299 -522h285v-123h-451z" />
<glyph unicode="&#xbe;" horiz-adv-x="1454" d="M53 897h144q0 -143 82 -143q77 0 77 129q0 83 -29 116q-31 37 -112 37v113q135 0 135 131q0 106 -74 106q-71 0 -71 -118h-143q2 231 212 231q103 0 159 -59t56 -162q0 -131 -108 -186q125 -56 125 -215q0 -111 -61 -174.5t-171 -63.5q-221 0 -221 258zM215 -25l889 1532 h135l-889 -1532h-135zM922 199v106l276 526h154v-526h84v-106h-84v-199h-142v199h-288zM1047 305h163l6 212q5 120 19 210q-32 -98 -188 -422z" />
<glyph unicode="&#xbf;" horiz-adv-x="707" d="M43 254q0 50 55 194q9 22 70 114q117 175 146 311q16 74 16 188h194v-39q0 -174 -71 -352q-10 -25 -108 -204q-77 -140 -77 -192q0 -110 99 -110q131 0 143 176l186 -29q-17 -153 -102 -243q-91 -95 -242 -95q-135 0 -219 72q-90 76 -90 209zM311 1255v242h236v-242h-236 z" />
<glyph unicode="&#xc0;" horiz-adv-x="889" d="M18 0l273 1497h317l269 -1497h-246l-43 324h-279l-49 -324h-242zM195 1987h201l204 -348h-120zM348 557h203l-105 696z" />
<glyph unicode="&#xc1;" horiz-adv-x="889" d="M18 0l273 1497h317l269 -1497h-246l-43 324h-279l-49 -324h-242zM314 1639l204 348h201l-285 -348h-120zM348 557h203l-105 696z" />
<glyph unicode="&#xc2;" horiz-adv-x="889" d="M18 0l273 1497h317l269 -1497h-246l-43 324h-279l-49 -324h-242zM162 1579l197 348h196l197 -348h-123l-172 227l-174 -227h-121zM348 557h203l-105 696z" />
<glyph unicode="&#xc3;" horiz-adv-x="889" d="M18 0l273 1497h317l269 -1497h-246l-43 324h-279l-49 -324h-242zM164 1684q37 205 193 205q37 0 106 -22.5t105 -22.5q66 0 94 71h88q-41 -206 -197 -206q-36 0 -108.5 22.5t-102.5 22.5q-61 0 -90 -70h-88zM348 557h203l-105 696z" />
<glyph unicode="&#xc4;" horiz-adv-x="889" d="M18 0l273 1497h317l269 -1497h-246l-43 324h-279l-49 -324h-242zM201 1696v209h182v-209h-182zM348 557h203l-105 696zM531 1696v209h182v-209h-182z" />
<glyph unicode="&#xc5;" horiz-adv-x="889" d="M18 0l271 1483h78q-164 64 -164 237q0 107 72.5 179.5t179.5 72.5t180.5 -72.5t73.5 -179.5q0 -175 -170 -237h71l267 -1483h-246l-43 324h-279l-49 -324h-242zM319 1720q0 -57 39.5 -96t96.5 -39q56 0 95.5 39.5t39.5 95.5t-39.5 95.5t-95.5 39.5q-57 0 -96.5 -39 t-39.5 -96zM348 557h203l-105 696z" />
<glyph unicode="&#xc6;" horiz-adv-x="1413" d="M-6 0l481 1497h858v-223h-434v-391h332v-226h-332v-432h463v-225h-713v358h-301l-106 -358h-248zM412 580h237v694h-39z" />
<glyph unicode="&#xc7;" horiz-adv-x="969" d="M72 748q0 778 440 778q207 0 310 -160q85 -133 87 -352h-231q-4 291 -166 291q-190 0 -190 -557q0 -560 194 -560q172 0 172 347h230v-21q0 -225 -88 -371q-107 -176 -318 -176q-440 0 -440 781zM227 -326q171 -39 246 -39q121 0 121 82q0 64 -69 80q-23 5 -118 5v198h78 v-102q250 0 250 -181q0 -188 -248 -188q-103 0 -260 45v100z" />
<glyph unicode="&#xc8;" horiz-adv-x="889" d="M127 0v1497h686v-233h-436v-375h334v-236h-334v-417h463v-236h-713zM215 1987h201l204 -348h-120z" />
<glyph unicode="&#xc9;" horiz-adv-x="889" d="M127 0v1497h686v-233h-436v-375h334v-236h-334v-417h463v-236h-713zM334 1639l204 348h201l-285 -348h-120z" />
<glyph unicode="&#xca;" horiz-adv-x="889" d="M127 0v1497h686v-233h-436v-375h334v-236h-334v-417h463v-236h-713zM182 1579l197 348h196l197 -348h-123l-172 227l-174 -227h-121z" />
<glyph unicode="&#xcb;" horiz-adv-x="889" d="M127 0v1497h686v-233h-436v-375h334v-236h-334v-417h463v-236h-713zM221 1696v209h182v-209h-182zM551 1696v209h182v-209h-182z" />
<glyph unicode="&#xcc;" horiz-adv-x="516" d="M-4 1987h201l204 -348h-120zM133 0v1497h250v-1497h-250z" />
<glyph unicode="&#xcd;" horiz-adv-x="516" d="M115 1639l204 348h201l-285 -348h-120zM133 0v1497h250v-1497h-250z" />
<glyph unicode="&#xce;" horiz-adv-x="516" d="M-37 1639l197 348h196l197 -348h-123l-172 227l-174 -227h-121zM133 0v1497h250v-1497h-250z" />
<glyph unicode="&#xcf;" horiz-adv-x="516" d="M2 1696v209h182v-209h-182zM133 0v1497h250v-1497h-250zM332 1696v209h182v-209h-182z" />
<glyph unicode="&#xd0;" horiz-adv-x="1040" d="M40 698v160h97v639h309q152 0 236 -33q283 -112 283 -714q0 -605 -283 -717q-84 -33 -236 -33h-309v698h-97zM389 219h60q136 0 178 57q82 111 82 474q0 362 -82 473q-42 57 -178 57h-60v-422h182v-160h-182v-479z" />
<glyph unicode="&#xd1;" horiz-adv-x="1036" d="M127 0v1497h229l291 -799q33 -91 68 -270h8q-33 194 -33 303v766h219v-1497h-209l-311 862q-48 134 -68 264h-8q33 -157 33 -327v-799h-219zM225 1684q37 205 193 205q37 0 106 -22.5t105 -22.5q66 0 94 71h88q-41 -206 -197 -206q-36 0 -108.5 22.5t-102.5 22.5 q-61 0 -90 -70h-88z" />
<glyph unicode="&#xd2;" d="M72 748q0 778 440 778t440 -778q0 -781 -440 -781t-440 781zM250 1987h201l204 -348h-120zM322 748q0 -558 190 -558t190 558q0 557 -190 557t-190 -557z" />
<glyph unicode="&#xd3;" d="M72 748q0 778 440 778t440 -778q0 -781 -440 -781t-440 781zM322 748q0 -558 190 -558t190 558q0 557 -190 557t-190 -557zM369 1639l204 348h201l-285 -348h-120z" />
<glyph unicode="&#xd4;" d="M72 748q0 778 440 778t440 -778q0 -781 -440 -781t-440 781zM218 1579l197 348h196l197 -348h-123l-172 227l-174 -227h-121zM322 748q0 -558 190 -558t190 558q0 557 -190 557t-190 -557z" />
<glyph unicode="&#xd5;" d="M72 748q0 778 440 778t440 -778q0 -781 -440 -781t-440 781zM219 1684q37 205 193 205q37 0 106 -22.5t105 -22.5q66 0 94 71h88q-41 -206 -197 -206q-36 0 -108.5 22.5t-102.5 22.5q-61 0 -90 -70h-88zM322 748q0 -558 190 -558t190 558q0 557 -190 557t-190 -557z" />
<glyph unicode="&#xd6;" d="M72 748q0 778 440 778t440 -778q0 -781 -440 -781t-440 781zM256 1696v209h182v-209h-182zM322 748q0 -558 190 -558t190 558q0 557 -190 557t-190 -557zM586 1696v209h182v-209h-182z" />
<glyph unicode="&#xd7;" horiz-adv-x="1706" d="M287 152l458 458l-458 461l116 117l459 -459l461 459l117 -117l-459 -461l459 -458l-117 -119l-461 461l-459 -461z" />
<glyph unicode="&#xd8;" d="M72 748q0 778 440 778q103 0 205 -62l55 140l137 -62l-80 -194q123 -188 123 -600q0 -781 -440 -781q-112 0 -205 64l-92 -232l-135 60l115 284q-123 191 -123 605zM322 743q0 -142 18 -288l299 757q-41 95 -121 95q-196 0 -196 -564zM387 281q41 -91 125 -91 q190 0 190 558q0 146 -16 284z" />
<glyph unicode="&#xd9;" horiz-adv-x="1036" d="M125 467v1030h256v-1075q0 -102 18 -147q30 -74 115 -74q90 0 120 79q19 48 19 156v1061h256v-1030q0 -235 -77 -353q-94 -145 -316 -145q-221 0 -315 145q-76 118 -76 353zM256 1987h201l204 -348h-120z" />
<glyph unicode="&#xda;" horiz-adv-x="1036" d="M125 467v1030h256v-1075q0 -102 18 -147q30 -74 115 -74q90 0 120 79q19 48 19 156v1061h256v-1030q0 -235 -77 -353q-94 -145 -316 -145q-221 0 -315 145q-76 118 -76 353zM375 1639l204 348h201l-285 -348h-120z" />
<glyph unicode="&#xdb;" horiz-adv-x="1036" d="M125 467v1030h256v-1075q0 -102 18 -147q30 -74 115 -74q90 0 120 79q19 48 19 156v1061h256v-1030q0 -235 -77 -353q-94 -145 -316 -145q-221 0 -315 145q-76 118 -76 353zM223 1639l197 348h196l197 -348h-123l-172 227l-174 -227h-121z" />
<glyph unicode="&#xdc;" horiz-adv-x="1036" d="M125 467v1030h256v-1075q0 -102 18 -147q30 -74 115 -74q90 0 120 79q19 48 19 156v1061h256v-1030q0 -235 -77 -353q-94 -145 -316 -145q-221 0 -315 145q-76 118 -76 353zM262 1696v209h182v-209h-182zM592 1696v209h182v-209h-182z" />
<glyph unicode="&#xdd;" horiz-adv-x="793" d="M-20 1497h249l140 -467q22 -74 30 -208q5 72 31 210l141 465h248l-197 -584q-37 -87 -98 -292q-9 -47 -6 -103q6 -95 6 -104v-414h-250v414q0 9 6 104q3 56 -6 103q-14 70 -43 147q-51 133 -55 145zM254 1639l204 348h201l-285 -348h-120z" />
<glyph unicode="&#xde;" d="M127 0v1497h252v-297h82q253 0 366 -97q123 -105 123 -353q0 -212 -114.5 -322.5t-327.5 -110.5h-129v-317h-252zM379 525q17 -3 61 -3q137 0 197.5 55t60.5 191q0 229 -233 229q-42 0 -86 -6v-466z" />
<glyph unicode="&#xdf;" horiz-adv-x="913" d="M119 2v1090q0 198 66 292q79 113 268 113q348 0 348 -360q0 -213 -162 -303q127 -37 174 -160q33 -85 33 -242q0 -450 -305 -450q-55 0 -119 20v191q50 -29 80 -29q116 0 116 256q0 132 -24 198q-39 106 -145 113v178q137 7 137 209q0 211 -129 211q-123 0 -123 -239 v-1088h-215z" />
<glyph unicode="&#xe0;" horiz-adv-x="883" d="M57 236q0 324 490 483v78q0 135 -109 135q-125 0 -135 -155l-225 -1q12 158 110.5 249t257.5 91q269 0 319 -212q13 -55 13 -214v-411q0 -169 13 -279h-226l-12 98q-126 -116 -262 -116q-115 0 -176 71q-58 67 -58 183zM193 1581h201l204 -348h-120zM287 272 q0 -47 26 -77q28 -33 74 -33q74 0 160 106v285q-260 -130 -260 -281z" />
<glyph unicode="&#xe1;" horiz-adv-x="883" d="M57 236q0 324 490 483v78q0 135 -109 135q-125 0 -135 -155l-225 -1q12 158 110.5 249t257.5 91q269 0 319 -212q13 -55 13 -214v-411q0 -169 13 -279h-226l-12 98q-126 -116 -262 -116q-115 0 -176 71q-58 67 -58 183zM287 272q0 -47 26 -77q28 -33 74 -33q74 0 160 106 v285q-260 -130 -260 -281zM312 1233l204 348h201l-285 -348h-120z" />
<glyph unicode="&#xe2;" horiz-adv-x="883" d="M57 236q0 324 490 483v78q0 135 -109 135q-125 0 -135 -155l-225 -1q12 158 110.5 249t257.5 91q269 0 319 -212q13 -55 13 -214v-411q0 -169 13 -279h-226l-12 98q-126 -116 -262 -116q-115 0 -176 71q-58 67 -58 183zM155 1233l197 348h196l197 -348h-123l-172 227 l-174 -227h-121zM287 272q0 -47 26 -77q28 -33 74 -33q74 0 160 106v285q-260 -130 -260 -281z" />
<glyph unicode="&#xe3;" horiz-adv-x="883" d="M57 236q0 324 490 483v78q0 135 -109 135q-125 0 -135 -155l-225 -1q12 158 110.5 249t257.5 91q269 0 319 -212q13 -55 13 -214v-411q0 -169 13 -279h-226l-12 98q-126 -116 -262 -116q-115 0 -176 71q-58 67 -58 183zM162 1278q37 205 193 205q37 0 106 -22.5 t105 -22.5q66 0 94 71h88q-41 -206 -197 -206q-36 0 -108.5 22.5t-102.5 22.5q-61 0 -90 -70h-88zM287 272q0 -47 26 -77q28 -33 74 -33q74 0 160 106v285q-260 -130 -260 -281z" />
<glyph unicode="&#xe4;" horiz-adv-x="883" d="M57 236q0 324 490 483v78q0 135 -109 135q-125 0 -135 -155l-225 -1q12 158 110.5 249t257.5 91q269 0 319 -212q13 -55 13 -214v-411q0 -169 13 -279h-226l-12 98q-126 -116 -262 -116q-115 0 -176 71q-58 67 -58 183zM199 1290v209h182v-209h-182zM287 272 q0 -47 26 -77q28 -33 74 -33q74 0 160 106v285q-260 -130 -260 -281zM529 1290v209h182v-209h-182z" />
<glyph unicode="&#xe5;" horiz-adv-x="883" d="M57 236q0 324 490 483v78q0 135 -109 135q-125 0 -135 -155l-225 -1q12 158 110.5 249t257.5 91q269 0 319 -212q13 -55 13 -214v-411q0 -173 13 -279h-226l-12 98q-126 -116 -262 -116q-115 0 -176 71q-58 67 -58 183zM205 1442q0 107 72.5 179.5t179.5 72.5 t179.5 -72.5t72.5 -179.5t-72.5 -180.5t-179.5 -73.5t-179.5 73.5t-72.5 180.5zM287 272q0 -47 26 -77q28 -33 74 -33q74 0 160 106v285q-260 -130 -260 -281zM322 1440q0 -57 39 -96t96 -39t96 39t39 96q0 55 -40 95t-95 40q-57 0 -96 -39t-39 -96z" />
<glyph unicode="&#xe6;" horiz-adv-x="1325" d="M57 236q0 316 490 483v78q0 135 -109 135q-125 0 -135 -155l-225 -1q14 159 111.5 251.5t256.5 92.5q150 0 244 -86q94 86 223 86q349 0 349 -487q0 -78 -5 -115h-477v-14q0 -342 133 -342q121 0 123 247l224 1q-6 -189 -80 -300q-90 -135 -267 -135t-274 152 q-178 -152 -336 -152q-118 0 -182 71t-64 190zM287 272q0 -47 26 -77q28 -33 74 -33q77 0 154 102v289q-254 -140 -254 -281zM786 692h248q0 234 -121 234q-106 0 -127 -234z" />
<glyph unicode="&#xe7;" horiz-adv-x="838" d="M66 547q0 573 366 573q166 0 258 -123q82 -109 88 -282h-223q0 77 -24 134q-33 77 -99 77q-133 0 -133 -379t133 -379q119 0 123 241l223 1q-5 -188 -80 -300q-89 -135 -266 -135q-366 0 -366 572zM162 -326q171 -39 246 -39q121 0 121 82q0 64 -69 80q-23 5 -118 5v198 h78v-102q250 0 250 -181q0 -188 -248 -188q-103 0 -260 45v100z" />
<glyph unicode="&#xe8;" horiz-adv-x="844" d="M66 547q0 573 366 573q346 0 346 -485q0 -75 -4 -117h-475v-14q0 -336 133 -336q119 0 123 241l223 1q-5 -188 -80 -300q-89 -135 -266 -135q-366 0 -366 572zM172 1581h201l204 -348h-120zM305 692h248q0 234 -121 234q-106 0 -127 -234z" />
<glyph unicode="&#xe9;" horiz-adv-x="844" d="M66 547q0 573 366 573q346 0 346 -485q0 -75 -4 -117h-475v-14q0 -336 133 -336q119 0 123 241l223 1q-5 -188 -80 -300q-89 -135 -266 -135q-366 0 -366 572zM291 1233l204 348h201l-285 -348h-120zM305 692h248q0 234 -121 234q-106 0 -127 -234z" />
<glyph unicode="&#xea;" horiz-adv-x="844" d="M66 547q0 573 366 573q346 0 346 -485q0 -75 -4 -117h-475v-14q0 -336 133 -336q119 0 123 241l223 1q-5 -188 -80 -300q-89 -135 -266 -135q-366 0 -366 572zM139 1233l197 348h196l197 -348h-123l-172 227l-174 -227h-121zM305 692h248q0 234 -121 234 q-106 0 -127 -234z" />
<glyph unicode="&#xeb;" horiz-adv-x="844" d="M66 547q0 573 366 573q346 0 346 -485q0 -75 -4 -117h-475v-14q0 -336 133 -336q119 0 123 241l223 1q-5 -188 -80 -300q-89 -135 -266 -135q-366 0 -366 572zM178 1290v209h182v-209h-182zM305 692h248q0 234 -121 234q-106 0 -127 -234zM508 1290v209h182v-209h-182z " />
<glyph unicode="&#xec;" horiz-adv-x="465" d="M-29 1581h201l204 -348h-120zM119 0v1096h227v-1096h-227z" />
<glyph unicode="&#xed;" horiz-adv-x="465" d="M90 1233l204 348h201l-285 -348h-120zM119 0v1096h227v-1096h-227z" />
<glyph unicode="&#xee;" horiz-adv-x="465" d="M-62 1233l197 348h196l197 -348h-123l-172 227l-174 -227h-121zM119 0v1096h227v-1096h-227z" />
<glyph unicode="&#xef;" horiz-adv-x="465" d="M-23 1290v209h182v-209h-182zM119 0v1096h227v-1096h-227zM307 1290v209h182v-209h-182z" />
<glyph unicode="&#xf0;" horiz-adv-x="862" d="M66 498q0 199 65 342q87 190 262 190q48 0 88 -14q-26 70 -75 149l-207 -90l-54 125l185 84q-41 62 -123 113l106 116q92 -46 191 -153l207 92l53 -125l-180 -78q213 -336 213 -751q0 -213 -75 -350q-94 -173 -290 -173t-291 173q-75 137 -75 350zM295 498 q0 -336 137 -336t137 336q0 348 -137 348t-137 -348z" />
<glyph unicode="&#xf1;" horiz-adv-x="907" d="M119 0v1096h207v-115q129 139 260 139t177 -106q30 -68 30 -221v-793h-230v803q0 131 -69 131q-86 0 -148 -88v-846h-227zM168 1278q37 205 193 205q37 0 106 -22.5t105 -22.5q66 0 94 71h88q-41 -206 -197 -206q-36 0 -108.5 22.5t-102.5 22.5q-61 0 -90 -70h-88z" />
<glyph unicode="&#xf2;" horiz-adv-x="862" d="M66 547q0 573 366 573q365 0 365 -573q0 -572 -365 -572q-366 0 -366 572zM170 1581h201l204 -348h-120zM299 547q0 -379 133 -379q131 0 131 379t-131 379q-133 0 -133 -379z" />
<glyph unicode="&#xf3;" horiz-adv-x="862" d="M66 547q0 573 366 573q365 0 365 -573q0 -572 -365 -572q-366 0 -366 572zM289 1233l204 348h201l-285 -348h-120zM299 547q0 -379 133 -379q131 0 131 379t-131 379q-133 0 -133 -379z" />
<glyph unicode="&#xf4;" horiz-adv-x="862" d="M66 547q0 573 366 573q365 0 365 -573q0 -572 -365 -572q-366 0 -366 572zM137 1233l197 348h196l197 -348h-123l-172 227l-174 -227h-121zM299 547q0 -379 133 -379q131 0 131 379t-131 379q-133 0 -133 -379z" />
<glyph unicode="&#xf5;" horiz-adv-x="862" d="M66 547q0 573 366 573q365 0 365 -573q0 -572 -365 -572q-366 0 -366 572zM139 1278q37 205 193 205q37 0 106 -22.5t105 -22.5q66 0 94 71h88q-41 -206 -197 -206q-36 0 -108.5 22.5t-102.5 22.5q-61 0 -90 -70h-88zM299 547q0 -379 133 -379q131 0 131 379t-131 379 q-133 0 -133 -379z" />
<glyph unicode="&#xf6;" horiz-adv-x="862" d="M66 547q0 573 366 573q365 0 365 -573q0 -572 -365 -572q-366 0 -366 572zM176 1290v209h182v-209h-182zM299 547q0 -379 133 -379q131 0 131 379t-131 379q-133 0 -133 -379zM506 1290v209h182v-209h-182z" />
<glyph unicode="&#xf7;" horiz-adv-x="1706" d="M254 528v166h1198v-166h-1198zM717 229q0 57 40 97.5t97 40.5t97 -40.5t40 -97.5t-40 -96t-97 -39q-58 0 -97.5 38.5t-39.5 96.5zM717 989q0 57 40 98t97 41t97 -41t40 -98t-40 -96t-97 -39q-58 0 -97.5 38.5t-39.5 96.5z" />
<glyph unicode="&#xf8;" horiz-adv-x="862" d="M47 -197l127 291q-108 134 -108 453q0 573 366 573q100 0 174 -49l78 182l115 -51l-97 -221q95 -146 95 -434q0 -572 -365 -572q-96 0 -160 37l-112 -256zM297 514q0 -58 12 -154l215 492q-29 74 -92 74q-135 0 -135 -412zM350 219q34 -51 84 -51q129 0 129 367 q0 95 -4 155z" />
<glyph unicode="&#xf9;" horiz-adv-x="907" d="M115 301v795h229v-803q0 -133 70 -133q86 0 147 90v846h227v-1096h-208v115q-132 -142 -258 -142q-132 0 -177 106q-30 68 -30 222zM193 1581h201l204 -348h-120z" />
<glyph unicode="&#xfa;" horiz-adv-x="907" d="M115 301v795h229v-803q0 -133 70 -133q86 0 147 90v846h227v-1096h-208v115q-132 -142 -258 -142q-132 0 -177 106q-30 68 -30 222zM312 1233l204 348h201l-285 -348h-120z" />
<glyph unicode="&#xfb;" horiz-adv-x="907" d="M115 301v795h229v-803q0 -133 70 -133q86 0 147 90v846h227v-1096h-208v115q-132 -142 -258 -142q-132 0 -177 106q-30 68 -30 222zM160 1233l197 348h196l197 -348h-123l-172 227l-174 -227h-121z" />
<glyph unicode="&#xfc;" horiz-adv-x="907" d="M115 301v795h229v-803q0 -133 70 -133q86 0 147 90v846h227v-1096h-208v115q-132 -142 -258 -142q-132 0 -177 106q-30 68 -30 222zM199 1290v209h182v-209h-182zM529 1290v209h182v-209h-182z" />
<glyph unicode="&#xfd;" horiz-adv-x="772" d="M18 1096h228l119 -595q8 -41 24 -239q2 81 21 238l125 596h217l-256 -1116q-37 -163 -105 -241q-84 -95 -237 -95q-42 0 -86 6v198q100 0 141 23q59 33 59 127q0 54 -45 242zM244 1233l204 348h201l-285 -348h-120z" />
<glyph unicode="&#xfe;" horiz-adv-x="915" d="M119 -356v1853h223l-6 -506q78 127 213 127q301 0 301 -571q0 -570 -301 -570q-124 0 -201 107v-440h-229zM348 283q56 -119 135 -119q131 0 131 383q0 385 -135 385q-77 0 -131 -119v-530z" />
<glyph unicode="&#xff;" horiz-adv-x="772" d="M18 1096h228l119 -595q8 -41 24 -239q2 81 21 238l125 596h217l-256 -1116q-37 -163 -105 -241q-84 -95 -237 -95q-42 0 -86 6v198q100 0 141 23q59 33 59 127q0 54 -45 242zM131 1290v209h182v-209h-182zM461 1290v209h182v-209h-182z" />
<glyph unicode="&#x152;" horiz-adv-x="1475" d="M72 748q0 778 436 778q169 0 244 -172v143h645v-223h-434v-391h331v-226h-331v-432h462v-225h-675v135q-81 -166 -252 -166q-249 0 -355 285q-71 192 -71 494zM322 748q0 -558 190 -558t190 558q0 557 -190 557t-190 -557z" />
<glyph unicode="&#x153;" horiz-adv-x="1343" d="M66 547q0 573 366 573q140 0 248 -108q108 108 250 108q348 0 348 -504q0 -16 -2 -49t-2 -49h-477v-14q0 -336 133 -336q119 0 123 241l223 1q-5 -188 -80 -300q-89 -135 -266 -135q-153 0 -250 105q-107 -105 -248 -105q-366 0 -366 572zM299 547q0 -379 133 -379 q131 0 131 379t-131 379q-133 0 -133 -379zM803 692h248q0 234 -121 234q-106 0 -127 -234z" />
<glyph unicode="&#x178;" horiz-adv-x="793" d="M-20 1497h249l140 -467q22 -74 30 -208q5 72 31 210l141 465h248l-197 -584q-37 -87 -98 -292q-9 -47 -6 -103q6 -95 6 -104v-414h-250v414q0 9 6 104q3 56 -6 103q-14 70 -43 147q-51 133 -55 145zM141 1696v209h182v-209h-182zM471 1696v209h182v-209h-182z" />
<glyph unicode="&#x2c6;" d="M217 1233l197 348h196l197 -348h-123l-172 227l-174 -227h-121z" />
<glyph unicode="&#x2dc;" d="M219 1278q37 205 193 205q37 0 106 -22.5t105 -22.5q66 0 94 71h88q-41 -206 -197 -206q-36 0 -108.5 22.5t-102.5 22.5q-61 0 -90 -70h-88z" />
<glyph unicode="&#x2000;" horiz-adv-x="993" />
<glyph unicode="&#x2001;" horiz-adv-x="1987" />
<glyph unicode="&#x2002;" horiz-adv-x="993" />
<glyph unicode="&#x2003;" horiz-adv-x="1987" />
<glyph unicode="&#x2004;" horiz-adv-x="662" />
<glyph unicode="&#x2005;" horiz-adv-x="496" />
<glyph unicode="&#x2006;" horiz-adv-x="331" />
<glyph unicode="&#x2007;" horiz-adv-x="331" />
<glyph unicode="&#x2008;" horiz-adv-x="248" />
<glyph unicode="&#x2009;" horiz-adv-x="397" />
<glyph unicode="&#x200a;" horiz-adv-x="110" />
<glyph unicode="&#x2010;" horiz-adv-x="688" d="M92 451v194h504v-194h-504z" />
<glyph unicode="&#x2011;" horiz-adv-x="688" d="M92 451v194h504v-194h-504z" />
<glyph unicode="&#x2012;" horiz-adv-x="688" d="M92 451v194h504v-194h-504z" />
<glyph unicode="&#x2013;" d="M0 475v146h1024v-146h-1024z" />
<glyph unicode="&#x2014;" horiz-adv-x="2048" d="M0 475v146h2048v-146h-2048z" />
<glyph unicode="&#x2018;" horiz-adv-x="440" d="M104 989v260l138 248h94l-80 -260h80v-248h-232z" />
<glyph unicode="&#x2019;" horiz-adv-x="440" d="M106 989l80 264h-80v244h230v-260l-135 -248h-95z" />
<glyph unicode="&#x201a;" horiz-adv-x="440" d="M106 0v246h230v-260l-135 -248h-95l80 262h-80z" />
<glyph unicode="&#x201c;" horiz-adv-x="752" d="M86 989v260l137 248h94l-79 -262h79v-246h-231zM436 989v260l137 248h95l-80 -262h80v-246h-232z" />
<glyph unicode="&#x201d;" horiz-adv-x="752" d="M86 989l80 262h-80v246h231v-260l-135 -248h-96zM436 989l80 262h-80v246h232v-260l-138 -248h-94z" />
<glyph unicode="&#x201e;" horiz-adv-x="752" d="M86 0v246h231v-260l-135 -248h-96l80 262h-80zM434 0v246h232v-260l-136 -248h-96l80 262h-80z" />
<glyph unicode="&#x2022;" horiz-adv-x="1208" d="M307 762q0 124 86.5 209.5t210.5 85.5q123 0 209 -86t86 -209t-87 -210t-210 -87q-124 0 -209.5 86.5t-85.5 210.5z" />
<glyph unicode="&#x2026;" horiz-adv-x="2048" d="M225 0v244h234v-244h-234zM907 0v244h234v-244h-234zM1591 0v244h234v-244h-234z" />
<glyph unicode="&#x202f;" horiz-adv-x="397" />
<glyph unicode="&#x2039;" horiz-adv-x="555" d="M66 547l241 311h178l-237 -311l237 -309h-178z" />
<glyph unicode="&#x203a;" horiz-adv-x="555" d="M66 238l237 309l-237 311h178l241 -311l-241 -309h-178z" />
<glyph unicode="&#x205f;" horiz-adv-x="496" />
<glyph unicode="&#x2122;" horiz-adv-x="1706" d="M225 1366v94h467v-94h-168v-448h-129v448h-170zM809 918v542h170l141 -360l133 360h170v-542h-114v428l-160 -428h-59l-166 428v-428h-115z" />
<glyph unicode="&#x25fc;" horiz-adv-x="1095" d="M0 0v1095h1095v-1095h-1095z" />
</font>
</defs>
</svg>
