<?xml version="1.0" standalone="no"?> <!DOCTYPE svg PUBLIC "-//W3C//DTD SVG 1.0//EN" "http://www.w3.org/TR/2001/REC-SVG-20010904/DTD/svg10.dtd" > <svg xmlns="http://www.w3.org/2000/svg" width="100%" height="100%">
<defs >
<font id="uvntintuchepthemr" horiz-adv-x="594" ><font-face
    font-family="UVNTinTucHepThem"
    units-per-em="2048"
    panose-1="2 11 4 8 2 2 2 3 2 4"
    ascent="2309"
    descent="-483"
    alphabetic="0" />
<missing-glyph horiz-adv-x="1024" d="M128 0V2309H896V0H128ZM256 128H768V2181H256V128Z" />
<glyph unicode=" " glyph-name="space" horiz-adv-x="389" />
<glyph unicode="!" glyph-name="exclam" horiz-adv-x="455" d="M268 420H186L152 1481H303L268 420ZM158 0V168H295V0H158Z" />
<glyph unicode="&quot;" glyph-name="quotedbl" horiz-adv-x="551" d="M451 1434V881H365V1434H451ZM186 1434V881H100V1434H186Z" />
<glyph unicode="#" glyph-name="numbersign" horiz-adv-x="1575" d="M979 866H709L610 584H879L979 866ZM915 1454L741 956H1012L1188 1454H1298L1124 956H1446L1415 866H1092L991 584H1339L1309 494H958L784 0H672L848 494H578L399 0H289L463 494H129L160 584H496L596
866H236L264 956H629L805 1454H915Z" />
<glyph unicode="$" glyph-name="dollar" horiz-adv-x="778" d="M356 852V1372Q195 1353 195 1153Q195 969 356 852ZM440 94Q621 121 621 336Q621 534 440 666V94ZM356 -209V4Q82 33 82 367L182 366Q188 113 356 94V727Q92 904 92 1151Q92 1423 356 1473V1612H440V1473Q700
1435 700 1110H598Q598 1352 440 1374V795Q721 600 721 346Q721 27 440 2V-209H356Z" />
<glyph unicode="%" glyph-name="percent" horiz-adv-x="1384" d="M1247 287Q1247 381 1182 446T1022 512Q928 512 863 447T797 287Q797 193 862 128T1022 63Q1116 63 1181 128T1247 287ZM1022 606Q1155 606 1247 514T1339 289Q1339 156 1247 64T1022 -29Q889 -29
798 63T707 289Q707 422 798 514T1022 606ZM582 1192Q582 1287 518 1352T358 1417Q264 1417 199 1352T133 1192Q133 1099 199 1034T358 969Q452 969 517 1033T582 1192ZM358 1509Q491 1509 582 1417T674 1192Q674 1060 582 969T358 877Q225 877 133 968T41 1192Q41
1325 133 1417T358 1509ZM1090 1509H1202L293 -29H178L1090 1509Z" />
<glyph unicode="&amp;" glyph-name="ampersand" horiz-adv-x="868" d="M362 893Q502 1061 502 1251Q502 1384 410 1384Q351 1384 321 1323Q297 1275 297 1210Q297 1071 362 893ZM578 190Q419 435 317 692Q174 486 174 319Q174 215 223 145Q279 66 379 66Q497 66
578 190ZM797 -18Q738 22 647 119Q543 -31 377 -31Q226 -31 142 68Q63 161 63 315Q63 545 279 801Q182 1058 182 1196Q182 1317 232 1393Q291 1483 406 1483Q513 1483 569 1413Q621 1348 621 1239Q621 1030 408 778Q510 488 645 303Q695 426 705 684H813Q809 405
715 213Q765 143 872 59L797 -18Z" />
<glyph unicode="&apos;" glyph-name="quotesingle" horiz-adv-x="285" d="M186 1434V881H100V1434H186Z" />
<glyph unicode="(" glyph-name="parenleft" horiz-adv-x="465" d="M322 -143Q121 223 121 684Q121 1140 322 1509H422Q231 1133 231 684Q231 237 422 -143H322Z" />
<glyph unicode=")" glyph-name="parenright" horiz-adv-x="465" d="M143 1509Q344 1139 344 684Q344 225 143 -143H43Q233 233 233 684Q233 1131 43 1509H143Z" />
<glyph unicode="*" glyph-name="asterisk" horiz-adv-x="758" d="M217 819L115 893L332 1130L18 1202L57 1321L352 1184L326 1511H432L408 1186L702 1319L741 1200L426 1133L641 893L545 819L379 1096L217 819Z" />
<glyph unicode="+" glyph-name="plus" horiz-adv-x="1706" d="M893 1221V651H1452V569H893V0H813V569H254V651H813V1221H893Z" />
<glyph unicode="," glyph-name="comma" horiz-adv-x="389" d="M90 -297L184 0H121V166H266V0L147 -297H90Z" />
<glyph unicode="-" glyph-name="hyphen" horiz-adv-x="473" d="M41 500V598H432V500H41Z" />
<glyph unicode="." glyph-name="period" horiz-adv-x="389" d="M125 0V168H262V0H125Z" />
<glyph unicode="/" glyph-name="slash" horiz-adv-x="569" d="M-2 -190H-106L512 1509H618L-2 -190Z" />
<glyph unicode="0" glyph-name="zero" horiz-adv-x="778" d="M389 76Q482 76 527 230Q569 373 569 741Q569 1113 527 1255Q482 1407 389 1407Q297 1407 252 1251Q209 1103 209 741Q209 373 252 230Q297 76 389 76ZM692 741Q692 324 621 152Q546 -29 389 -29Q231
-29 156 152Q84 324 84 741Q84 1153 157 1327Q232 1509 389 1509Q547 1509 621 1331Q692 1160 692 741Z" />
<glyph unicode="1" glyph-name="one" horiz-adv-x="778" d="M176 0V100H344V1333L154 1313V1389Q285 1401 375 1497H459V100H629V0H176Z" />
<glyph unicode="2" glyph-name="two" horiz-adv-x="778" d="M92 0V84Q92 132 148 266Q192 370 313 563Q443 770 488 867Q569 1040 569 1186Q569 1276 530 1336Q484 1407 399 1407Q223 1407 217 1096H96Q106 1511 399 1511Q538 1511 619 1412Q694 1320 694 1178Q694
964 420 526Q327 377 297 322Q222 186 211 104H694V0H92Z" />
<glyph unicode="3" glyph-name="three" horiz-adv-x="778" d="M61 324H173Q185 72 353 72Q540 72 540 387Q540 733 314 733H237V840H308Q531 840 531 1143Q531 1407 364 1407Q217 1407 189 1182L81 1198Q118 1509 376 1509Q521 1509 592 1393Q650 1297 650 1143Q650
842 474 793Q658 715 658 408Q658 -29 353 -29Q204 -29 128 77Q62 169 61 324Z" />
<glyph unicode="4" glyph-name="four" horiz-adv-x="778" d="M469 469V1051Q469 1229 489 1407L164 469H469ZM469 -14V365H53V459L428 1493H582V469H741V365H582V-14H469Z" />
<glyph unicode="5" glyph-name="five" horiz-adv-x="778" d="M98 319L215 328Q227 76 381 76Q569 76 569 463Q569 641 548 722Q507 879 381 879Q272 879 215 743L115 762L166 1481H625L614 1376H260L229 909Q313 985 414 985Q692 985 692 455Q692 264 630 137Q548
-29 377 -29Q238 -29 165 80Q103 171 98 319Z" />
<glyph unicode="6" glyph-name="six" horiz-adv-x="778" d="M244 660Q238 582 238 489Q238 74 418 74Q596 74 596 469Q596 801 436 801Q333 801 244 660ZM238 799Q332 909 453 909Q721 909 721 477Q721 -29 422 -29Q261 -29 186 126Q113 277 113 631Q113 1100
193 1302Q274 1509 449 1509Q558 1509 624 1426Q680 1355 694 1239L580 1225Q554 1405 444 1405Q250 1405 238 799Z" />
<glyph unicode="7" glyph-name="seven" horiz-adv-x="778" d="M613 695H492L303 -14H178L369 695H188V789H395L553 1376H115V1481H680V1397L518 789H613V695Z" />
<glyph unicode="8" glyph-name="eight" horiz-adv-x="778" d="M387 723Q201 596 201 352Q201 244 240 168Q289 70 387 70Q486 70 535 167Q573 243 573 352Q573 594 387 723ZM387 856Q561 971 561 1180Q561 1271 521 1335Q473 1411 387 1411Q301 1411 253 1335Q213
1271 213 1180Q213 971 387 856ZM299 793Q100 932 100 1174Q100 1320 169 1410Q246 1511 387 1511Q528 1511 605 1410Q674 1320 674 1174Q674 934 477 793Q696 621 696 346Q696 190 621 87Q538 -29 387 -29Q236 -29 153 87Q78 190 78 346Q78 621 299 793Z" />
<glyph unicode="9" glyph-name="nine" horiz-adv-x="778" d="M532 819Q539 917 539 971Q539 1405 358 1405Q180 1405 180 1010Q180 678 340 678Q441 678 532 819ZM537 676Q432 571 322 571Q57 571 57 1024Q57 1509 362 1509Q555 1509 624 1257Q664 1114 664 850Q664
374 585 175Q504 -29 328 -29Q219 -29 152 55Q96 126 82 242L197 256Q215 76 332 76Q522 76 537 676Z" />
<glyph unicode=":" glyph-name="colon" horiz-adv-x="389" d="M125 571V739H262V571H125ZM125 0V168H262V0H125Z" />
<glyph unicode=";" glyph-name="semicolon" horiz-adv-x="389" d="M90 -297L184 0H121V166H266V0L147 -297H90ZM125 571V739H262V571H125Z" />
<glyph unicode="&lt;" glyph-name="less" horiz-adv-x="1706" d="M1442 1034L397 610L1442 186V98L264 580V641L1442 1124V1034Z" />
<glyph unicode="=" glyph-name="equal" horiz-adv-x="1706" d="M1452 469V387H254V469H1452ZM1452 831V752H254V831H1452Z" />
<glyph unicode="&gt;" glyph-name="greater" horiz-adv-x="1706" d="M1442 641V580L264 98V186L1309 610L264 1034V1124L1442 641Z" />
<glyph unicode="?" glyph-name="question" horiz-adv-x="606" d="M186 0V168H324V0H186ZM207 414Q205 440 205 494Q205 646 246 766Q255 791 350 986Q410 1108 410 1229Q410 1415 287 1415Q170 1415 149 1223L47 1241Q88 1511 303 1511Q415 1511 476 1419Q528
1340 528 1223Q528 1090 419 887Q298 662 298 484Q298 450 301 414H207Z" />
<glyph unicode="@" glyph-name="at" horiz-adv-x="2048" d="M1303 827L1364 956H1444L1307 403Q1286 318 1286 295Q1286 203 1403 203Q1450 203 1503 223Q1657 279 1747 444Q1829 593 1829 768Q1829 1062 1607 1226Q1408 1374 1104 1374Q726 1374 477 1132Q225
887 225 510Q225 166 464 -28Q685 -207 1038 -207Q1376 -207 1661 -14L1690 -59Q1398 -279 1042 -279Q653 -279 398 -77Q121 143 121 522Q121 798 266 1022T665 1360Q866 1450 1114 1450Q1274 1450 1419 1406Q1642 1338 1780 1176Q1927 1004 1927 778Q1927 609
1864 470Q1796 321 1669 227Q1534 127 1378 127Q1186 127 1186 272Q1186 295 1190 311Q1088 127 899 127Q586 127 586 453Q586 666 708 824Q840 997 1047 997Q1240 997 1303 827ZM1282 721Q1237 924 1049 924Q879 924 777 764Q690 626 690 446Q690 336 743 271Q800
201 907 201Q1018 201 1103 274T1219 467L1282 721Z" />
<glyph unicode="A" glyph-name="A" horiz-adv-x="739" d="M236 551H520L387 1350H373L236 551ZM18 0L285 1481H473L745 0H616L541 436H219L143 0H18Z" />
<glyph unicode="B" glyph-name="B" horiz-adv-x="797" d="M242 823H326Q598 823 598 1108Q598 1372 354 1372H242V823ZM242 109H354Q498 109 559 181Q616 247 616 393Q616 551 562 625Q499 713 348 713H242V109ZM115 0V1481H317Q531 1481 623 1402Q723 1317 723
1108Q723 859 549 778Q745 692 745 383Q745 0 350 0H115Z" />
<glyph unicode="C" glyph-name="C" horiz-adv-x="768" d="M731 492V483Q731 -29 408 -29Q195 -29 120 272Q78 437 78 741Q78 1047 119 1210Q194 1509 408 1509Q572 1509 651 1345Q710 1223 715 1036H594Q582 1397 408 1397Q207 1397 207 741Q207 376 257 236Q309
86 420 86Q610 86 616 491L731 492Z" />
<glyph unicode="D" glyph-name="D" horiz-adv-x="840" d="M258 115Q278 113 317 113Q504 113 576 241T649 741Q649 1102 574 1236T309 1370Q276 1370 258 1368V115ZM252 1481Q401 1481 483 1457T621 1380Q780 1227 780 741Q780 319 671 161Q560 0 289 0H133V1481H252Z" />
<glyph unicode="E" glyph-name="E" horiz-adv-x="668" d="M115 0V1481H633V1368H242V825H543V711H242V115H668V0H115Z" />
<glyph unicode="F" glyph-name="F" horiz-adv-x="621" d="M115 0V1481H635V1368H242V829H541V715H242V0H115Z" />
<glyph unicode="G" glyph-name="G" horiz-adv-x="811" d="M641 -14L618 90Q540 -29 408 -29Q195 -29 119 272Q78 437 78 741Q78 1147 157 1326Q238 1509 408 1509Q717 1509 731 1036L608 1037Q598 1397 420 1397Q308 1397 257 1246Q207 1102 207 741Q207 381 257
237Q308 86 420 86Q608 86 608 389V565H420V676H731V-14H641Z" />
<glyph unicode="H" glyph-name="H" horiz-adv-x="815" d="M115 0V1481H242V834H573V1481H700V0H573V719H242V0H115Z" />
<glyph unicode="I" glyph-name="I" horiz-adv-x="365" d="M119 0V1481H246V0H119Z" />
<glyph unicode="J" glyph-name="J" horiz-adv-x="547" d="M0 4L20 115Q80 90 135 90Q240 90 277 190Q299 250 299 379V1481H426V414Q426 208 377 112Q309 -23 125 -23Q64 -23 0 4Z" />
<glyph unicode="K" glyph-name="K" horiz-adv-x="750" d="M115 0V1481H242V705L621 1481H735L471 961L788 0H659L387 825L242 541V0H115Z" />
<glyph unicode="L" glyph-name="L" horiz-adv-x="653" d="M115 0V1481H242V115H662V0H115Z" />
<glyph unicode="M" glyph-name="M" horiz-adv-x="1057" d="M115 0V1481H326L492 541Q502 485 526 248Q535 348 561 545L727 1481H940V0H815V1413L571 0H477L233 1413V0H115Z" />
<glyph unicode="N" glyph-name="N" horiz-adv-x="840" d="M115 0V1481H319L547 565Q582 426 616 240Q602 413 602 722V1481H723V0H575L238 1358V0H115Z" />
<glyph unicode="O" glyph-name="O" horiz-adv-x="815" d="M408 1397Q207 1397 207 774Q207 396 254 246Q304 86 408 86Q608 86 608 741Q608 1397 408 1397ZM78 772Q78 1509 408 1509Q620 1509 695 1209Q737 1044 737 741Q737 436 696 272Q621 -29 408 -29Q238
-29 156 159Q78 338 78 772Z" />
<glyph unicode="P" glyph-name="P" horiz-adv-x="764" d="M242 795H344Q502 795 562 858T623 1081Q623 1236 572 1298Q516 1368 365 1368H242V795ZM115 0V1481H375Q750 1481 750 1094Q750 877 657 780Q561 680 346 680H242V0H115Z" />
<glyph unicode="Q" glyph-name="Q" horiz-adv-x="815" d="M797 -108Q658 -91 598 63Q526 -29 408 -29Q195 -29 119 272Q78 437 78 741Q78 1047 119 1210Q194 1509 408 1509Q620 1509 696 1209Q737 1044 737 741Q737 341 657 162Q705 32 797 18V-108ZM420 297V414Q521
386 580 283Q608 417 608 686Q608 1077 562 1235Q513 1397 408 1397Q207 1397 207 741Q207 86 408 86Q493 86 543 172Q488 272 420 297Z" />
<glyph unicode="R" glyph-name="R" horiz-adv-x="768" d="M242 827Q255 828 278 826Q305 823 315 823Q460 823 524 888T588 1098Q588 1245 537 1305Q481 1370 338 1370H242V827ZM115 0V1481H279Q506 1481 604 1408Q719 1322 719 1106Q719 819 516 741L741 0H612L395
717Q321 711 242 717V0H115Z" />
<glyph unicode="S" glyph-name="S" horiz-adv-x="653" d="M33 389H150Q150 76 340 76Q433 76 480 153Q520 216 520 315Q520 505 393 633Q379 647 328 696Q172 845 127 913Q45 1034 45 1192Q45 1329 120 1416Q199 1509 334 1509Q627 1509 627 1094H508Q508 1405
332 1405Q250 1405 204 1337Q164 1278 164 1192Q164 1086 215 1003Q250 947 345 855Q507 699 556 624Q641 495 641 326Q641 172 568 77Q487 -29 338 -29Q33 -29 33 389Z" />
<glyph unicode="T" glyph-name="T" horiz-adv-x="602" d="M238 0V1368H-12V1481H614V1368H365V0H238Z" />
<glyph unicode="U" glyph-name="U" horiz-adv-x="815" d="M115 408V1481H242V393Q242 249 261 191Q296 82 408 82Q519 82 555 191Q575 251 575 393V1481H700V408Q700 210 652 111Q584 -29 408 -29Q231 -29 163 111Q115 209 115 408Z" />
<glyph unicode="V" glyph-name="V" horiz-adv-x="711" d="M295 0L0 1481H131L315 498Q347 326 358 203Q376 380 399 500L584 1481H711L412 0H295Z" />
<glyph unicode="W" glyph-name="W" horiz-adv-x="1034" d="M0 1481H121L246 516Q250 487 272 193Q280 300 305 512L469 1481H575L735 489Q756 359 774 195Q777 297 793 498L922 1481H1034L829 0H713L551 1018Q540 1086 520 1298Q513 1210 492 1036L324 0H207L0 1481Z" />
<glyph unicode="X" glyph-name="X" horiz-adv-x="700" d="M0 0L276 760L14 1481H143L358 885L565 1481H694L428 752L700 0H573L344 629L129 0H0Z" />
<glyph unicode="Y" glyph-name="Y" horiz-adv-x="711" d="M297 0V421Q297 430 303 526Q307 583 297 631Q283 699 253 774Q202 902 198 914L0 1481H133L360 795L584 1481H711L518 916Q481 831 422 633Q413 585 416 528Q422 431 422 422V0H297Z" />
<glyph unicode="Z" glyph-name="Z" horiz-adv-x="592" d="M-14 0V90L446 1368H29V1481H584V1395L125 115H584V0H-14Z" />
<glyph unicode="[" glyph-name="bracketleft" horiz-adv-x="465" d="M260 -39H379V-115H156V1481H379V1405H260V-39Z" />
<glyph unicode="\" glyph-name="backslash" horiz-adv-x="569" d="M571 -190L-49 1509H57L676 -190H571Z" />
<glyph unicode="]" glyph-name="bracketright" horiz-adv-x="465" d="M205 1405H86V1481H309V-115H86V-39H205V1405Z" />
<glyph unicode="^" glyph-name="asciicircum" horiz-adv-x="2048" d="M1081 1458L1622 901H1497L1024 1370L549 901H424L963 1458H1081Z" />
<glyph unicode="_" glyph-name="underscore" horiz-adv-x="1024" d="M1024 -403V-483H0V-403H1024Z" />
<glyph unicode="`" glyph-name="grave" horiz-adv-x="1024" d="M324 1550H444L612 1200H539L324 1550Z" />
<glyph unicode="a" glyph-name="a" horiz-adv-x="725" d="M498 219V600Q184 455 184 252Q184 92 307 92Q400 92 498 219ZM514 0L498 98Q407 -14 279 -14Q173 -14 116 69Q68 140 68 252Q68 417 209 542Q307 629 498 713V805Q498 981 369 981Q294 981 249 903Q213
842 205 758H100Q111 896 172 982Q245 1083 375 1083Q610 1083 610 725V203Q610 80 624 0H514Z" />
<glyph unicode="b" glyph-name="b" horiz-adv-x="741" d="M244 227Q319 82 406 82Q549 82 549 518Q549 772 515 868T403 965Q321 965 244 825V227ZM129 0V1481H244V956Q318 1075 428 1075Q668 1075 668 543Q668 -25 416 -25Q317 -25 233 92L213 0H129Z" />
<glyph unicode="c" glyph-name="c" horiz-adv-x="668" d="M625 319V307Q625 162 563 75Q492 -25 352 -25Q76 -25 76 530Q76 1087 352 1087Q482 1087 555 984Q615 897 625 758H516Q500 987 358 987Q272 987 233 884Q195 786 195 530Q195 272 234 177Q274 76 365
76Q516 76 518 319H625Z" />
<glyph unicode="d" glyph-name="d" horiz-adv-x="741" d="M612 0H528L508 92Q423 -25 326 -25Q74 -25 74 541Q74 1075 324 1075Q419 1075 498 956V1481H612V0ZM498 227V825Q419 965 338 965Q238 965 207 791Q193 712 193 541Q193 82 336 82Q424 82 498 227Z" />
<glyph unicode="e" glyph-name="e" horiz-adv-x="678" d="M190 618L518 619Q508 987 358 987Q204 987 190 618ZM629 327Q625 -25 352 -25Q76 -25 76 530Q76 1087 352 1087Q633 1087 633 520H190V504Q190 76 365 76Q518 76 518 328L629 327Z" />
<glyph unicode="f" glyph-name="f" horiz-adv-x="446" d="M158 0V967H4V1063H158V1243Q158 1366 200 1422Q248 1485 367 1485Q407 1485 459 1473V1376Q406 1393 360 1393Q299 1393 280 1337Q270 1307 270 1229V1063H440V967H270V0H158Z" />
<glyph unicode="g" glyph-name="g" horiz-adv-x="674" d="M332 983Q195 983 195 715Q195 418 332 418Q467 418 467 700Q467 983 332 983ZM315 70Q137 18 137 -109Q137 -182 205 -222Q262 -256 340 -256Q425 -256 482 -227Q555 -190 555 -113Q555 24 315 70ZM170
393Q88 503 88 707Q88 858 139 957Q205 1085 342 1085Q448 1085 510 993Q555 1075 659 1075V969Q580 969 549 924V921Q549 930 562 855Q575 777 575 721Q575 315 346 315Q295 315 236 338Q172 306 172 262Q172 222 298 183Q475 128 533 95Q659 21 659 -102Q659
-225 557 -292Q469 -350 340 -350Q219 -350 133 -293Q35 -227 35 -111Q35 35 219 104Q66 151 66 244Q66 315 170 393Z" />
<glyph unicode="h" glyph-name="h" horiz-adv-x="739" d="M131 0V1481H244V954Q345 1077 451 1077Q625 1077 625 766V0H512V778Q512 969 424 969Q337 969 244 829V0H131Z" />
<glyph unicode="i" glyph-name="i" horiz-adv-x="375" d="M119 1313V1450H254V1313H119ZM129 0V1063H244V0H129Z" />
<glyph unicode="j" glyph-name="j" horiz-adv-x="375" d="M129 1063H244V-74Q244 -200 217 -256Q176 -338 61 -338Q28 -338 -28 -328L-29 -233Q3 -246 33 -246Q95 -246 115 -199Q129 -169 129 -98V1063ZM119 1313V1450H254V1313H119Z" />
<glyph unicode="k" glyph-name="k" horiz-adv-x="659" d="M131 0V1481H244V555L510 1063H635L434 711L672 0H555L352 608L244 426V0H131Z" />
<glyph unicode="l" glyph-name="l" horiz-adv-x="375" d="M129 0V1481H244V0H129Z" />
<glyph unicode="m" glyph-name="m" horiz-adv-x="1094" d="M131 0V1063H244V954Q341 1075 440 1075Q570 1075 596 934Q696 1075 811 1075Q979 1075 979 766V0H864V778Q864 967 780 967Q704 967 610 829V0H498V778Q498 967 414 967Q336 967 244 829V0H131Z" />
<glyph unicode="n" glyph-name="n" horiz-adv-x="739" d="M131 0V1063H244V954Q345 1077 451 1077Q625 1077 625 766V0H512V778Q512 969 424 969Q337 969 244 829V0H131Z" />
<glyph unicode="o" glyph-name="o" horiz-adv-x="702" d="M352 983Q269 983 231 881Q195 784 195 530Q195 277 231 181Q269 78 352 78Q506 78 506 530Q506 983 352 983ZM352 1087Q625 1087 625 530Q625 -25 352 -25Q76 -25 76 530Q76 1087 352 1087Z" />
<glyph unicode="p" glyph-name="p" horiz-adv-x="739" d="M244 231Q316 90 403 90Q500 90 531 270Q545 352 545 524Q545 973 406 973Q315 973 244 821V231ZM131 -332V1067H244V967Q323 1083 426 1083Q664 1083 664 524Q664 -12 426 -12Q324 -12 244 94V-332H131Z" />
<glyph unicode="q" glyph-name="q" horiz-adv-x="739" d="M608 -332H496V94Q414 -12 313 -12Q76 -12 76 524Q76 1083 313 1083Q415 1083 496 967V1067H608V-332ZM496 231V821Q423 973 334 973Q195 973 195 524Q195 90 336 90Q421 90 496 231Z" />
<glyph unicode="r" glyph-name="r" horiz-adv-x="487" d="M131 0V1063H236V903Q297 1077 461 1077Q468 1077 482 1076T504 1075V961Q499 961 488 962T471 963Q244 963 244 686V0H131Z" />
<glyph unicode="s" glyph-name="s" horiz-adv-x="649" d="M72 307H184Q196 82 356 82Q421 82 459 130Q494 174 494 240Q494 314 416 399Q384 434 255 545Q153 633 122 688Q84 753 84 834Q84 946 151 1012T330 1079Q461 1079 532 984Q593 902 598 764H487Q475 981
330 981Q268 981 232 939T195 834Q195 737 359 603Q487 498 530 445Q610 347 610 233Q610 121 540 53T356 -16Q217 -16 143 79Q76 164 72 307Z" />
<glyph unicode="t" glyph-name="t" horiz-adv-x="455" d="M260 229Q260 86 356 86Q399 86 449 106V6Q387 -14 336 -14Q221 -14 178 57Q145 112 145 236V967H6V1063H145V1405H260V1063H449V967H260V229Z" />
<glyph unicode="u" glyph-name="u" horiz-adv-x="739" d="M608 1063V0H496V109Q399 -14 289 -14Q115 -14 115 297V1063H227V283Q227 94 315 94Q402 94 496 231V1063H608Z" />
<glyph unicode="v" glyph-name="v" horiz-adv-x="598" d="M258 0L10 1063H127L281 323Q309 188 315 117Q323 186 344 324L485 1063H602L373 0H258Z" />
<glyph unicode="w" glyph-name="w" horiz-adv-x="934" d="M199 0L8 1063H117L236 326Q239 305 258 109Q271 234 287 326L418 1063H532L653 316Q663 257 676 109Q681 179 698 317L834 1063H946L729 0H616L490 757Q482 828 467 970Q463 899 446 760L309 0H199Z" />
<glyph unicode="x" glyph-name="x" horiz-adv-x="555" d="M-14 0L223 565L14 1063H135L289 666L446 1063H561L350 563L590 0H467L281 463L100 0H-14Z" />
<glyph unicode="y" glyph-name="y" horiz-adv-x="602" d="M12 -337V-240H19Q28 -240 45 -242T72 -244Q209 -244 254 33L12 1063H125L272 410Q303 275 311 177Q328 286 352 391L506 1063H614L344 -74Q279 -348 80 -348Q50 -348 12 -337Z" />
<glyph unicode="z" glyph-name="z" horiz-adv-x="551" d="M12 0V70L401 963H49V1063H532V1001L143 104H528V0H12Z" />
<glyph unicode="{" glyph-name="braceleft" horiz-adv-x="1024" d="M848 1389Q676 1389 629 1337T581 1099Q581 1067 582 1001T584 901Q584 710 540 636T387 530Q495 498 539 425T584 159Q584 126 583 60T581 -38Q581 -224 628 -275T848 -326V-414H805Q604 -414
536 -324Q479 -248 479 -39V201Q479 359 421 423Q380 468 307 480Q274 485 176 485V575Q196 573 225 573Q370 573 428 646Q479 710 479 860V1100Q479 1327 547 1402T848 1477V1389Z" />
<glyph unicode="|" glyph-name="bar" horiz-adv-x="1024" d="M557 1565V-483H467V1565H557Z" />
<glyph unicode="}" glyph-name="braceright" horiz-adv-x="1024" d="M848 575V485Q841 485 826 486T803 487Q656 487 597 416Q545 352 545 201V-39Q545 -265 477 -339T176 -414V-326Q348 -326 395 -275T443 -39Q443 -8 442 57T440 156Q440 350 485 424T639 530Q530
562 485 636T440 903Q440 936 441 1002T443 1099Q443 1285 395 1337T176 1389V1477H219Q420 1477 488 1386Q545 1310 545 1100V860Q545 702 603 638Q644 592 717 580Q750 575 848 575Z" />
<glyph unicode="~" glyph-name="asciitilde" horiz-adv-x="1706" d="M1530 647Q1319 500 1143 500Q1043 500 853 570T565 641Q404 641 178 481V573Q385 719 565 719Q666 719 855 650T1143 580Q1303 580 1530 739V647Z" />
<glyph unicode="&#x80;" glyph-name="euro" horiz-adv-x="778" d="M43 651H129V829H41L53 903H131Q142 1147 184 1279Q257 1509 434 1509Q683 1509 725 1036H604Q577 1407 434 1407Q275 1407 256 903H588L575 829H254V651H555L543 578H256Q271 76 434 76Q535 76
577 244Q595 319 606 492H729Q693 -29 434 -29Q257 -29 183 202Q143 330 131 578H31L43 651Z" />
</font>
</defs>
</svg>
